<?xml version="1.0" standalone="no"?>
<!DOCTYPE svg PUBLIC "-//W3C//DTD SVG 1.1//EN" "http://www.w3.org/Graphics/SVG/1.1/DTD/svg11.dtd" >
<svg>
<metadata>
Created by FontForge 20090914 at Thu Oct  5 15:47:09 2017
 By www-data
Copyright (c) 2011, Pablo Impallari (www.impallari.com|impallari@gmail.com),Copyright (c) 2011, Igino Marini. (www.ikern.com|mail@iginomarini.com),Copyright (c) 2011, Brenda Gallo. (gbrenda1987@gmail.com),with Reserved Font Name Quattrocento Sans.
</metadata>
<defs>
<font id="QuattrocentoSans-Bold" horiz-adv-x="539" >
  <font-face 
    font-family="Quattrocento Sans"
    font-weight="700"
    font-stretch="normal"
    units-per-em="1000"
    panose-1="2 11 8 2 5 0 0 2 0 3"
    ascent="800"
    descent="-200"
    x-height="460"
    cap-height="660"
    bbox="-38 -260.002 1162 848.998"
    underline-thickness="48"
    underline-position="-47"
    unicode-range="U+000D-U+FB02"
  />
<missing-glyph horiz-adv-x="266" 
d="M50 243c0 10.667 2.16992 21.167 6.50293 31.5s10.166 19.333 17.499 27s16.166 13.834 26.499 18.501s21.166 7 32.499 7c10.667 0 21 -2.33301 31 -7s18.833 -10.834 26.5 -18.501s13.834 -16.667 18.501 -27s7 -20.833 7 -31.5c0 -12 -2.33301 -23 -7 -33
s-10.834 -18.667 -18.501 -26s-16.5 -13 -26.5 -17s-20.333 -6 -31 -6c-23.333 0 -43 7.83301 -59 23.5s-24 35.167 -24 58.5z" />
    <glyph glyph-name="fi" unicode="fi" horiz-adv-x="525" 
d="M91 393l-57 0.00390625v57l57 9c0 38 1.16699 70.333 3.5 97s5.5 49.167 9.5 67.5s8.5 33.166 13.5 44.499s10.167 20.666 15.5 27.999c13.333 17.333 30.833 29.833 52.5 37.5s45.5 11.5 71.5 11.5c8 0 17.833 -0.5 29.5 -1.5s24.5 -3.33301 38.5 -7
s29 -8.83398 45 -15.501s32 -15.334 48 -26.001l-45 -81l-56 34.5c-19.333 11.667 -42 17.5 -68 17.5c-8.66699 0 -16 -2 -22 -6s-11 -11.333 -15 -22s-6.83301 -25 -8.5 -43s-2.5 -41 -2.5 -69v-66h88v-67h-88v-393h-110v393zM457 0.00390625h-110v460h110v-460z" />
    <glyph glyph-name="fl" unicode="fl" horiz-adv-x="536" 
d="M461 0l-110.001 0.00195312v644c-15.333 5.33301 -31.166 10.333 -47.499 15s-34.5 7 -54.5 7c-8.66699 0 -16 -2 -22 -6s-11 -11.333 -15 -22s-6.83301 -25 -8.5 -43s-2.5 -41 -2.5 -69v-66h88v-67h-88v-393h-110v393h-57v57l57 9c0 38 1.16699 70.333 3.5 97
s5.5 49.167 9.5 67.5s8.5 33.166 13.5 44.499s10.167 20.666 15.5 27.999c13.333 17.333 30.833 29.833 52.5 37.5s45.5 11.5 71.5 11.5c15.333 0 38 -2 68 -6s61 -11.667 93 -23l43 24v-740z" />
    <glyph glyph-name=".notdef" horiz-adv-x="266" 
d="M50 243c0 10.667 2.16992 21.167 6.50293 31.5s10.166 19.333 17.499 27s16.166 13.834 26.499 18.501s21.166 7 32.499 7c10.667 0 21 -2.33301 31 -7s18.833 -10.834 26.5 -18.501s13.834 -16.667 18.501 -27s7 -20.833 7 -31.5c0 -12 -2.33301 -23 -7 -33
s-10.834 -18.667 -18.501 -26s-16.5 -13 -26.5 -17s-20.333 -6 -31 -6c-23.333 0 -43 7.83301 -59 23.5s-24 35.167 -24 58.5z" />
    <glyph glyph-name="NULL" horiz-adv-x="0" 
 />
    <glyph glyph-name="NULL" horiz-adv-x="0" 
 />
    <glyph glyph-name="nonmarkingreturn" unicode="&#xd;" horiz-adv-x="245" 
 />
    <glyph glyph-name="space" unicode=" " horiz-adv-x="245" 
 />
    <glyph glyph-name="exclam" unicode="!" horiz-adv-x="270" 
d="M91 180l-24 502h137l-26 -502h-87zM62 59c0 18.667 7 34.833 21 48.5s30.667 20.5 50 20.5s36.333 -6.83301 51 -20.5s22 -30.167 22 -49.5s-7.5 -35.833 -22.5 -49.5s-32.167 -20.5 -51.5 -20.5s-35.833 7 -49.5 21s-20.5 30.667 -20.5 50z" />
    <glyph glyph-name="quotedbl" unicode="&#x22;" horiz-adv-x="376" 
d="M71 516l-21 216h121l-24 -216h-76zM228 516l-21 216h121l-24 -216h-76z" />
    <glyph glyph-name="numbersign" unicode="#" horiz-adv-x="617" 
d="M481 461h101l-16 -82h-103l-19 -89h108l-17 -83h-108l-44 -207h-104l44 207h-86l-44 -207h-104l44 207h-97l17 83h97l19 89h-102l16 82h104l41 193h104l-41 -193h86l41 193h104zM254 290h86l19 89h-86z" />
    <glyph glyph-name="dollar" unicode="$" horiz-adv-x="518" 
d="M305 662c27.333 -2.66699 53.166 -7.16602 77.499 -13.499s45.5 -13.5 63.5 -21.5l-27 -106c-16 10.667 -34.167 19.667 -54.5 27s-40.166 13 -59.499 17v-174c22 -8.66699 43.5 -18.5 64.5 -29.5s39.833 -24.5 56.5 -40.5s30 -35.333 40 -58s15 -50 15 -82
c0 -30 -4.66699 -56.167 -14 -78.5s-22 -41 -38 -56s-34.667 -27 -56 -36s-44 -15.167 -68 -18.5v-88h-80v85c-38 2 -73.167 8.16699 -105.5 18.5s-60.166 22.166 -83.499 35.499l29 103c21.333 -16.667 45.166 -30.5 71.499 -41.5s55.833 -17.833 88.5 -20.5v209
c-19.333 6.66699 -39 14.5 -59 23.5s-38.333 20.833 -55 35.5s-30.334 33.334 -41.001 56.001s-16 50.667 -16 84c0 28.667 4.33301 53.5 13 74.5s20.667 38.167 36 51.5s33.333 23.666 54 30.999s43.334 12 68.001 14v87h80v-88zM371 169.001
c0 22.667 -6.66895 41.332 -20.002 55.999s-28.666 26.667 -45.999 36v-170c22.667 6 39.334 15.833 50.001 29.5s16 29.834 16 48.501zM159.998 499.999c0 -19.333 5.83301 -34.833 17.5 -46.5s27.5 -22.167 47.5 -31.5v145c-20 -3.33301 -35.833 -10.5 -47.5 -21.5
s-17.5 -26.167 -17.5 -45.5z" />
    <glyph glyph-name="percent" unicode="%" horiz-adv-x="838" 
d="M231 -24h-90l463 715h90zM193 665c24.667 0 46.667 -5.00195 66 -15.002s35.833 -23.333 49.5 -40s24 -36.167 31 -58.5s10.5 -45.833 10.5 -70.5c0 -24 -3.5 -47.333 -10.5 -70s-17.333 -42.667 -31 -60s-30.5 -31.166 -50.5 -41.499s-43 -15.5 -69 -15.5
c-25.333 0 -47.5 4.83301 -66.5 14.5s-35 22.834 -48 39.501s-22.667 36.167 -29 58.5s-9.5 45.833 -9.5 70.5c0 26 3.5 50.5 10.5 73.5s17.333 43 31 60s30.167 30.333 49.5 40s41.333 14.5 66 14.5zM190 358.998c13.333 0 24.666 3.16699 33.999 9.5s17 15 23 26
s10.5 23.667 13.5 38s4.5 29.833 4.5 46.5c0 36 -6 65.167 -18 87.5s-30.667 33.5 -56 33.5s-43.166 -11 -53.499 -33s-15.5 -50 -15.5 -84c0 -41.333 6 -72.333 18 -93s28.667 -31 50 -31zM646 365.998c24.667 0 46.667 -5.00195 66 -15.002s35.833 -23.333 49.5 -40
s24 -36.167 31 -58.5s10.5 -45.833 10.5 -70.5c0 -24 -3.5 -47.333 -10.5 -70s-17.333 -42.667 -31 -60s-30.5 -31.166 -50.5 -41.499s-43 -15.5 -69 -15.5c-25.333 0 -47.5 4.83301 -66.5 14.5s-35 22.834 -48 39.501s-22.667 36.167 -29 58.5s-9.5 45.833 -9.5 70.5
c0 26 3.5 50.5 10.5 73.5s17.333 43 31 60s30.167 30.333 49.5 40s41.333 14.5 66 14.5zM643 59.9961c13.333 0 24.666 3.16699 33.999 9.5s17 15 23 26s10.5 23.667 13.5 38s4.5 29.833 4.5 46.5c0 36 -6 65.167 -18 87.5s-30.667 33.5 -56 33.5s-43.166 -11 -53.499 -33
s-15.5 -50 -15.5 -84c0 -41.333 6 -72.333 18 -93s28.667 -31 50 -31z" />
    <glyph glyph-name="ampersand" unicode="&#x26;" horiz-adv-x="705" 
d="M668 442v-77.001l-144 -11c21.333 -37.333 32 -77 32 -119c0 -32.667 -6.66699 -64.334 -20 -95.001l136 -140h-124l-63 65c-23.333 -23.333 -52 -42 -86 -56s-73 -21 -117 -21c-37.333 0 -70.333 5.16699 -99 15.5s-52.667 24.333 -72 42s-33.833 37.834 -43.5 60.501
s-14.5 46 -14.5 70c0 18 2.83301 36.5 8.5 55.5s14 37.167 25 54.5s25 33.333 42 48s36.5 26.667 58.5 36c-19.333 22.667 -34.333 45.334 -45 68.001s-16 48.667 -16 78c0 24.667 3.83301 46.167 11.5 64.5s18.334 33.833 32.001 46.5s29.5 22.167 47.5 28.5s37 9.5 57 9.5
c22.667 0 46.5 -3.83301 71.5 -11.5s48.833 -18.5 71.5 -32.5l-28 -96c-6 5.33301 -13.333 10.833 -22 16.5s-17.834 10.667 -27.501 15s-19.5 8 -29.5 11s-19.333 4.5 -28 4.5c-16 0 -29.5 -5.33301 -40.5 -16s-16.5 -26.667 -16.5 -48s6 -40.5 18 -57.5
s26.667 -34.5 44 -52.5l172 -178c0.666992 3.33301 1.16699 7 1.5 11s0.5 8 0.5 12c0 15.333 -2.5 31.833 -7.5 49.5s-13.833 35.5 -26.5 53.5l-49 -3v62zM291 83.999c26.667 0 50.6689 4.50098 72.002 13.501s39.333 21.167 54 36.5l-170 173
c-12.667 -3.33301 -23.834 -9 -33.501 -17s-17.834 -17.167 -24.501 -27.5s-11.667 -21.833 -15 -34.5s-5 -25.334 -5 -38.001c0 -36 11.5 -62.667 34.5 -80s52.167 -26 87.5 -26z" />
    <glyph glyph-name="quotesingle" unicode="'" horiz-adv-x="219" 
d="M71 516l-21 216h121l-24 -216h-76z" />
    <glyph glyph-name="parenleft" unicode="(" horiz-adv-x="327" 
d="M311 746c-25.333 -30 -47.333 -60.5 -66 -91.5s-34 -63.5 -46 -97.5s-20.833 -70 -26.5 -108s-8.5 -79 -8.5 -123c0 -26 1.5 -55 4.5 -87s9.5 -66 19.5 -102s24.667 -73.333 44 -112s45.333 -77.667 78 -117l-67 -25c-64 57.333 -113.667 124.333 -149 201
s-53 157.667 -53 243s17.667 166 53 242s85 143.333 149 202z" />
    <glyph glyph-name="parenright" unicode=")" horiz-adv-x="327" 
d="M84 771c64 -58.667 113.667 -126 149 -202s53 -156.667 53 -242s-17.667 -166.333 -53 -243s-85 -143.667 -149 -201l-67 25c32.667 39.333 58.667 78.333 78 117s34 76 44 112s16.5 70 19.5 102s4.5 61 4.5 87c0 44 -2.83301 85 -8.5 123s-14.5 74 -26.5 108
s-27.333 66.5 -46 97.5s-40.667 61.5 -66 91.5z" />
    <glyph glyph-name="asterisk" unicode="*" horiz-adv-x="440" 
d="M244 578l92 87l52 -89l-120 -38l120 -38l-52 -89l-93 86l28 -123h-102l27 123l-92 -86l-52 89l119 38l-119 38l52 89l92 -87l-27 124h102z" />
    <glyph glyph-name="plus" unicode="+" horiz-adv-x="487" 
d="M289 280h152v-82h-152v-157h-92v157h-151v82h151v147h92v-147z" />
    <glyph glyph-name="comma" unicode="," horiz-adv-x="261" 
d="M51 -118l45 113h-25v137h119v-152l-103 -123z" />
    <glyph glyph-name="hyphen" unicode="-" horiz-adv-x="468" 
d="M403 280v-82h-338v82h338z" />
    <glyph glyph-name="period" unicode="." horiz-adv-x="255" 
d="M56 59c0 9.33301 1.83203 18.334 5.49902 27.001s8.83398 16.5 15.501 23.5s14.167 12.5 22.5 16.5s17.5 6 27.5 6c9.33301 0 18.333 -2 27 -6s16.5 -9.5 23.5 -16.5s12.5 -14.833 16.5 -23.5s6 -17.667 6 -27c0 -10 -2 -19.167 -6 -27.5s-9.5 -15.833 -16.5 -22.5
s-14.833 -11.834 -23.5 -15.501s-17.667 -5.5 -27 -5.5c-19.333 0 -36 7 -50 21s-21 30.667 -21 50z" />
    <glyph glyph-name="slash" unicode="/" horiz-adv-x="451" 
d="M144 -57h-115l278 759h115z" />
    <glyph glyph-name="zero" unicode="0" horiz-adv-x="635" 
d="M318 665c42.667 0 80.4971 -9.16699 113.497 -27.5s60.833 -42.833 83.5 -73.5s39.834 -66.167 51.501 -106.5s17.5 -82.833 17.5 -127.5s-6 -87.5 -18 -128.5s-29.5 -77.333 -52.5 -109s-51.5 -57 -85.5 -76s-73 -28.5 -117 -28.5c-43.333 0 -81.166 9 -113.499 27
s-59.166 42.333 -80.499 73s-37.5 66.167 -48.5 106.5s-16.5 82.833 -16.5 127.5c0 47.333 6 91.833 18 133.5s29.333 78 52 109s50.5 55.5 83.5 73.5s70.5 27 112.5 27zM314.997 84c25.333 0 47.1689 6.16895 65.502 18.502s33.5 29.5 45.5 51.5s21 48 27 78s9 62.333 9 97
c0 35.333 -3 67.666 -9 96.999s-15.167 54.666 -27.5 75.999s-27.833 37.833 -46.5 49.5s-40.334 17.5 -65.001 17.5s-45.834 -5.83301 -63.501 -17.5s-32 -28 -43 -49s-19.167 -46.333 -24.5 -76s-8 -62.167 -8 -97.5c0 -80.667 12.167 -141.667 36.5 -183
s58.833 -62 103.5 -62z" />
    <glyph glyph-name="one" unicode="1" horiz-adv-x="333" 
d="M245 0h-115v486l-81 -36l-22 100l218 110v-660z" />
    <glyph glyph-name="two" unicode="2" horiz-adv-x="504" 
d="M50 613c12.667 6.66699 27.1699 13.168 43.5029 19.501s33.333 12 51 17s35.5 8.83301 53.5 11.5s35.667 4 53 4c28 0 54 -3.83301 78 -11.5s44.5 -18.667 61.5 -33s30.333 -31.666 40 -51.999s14.5 -42.833 14.5 -67.5c0 -34 -8.5 -67.833 -25.5 -101.5
s-38.333 -67.334 -64 -101.001s-53.834 -67 -84.501 -100s-59.334 -65.833 -86.001 -98.5h267v-100h-405v100c26 35.333 55.5 70.166 88.5 104.499l93 100.5c29 32.667 53.5 64.667 73.5 96s30 62 30 92c0 28.667 -9.33301 49 -28 61s-43 18 -73 18
c-28.667 0 -56.834 -4.5 -84.501 -13.5s-52.167 -19.5 -73.5 -31.5z" />
    <glyph glyph-name="three" unicode="3" horiz-adv-x="529" 
d="M70 612c25.333 15.333 54.5029 27.9951 87.5029 37.9951s65.833 15 98.5 15c28 0 53.667 -4 77 -12s43.5 -19.167 60.5 -33.5s30.167 -31.5 39.5 -51.5s14 -42 14 -66c0 -35.333 -9 -64.166 -27 -86.499s-40.667 -41.166 -68 -56.499c40 -13.333 71.167 -33.333 93.5 -60
s33.5 -61.667 33.5 -105c0 -28 -5 -54.5 -15 -79.5s-25.333 -46.833 -46 -65.5s-46.334 -33.5 -77.001 -44.5s-66.334 -16.5 -107.001 -16.5c-82.667 0 -150.667 22.667 -204 68l28 91c23.333 -19.333 49.333 -34.666 78 -45.999s59.334 -17 92.001 -17
c42 0 73.833 9.83301 95.5 29.5s32.5 48.5 32.5 86.5c0 34 -9.83301 60.833 -29.5 80.5s-52.5 29.5 -98.5 29.5h-27v87h31c29.333 0 52 9.33301 68 28s24 43.334 24 74.001c0 27.333 -8.33301 46.5 -25 57.5s-36.667 16.5 -60 16.5c-12.667 0 -25.834 -1.33301 -39.501 -4
s-26.834 -6.5 -39.501 -11.5s-24.5 -10.667 -35.5 -17s-20.5 -13.166 -28.5 -20.499z" />
    <glyph glyph-name="four" unicode="4" horiz-adv-x="538" 
d="M494 190h-69v-190h-115v190h-284v90l279 380h120v-380h69v-90zM310 280v242l-171 -242h171z" />
    <glyph glyph-name="five" unicode="5" horiz-adv-x="531" 
d="M73 302l38.999 363.004h339v-105h-246l-15 -158c14 4 28.667 6.83301 44 8.5s29.333 2.5 42 2.5c30.667 0 58.667 -4.5 84 -13.5s47.333 -22.167 66 -39.5s33.167 -38.5 43.5 -63.5s15.5 -53.5 15.5 -85.5c0 -30.667 -5 -59.5 -15 -86.5s-25.167 -50.667 -45.5 -71
s-45.833 -36.333 -76.5 -48s-66.667 -17.5 -108 -17.5c-40.667 0 -78.167 5.83301 -112.5 17.5s-64.5 28.167 -90.5 49.5l29 95c10 -9.33301 21.5 -17.833 34.5 -25.5s27 -14.334 42 -20.001s30.333 -10.167 46 -13.5s31.167 -5 46.5 -5c16.667 0 32.834 2.16699 48.501 6.5
s29.334 11.166 41.001 20.499s21 21.5 28 36.5s10.5 33.167 10.5 54.5c0 16 -2 30.667 -6 44s-10.667 24.666 -20 33.999s-21.833 16.666 -37.5 21.999s-35.5 8 -59.5 8c-20.667 0 -43.334 -2 -68.001 -6s-48 -10.333 -70 -19z" />
    <glyph glyph-name="six" unicode="6" 
d="M166 331c11.333 24 28.8311 41.668 52.498 53.001s51.5 17 83.5 17c38 0 69.333 -7 94 -21s44.334 -31.333 59.001 -52s24.834 -42.834 30.501 -66.501s8.5 -45.5 8.5 -65.5c0 -24 -3.83301 -48.333 -11.5 -73s-20 -47 -37 -67s-39.167 -36.333 -66.5 -49
s-60.333 -19 -99 -19c-41.333 0 -76.166 7.5 -104.499 22.5s-51.333 36.167 -69 63.5s-30.5 60.166 -38.5 98.499s-12 80.833 -12 127.5c0 45.333 3.83301 89.833 11.5 133.5s21 82.5 40 116.5s44.333 61.5 76 82.5s71.167 31.5 118.5 31.5c12 0 25.333 -0.833008 40 -2.5
s29.5 -4.5 44.5 -8.5s29.5 -9.33301 43.5 -16s26 -15 36 -25l-25 -88c-22 16.667 -45.333 28.334 -70 35.001s-46.334 10 -65.001 10c-28 0 -51.333 -6.16699 -70 -18.5s-33.5 -28.5 -44.5 -48.5s-18.667 -42.333 -23 -67s-6.5 -49.334 -6.5 -74.001v-14.5
c0 -4.33301 0.333008 -9.16602 1 -14.499zM375.998 200.001c0 14 -1.33301 27.6689 -4 41.002s-7.5 25.166 -14.5 35.499s-16.333 18.5 -28 24.5s-26.167 9 -43.5 9c-34 0 -59.5 -11 -76.5 -33s-25.5 -50 -25.5 -84c0 -34.667 8.66699 -62.334 26 -83.001s41 -31 71 -31
s53.333 10.667 70 32s25 51 25 89z" />
    <glyph glyph-name="seven" unicode="7" horiz-adv-x="457" 
d="M77 0c-0.666992 6 -1 12.501 -1 19.501v19.5c0 39.333 7.83301 82.5 23.5 129.5s35.834 94 60.501 141s51.834 92.333 81.501 136s58.5 81.834 86.5 114.501h-291v105h405v-105c-28.667 -31.333 -57.334 -69.5 -86.001 -114.5s-54.334 -91.833 -77.001 -140.5
s-41 -96.334 -55 -143.001s-21 -87.334 -21 -122.001v-21c0 -6.66699 0.333008 -13 1 -19h-127z" />
    <glyph glyph-name="eight" unicode="8" horiz-adv-x="544" 
d="M372 362c38.667 -8.66699 68.5 -28.668 89.5 -60.001s31.5 -69.333 31.5 -114c0 -28 -4.33301 -54.167 -13 -78.5s-22.167 -45.5 -40.5 -63.5s-41.5 -32.167 -69.5 -42.5s-61 -15.5 -99 -15.5c-40 0 -74 5.5 -102 16.5s-50.667 25.667 -68 44s-30 39.5 -38 63.5
s-12 48.667 -12 74c0 44 10.667 81.333 32 112s51 51.667 89 63v4c-23.333 8.66699 -43.833 25 -61.5 49s-26.5 54.333 -26.5 91c0 48 16.333 86.667 49 116s79 44 139 44c58.667 0 104.667 -14.167 138 -42.5s50 -66.5 50 -114.5c0 -35.333 -8.5 -65.166 -25.5 -89.499
s-37.833 -41.833 -62.5 -52.5v-4zM378 184.999c0 15.333 -1.99902 30.666 -5.99902 45.999s-10.333 29 -19 41s-19.834 21.833 -33.501 29.5s-29.834 11.5 -48.501 11.5c-19.333 0 -35.666 -3.83301 -48.999 -11.5s-24.333 -17.667 -33 -30s-15 -26.166 -19 -41.499
s-6 -30.333 -6 -45c0 -36 9.83301 -63.333 29.5 -82s45.5 -28 77.5 -28s57.833 9.33301 77.5 28s29.5 46 29.5 82zM348.001 491.999c0 26 -6.5 46.5 -19.5 61.5s-32.167 22.5 -57.5 22.5c-24.667 0 -43.667 -7.16699 -57 -21.5s-20 -34.833 -20 -61.5c0 -28 7 -50 21 -66
s32.667 -24 56 -24s42 8 56 24s21 37.667 21 65z" />
    <glyph glyph-name="nine" unicode="9" 
d="M373 321c-11.333 -24 -28.8311 -41.668 -52.498 -53.001s-51.5 -17 -83.5 -17c-38 0 -69.333 7 -94 21s-44.334 31.333 -59.001 52s-24.834 42.834 -30.501 66.501s-8.5 45.5 -8.5 65.5c0 24 3.83301 48.333 11.5 73s20 47 37 67s39 36.333 66 49s60.167 19 99.5 19
c41.333 0 76.166 -7.5 104.499 -22.5s51.333 -36.167 69 -63.5s30.5 -60.166 38.5 -98.499s12 -80.833 12 -127.5c0 -45.333 -3.83301 -89.833 -11.5 -133.5s-21 -82.5 -40 -116.5s-44.333 -61.5 -76 -82.5s-71.167 -31.5 -118.5 -31.5c-12 0 -25.333 0.833008 -40 2.5
s-29.5 4.5 -44.5 8.5s-29.5 9.33301 -43.5 16s-26 15 -36 25l25 88c22 -16.667 45.333 -28.334 70 -35.001s46.334 -10 65.001 -10c28 0 51.167 6.16699 69.5 18.5s33 28.5 44 48.5s18.833 42.333 23.5 67s7 49.334 7 74.001v14.5c0 4.33301 -0.333008 9.16602 -1 14.499z
M163.002 451.999c0 -14 1.33301 -27.6689 4 -41.002s7.5 -25.166 14.5 -35.499s16.333 -18.5 28 -24.5s26.167 -9 43.5 -9c34 0 59.5 11 76.5 33s25.5 50 25.5 84c0 34.667 -8.66699 62.334 -26 83.001s-41 31 -71 31s-53.333 -10.667 -70 -32s-25 -51 -25 -89z" />
    <glyph glyph-name="colon" unicode=":" horiz-adv-x="274" 
d="M65 59c0 9.33301 1.83203 18.334 5.49902 27.001s8.83398 16.5 15.501 23.5s14.167 12.5 22.5 16.5s17.5 6 27.5 6c9.33301 0 18.333 -2 27 -6s16.5 -9.5 23.5 -16.5s12.5 -14.833 16.5 -23.5s6 -17.667 6 -27c0 -10 -2 -19.167 -6 -27.5s-9.5 -15.833 -16.5 -22.5
s-14.833 -11.834 -23.5 -15.501s-17.667 -5.5 -27 -5.5c-19.333 0 -36 7 -50 21s-21 30.667 -21 50zM64.999 382.001c0 9.33301 1.83203 18.334 5.49902 27.001s8.83398 16.5 15.501 23.5s14.167 12.5 22.5 16.5s17.5 6 27.5 6c9.33301 0 18.333 -2 27 -6
s16.5 -9.5 23.5 -16.5s12.5 -14.833 16.5 -23.5s6 -17.667 6 -27c0 -10 -2 -19.167 -6 -27.5s-9.5 -15.833 -16.5 -22.5s-14.833 -11.834 -23.5 -15.501s-17.667 -5.5 -27 -5.5c-19.333 0 -36 7 -50 21s-21 30.667 -21 50z" />
    <glyph glyph-name="semicolon" unicode=";" horiz-adv-x="279" 
d="M69 382c0 9.33301 1.83203 18.334 5.49902 27.001s8.83398 16.5 15.501 23.5s14.167 12.5 22.5 16.5s17.5 6 27.5 6c9.33301 0 18.333 -2 27 -6s16.5 -9.5 23.5 -16.5s12.5 -14.833 16.5 -23.5s6 -17.667 6 -27c0 -10 -2 -19.167 -6 -27.5s-9.5 -15.833 -16.5 -22.5
s-14.833 -11.834 -23.5 -15.501s-17.667 -5.5 -27 -5.5c-19.333 0 -36 7 -50 21s-21 30.667 -21 50zM59.999 -117.999l45 113h-25v137h119v-152l-103 -123z" />
    <glyph glyph-name="less" unicode="&#x3c;" horiz-adv-x="397" 
d="M145 238l198 -133l-18 -94l-286 197v65l285 194l18 -93l-197 -131v-5z" />
    <glyph glyph-name="equal" unicode="=" horiz-adv-x="476" 
d="M407 204v-82h-338v82h338zM407 356v-82h-338v82h338z" />
    <glyph glyph-name="greater" unicode="&#x3e;" horiz-adv-x="397" 
d="M252 243l-197 131l18 93l285 -194v-65l-286 -197l-18 94l198 133v5z" />
    <glyph glyph-name="question" unicode="?" horiz-adv-x="409" 
d="M36 634c18.667 14 41.832 26.166 69.499 36.499s56.5 15.5 86.5 15.5c24.667 0 47.334 -4 68.001 -12s38.5 -19 53.5 -33s26.667 -30.667 35 -50s12.5 -40.333 12.5 -63c0 -30 -6.5 -57 -19.5 -81s-27.333 -48.5 -43 -73.5s-30.167 -52.667 -43.5 -83
s-20 -66.833 -20 -109.5h-104c0 45.333 6.33301 84 19 116s26.5 60.167 41.5 84.5l41.5 68c12.667 21 19 43.167 19 66.5c0 26.667 -8 45.334 -24 56.001s-34 16 -54 16c-21.333 0 -42.333 -4.66699 -63 -14s-37 -21.333 -49 -36zM113.998 58.999c0 18.667 7 34.833 21 48.5
s30.667 20.5 50 20.5s36.333 -6.83301 51 -20.5s22 -30.167 22 -49.5s-7.5 -35.833 -22.5 -49.5s-32.167 -20.5 -51.5 -20.5s-35.833 7 -49.5 21s-20.5 30.667 -20.5 50z" />
    <glyph glyph-name="at" unicode="@" horiz-adv-x="721" 
d="M411 320c-6 2.66699 -12.667 4.00098 -20 4.00098c-13.333 0 -25 -4.5 -35 -13.5s-18.667 -20.167 -26 -33.5s-12.833 -27.833 -16.5 -43.5s-5.5 -29.834 -5.5 -42.501c0 -27.333 7.33301 -41 22 -41c6 0 12.5 2.5 19.5 7.5s13.833 12 20.5 21s12.667 19.333 18 31
s9 24.5 11 38.5zM571 -22.999c-6.66699 -6 -17.165 -13.4971 -31.498 -22.4971s-31.5 -17.667 -51.5 -26s-42.5 -15.333 -67.5 -21s-51.167 -8.5 -78.5 -8.5c-39.333 0 -76.666 6.66699 -111.999 20s-66.333 32.166 -93 56.499s-47.834 53.833 -63.501 88.5
s-23.5 73.334 -23.5 116.001c0 38 6.83301 78.5 20.5 121.5s34.834 82.833 63.501 119.5s65 67 109 91s96.667 36 158 36c47.333 0 88.166 -7.33301 122.499 -22s62.666 -33.667 84.999 -57s38.833 -49.666 49.5 -78.999s16 -58.333 16 -87
c0 -30.667 -5.33301 -59.834 -16 -87.501s-25.167 -52 -43.5 -73s-39.666 -37.667 -63.999 -50s-49.833 -18.5 -76.5 -18.5c-28.667 0 -48.667 6.83301 -60 20.5s-17 31.167 -17 52.5c-11.333 -22.667 -26.666 -40.667 -45.999 -54s-37.666 -20 -54.999 -20
c-10 0 -20.167 2.5 -30.5 7.5s-19.5 12.5 -27.5 22.5s-14.667 22.5 -20 37.5s-8 32.5 -8 52.5c0 30 5.83301 57 17.5 81s26.5 44.5 44.5 61.5s38.167 30.167 60.5 39.5s44.5 14 66.5 14c8.66699 0 18.167 -0.833008 28.5 -2.5s20.5 -4 30.5 -7s19.167 -7 27.5 -12
s15.166 -10.833 20.499 -17.5l-31 -142c-1.33301 -6.66699 -2.33301 -13.5 -3 -20.5s-1 -13.167 -1 -18.5s1 -10.666 3 -15.999s7.66699 -8 17 -8c11.333 0 22 4.33301 32 13s18.667 20.167 26 34.5s13.166 30.5 17.499 48.5s6.5 36.333 6.5 55
c0 21.333 -3.16699 42.5 -9.5 63.5s-16.5 39.667 -30.5 56s-32 29.666 -54 39.999s-48.333 15.5 -79 15.5c-40.667 0 -76.334 -8.66699 -107.001 -26s-56.334 -39.833 -77.001 -67.5s-36.334 -58.834 -47.001 -93.501s-16 -69.334 -16 -104.001
c0 -36 5.33301 -66.833 16 -92.5s25.334 -46.667 44.001 -63s40.167 -28.333 64.5 -36s50.5 -11.5 78.5 -11.5c26 0 50.5 2.83301 73.5 8.5s43.667 12.667 62 21s34.333 17.166 48 26.499s24.167 17.333 31.5 24v-80z" />
    <glyph glyph-name="A" unicode="A" horiz-adv-x="628" 
d="M639 0h-125l-75 192h-249l-68 -192h-120l256 660h99zM222 282h181l-95 243z" />
    <glyph glyph-name="B" unicode="B" horiz-adv-x="570" 
d="M468 493c0 -26.667 -5.49609 -50.8311 -16.4961 -72.498s-28.167 -40.167 -51.5 -55.5c40 -13.333 71.333 -34.333 94 -63s34 -65 34 -109c0 -28 -5 -54.333 -15 -79s-25.333 -46.334 -46 -65.001s-46.334 -33.5 -77.001 -44.5s-66.667 -16.5 -108 -16.5
c-36.667 0 -72.334 1.16699 -107.001 3.5s-63.667 5.16602 -87 8.49902v660c7.33301 0.666992 17.666 1.16699 30.999 1.5s27.666 0.833008 42.999 1.5s30.666 1.16699 45.999 1.5s29 0.5 41 0.5c70.667 0 124.834 -14.5 162.501 -43.5s56.5 -71.833 56.5 -128.5z
M277.004 311.003c-12.667 0 -25.334 -0.166992 -38.001 -0.5s-24.667 -0.833008 -36 -1.5v-223c12 -1.33301 24.333 -2 37 -2h39c40.667 0 72.334 10 95.001 30s34 49 34 87c0 34 -10.333 60.833 -31 80.5s-54 29.5 -100 29.5zM268.004 571.003
c-13.333 0 -25.168 -0.5 -35.501 -1.5s-20.166 -2.16699 -29.499 -3.5v-171c8 -0.666992 16.167 -1 24.5 -1h25.5c29.333 0 52.333 9.83301 69 29.5s25 45.5 25 77.5c0 20 -6.83301 36.667 -20.5 50s-33.167 20 -58.5 20z" />
    <glyph glyph-name="C" unicode="C" horiz-adv-x="628" 
d="M552 518c-21.333 14.667 -46.832 26.502 -76.499 35.502s-63.5 13.5 -101.5 13.5c-36 0 -66.833 -5.66699 -92.5 -17s-46.5 -27.333 -62.5 -48s-27.833 -45.5 -35.5 -74.5s-11.5 -61.167 -11.5 -96.5c0 -80.667 17.167 -141.667 51.5 -183s83.833 -62 148.5 -62
c40 0 76.5 6 109.5 18s60.167 26.667 81.5 44l30 -99c-26.667 -16 -58.834 -30.167 -96.501 -42.5s-80.167 -18.5 -127.5 -18.5c-54.667 0 -102 9 -142 27s-73.167 42.333 -99.5 73s-45.833 66.167 -58.5 106.5s-19 83.166 -19 128.499c0 47.333 7 91.666 21 132.999
s34.833 77.5 62.5 108.5s62 55.5 103 73.5s88.833 27 143.5 27c36 0 72 -3.83301 108 -11.5s67 -18.167 93 -31.5z" />
    <glyph glyph-name="D" unicode="D" horiz-adv-x="707" 
d="M88 660c8.66699 0.666992 22.3311 1.33105 40.998 1.99805s38.334 1.16699 59.001 1.5l59.5 1c19 0.333008 33.833 0.5 44.5 0.5c64.667 0 117.834 -6.66699 159.501 -20s76.167 -31.666 103.5 -54.999c35.333 -30.667 61 -69.667 77 -117s24 -99.666 24 -156.999
c0 -43.333 -5.5 -84.833 -16.5 -124.5s-30.667 -74.5 -59 -104.5s-67.333 -53.833 -117 -71.5s-113.167 -26.5 -190.5 -26.5c-28 0 -58 1 -90 3s-63.667 4.66699 -95 8v660zM300.997 83.9971c80.667 0 139.501 19.333 176.501 58s55.5 101.667 55.5 189
c0 39.333 -3.83301 73.833 -11.5 103.5s-20.834 54.5 -39.501 74.5s-43.667 35 -75 45s-70.333 15 -117 15h-37.5c-15.667 0 -32.167 -0.333008 -49.5 -1v-480c18.667 -1.33301 36.667 -2.33301 54 -3s32 -1 44 -1z" />
    <glyph glyph-name="E" unicode="E" horiz-adv-x="529" 
d="M403 300h-200v-200h287v-100h-402v660h382v-100h-267v-160h200v-100z" />
    <glyph glyph-name="F" unicode="F" horiz-adv-x="487" 
d="M392 300h-189v-300h-115v660h377v-100h-262v-160h189v-100z" />
    <glyph glyph-name="G" unicode="G" horiz-adv-x="657" 
d="M600 55c-30 -20 -64.335 -36.165 -103.002 -48.498s-81 -18.5 -127 -18.5c-55.333 0 -103 9 -143 27s-73.167 42.333 -99.5 73s-45.833 66.167 -58.5 106.5s-19 83.166 -19 128.499c0 47.333 7 91.666 21 132.999s34.833 77.5 62.5 108.5s62.167 55.5 103.5 73.5
s89.666 27 144.999 27c37.333 0 74.333 -3.83301 111 -11.5s69.334 -18.167 98.001 -31.5l-32 -104c-22.667 13.333 -49 24.833 -79 34.5s-64 14.5 -102 14.5s-70.167 -5.5 -96.5 -16.5s-47.5 -26.833 -63.5 -47.5s-27.667 -45.5 -35 -74.5s-11 -61.833 -11 -98.5
c0 -162.667 69 -244 207 -244c24.667 0 44.334 2 59.001 6s30.334 8.66699 47.001 14v166h115v-217z" />
    <glyph glyph-name="H" unicode="H" horiz-adv-x="722" 
d="M634 0h-115v290h-316v-290h-115v660h115v-270h316v270h115v-660z" />
    <glyph glyph-name="I" unicode="I" horiz-adv-x="291" 
d="M203 0h-115v660h115v-660z" />
    <glyph glyph-name="J" unicode="J" horiz-adv-x="290" 
d="M203 101c0 -35.333 -3.83594 -68.498 -11.5029 -99.498s-19.5 -58.167 -35.5 -81.5s-36.167 -41.833 -60.5 -55.5s-53.166 -20.5 -86.499 -20.5l-22 87c23.333 0 41.833 5.33301 55.5 16s23.834 24.167 30.501 40.5s10.834 34.666 12.501 54.999s2.5 40.166 2.5 59.499
v558h115v-559z" />
    <glyph glyph-name="K" unicode="K" horiz-adv-x="609" 
d="M203 0l-115.001 0.000976562v660h115v-288c38 36 72 71 102 105c28 32 53.333 63.167 76 93.5s42.334 60.166 59.001 89.499h126l-84 -110c-26.667 -33.333 -56 -68 -88 -104l-37 -41l-39 -42l295 -363h-133l-235 289l-42 -39v-250z" />
    <glyph glyph-name="L" unicode="L" horiz-adv-x="497" 
d="M203 100h275v-100h-390v660h115v-560z" />
    <glyph glyph-name="M" unicode="M" horiz-adv-x="882" 
d="M444 156l219 504h131v-660h-114v435l-190 -435h-92l-195 435v-435h-115v660h131z" />
    <glyph glyph-name="N" unicode="N" horiz-adv-x="722" 
d="M519 175v485h115v-660h-141l-290 484v-484h-115v660h141z" />
    <glyph glyph-name="O" unicode="O" horiz-adv-x="742" 
d="M371 665c52 0 98.001 -8.99902 138.001 -26.999s73.667 -42.5 101 -73.5s48 -66.833 62 -107.5s21 -83.334 21 -128.001c0 -44 -6.83301 -86.5 -20.5 -127.5s-34.334 -77.333 -62.001 -109s-62 -57 -103 -76s-88.833 -28.5 -143.5 -28.5c-53.333 0 -99.666 9 -138.999 27
s-72 42.333 -98 73s-45.5 66.167 -58.5 106.5s-19.5 82.833 -19.5 127.5c0 47.333 7.16699 91.833 21.5 133.5s35.166 78 62.499 109s61 55.5 101 73.5s85.667 27 137 27zM366.001 86.001c36.667 0 67.833 6.1709 93.5 18.5039s46.834 29.333 63.501 51
s28.834 47.167 36.501 76.5s11.5 60.666 11.5 93.999c0 36 -4 68.667 -12 98s-20.333 54.666 -37 75.999s-37.834 37.833 -63.501 49.5s-55.834 17.5 -90.501 17.5c-35.333 0 -65.5 -5.83301 -90.5 -17.5s-45.333 -27.834 -61 -48.501s-27 -45.334 -34 -74.001
s-10.5 -60.334 -10.5 -95.001c0 -81.333 16.667 -142.666 50 -183.999s81.333 -62 144 -62z" />
    <glyph glyph-name="P" unicode="P" horiz-adv-x="531" 
d="M268 248h-33.5c-11 0 -21.5 0.333008 -31.5 1v-249h-115v660c10 0.666992 21.5 1.33398 34.5 2.00098s26.667 1.16699 41 1.5l43 1c14.333 0.333008 27.833 0.5 40.5 0.5c37.333 0 71.333 -4.5 102 -13.5s57 -22.5 79 -40.5s39 -40.167 51 -66.5s18 -56.833 18 -91.5
c0 -28 -4.66699 -54.333 -14 -79s-23.333 -46.334 -42 -65.001s-42.5 -33.5 -71.5 -44.5s-62.833 -16.5 -101.5 -16.5zM263 569h-31c-10 0 -19.667 -0.333008 -29 -1v-223c9.33301 -0.666992 19.166 -1 29.499 -1h32.5c36 0 63.167 10 81.5 30s27.5 49 27.5 87
c0 32 -8.16699 58 -24.5 78s-45.166 30 -86.499 30z" />
    <glyph glyph-name="Q" unicode="Q" horiz-adv-x="745" 
d="M373 665c52 0 98.002 -8.99805 138.002 -26.998s73.667 -42.5 101 -73.5s48 -66.833 62 -107.5s21 -83.334 21 -128.001c0 -42.667 -6.5 -84 -19.5 -124s-32.5 -75.667 -58.5 -107s-58.333 -56.833 -97 -76.5s-83.667 -30.5 -135 -32.5c24 -2.66699 47 -8 69 -16
l65.5 -24.5c21.667 -8.33301 43.667 -15.833 66 -22.5s46.166 -10 71.499 -10c14.667 0 30 1.5 46 4.5s33 8.16699 51 15.5l-26 -98c-12 -4.66699 -23.833 -7.83398 -35.5 -9.50098s-23.167 -2.5 -34.5 -2.5c-28 0 -54.833 4.5 -80.5 13.5s-51 18.667 -76 29
s-49.667 20 -74 29s-48.833 13.5 -73.5 13.5c-14.667 0 -33 -2.66699 -55 -8s-43.333 -15.666 -64 -30.999l-20 72c18 14 37.5 24.667 58.5 32s41.167 11.666 60.5 12.999c-47.333 3.33301 -88.833 14.666 -124.5 33.999s-65.167 44 -88.5 74s-40.833 64.333 -52.5 103
s-17.5 79.334 -17.5 122.001c0 47.333 7.16699 91.833 21.5 133.5s35.166 78 62.499 109s61 55.5 101 73.5s85.667 27 137 27zM370.002 86.002c36 0 66.835 6.33105 92.502 18.998s46.667 29.834 63 51.501s28.333 47.334 36 77.001s11.5 61.5 11.5 95.5
c0 34.667 -4 66.667 -12 96s-20.333 54.5 -37 75.5s-37.834 37.333 -63.501 49s-56.167 17.5 -91.5 17.5s-65.333 -5.83301 -90 -17.5s-44.834 -28 -60.501 -49s-27 -46 -34 -75s-10.5 -61.167 -10.5 -96.5c0 -80 16.667 -140.5 50 -181.5s82 -61.5 146 -61.5z" />
    <glyph glyph-name="R" unicode="R" horiz-adv-x="606" 
d="M250 282l-22.5 -0.00195312c-7.66699 0 -15.834 0.333008 -24.501 1v-283h-115v660c10.667 0.666992 22.834 1.33398 36.501 2.00098s27.5 1.16699 41.5 1.5s27.167 0.666016 39.5 0.999023s22.166 0.5 29.499 0.5c85.333 0 150.333 -16.167 195 -48.5
s67 -79.5 67 -141.5c0 -39.333 -9.66699 -74.666 -29 -105.999s-51.666 -54.666 -96.999 -69.999l242 -299h-133zM245 568.998h-19c-7.33301 0 -15 -0.333008 -23 -1v-190h62c36 0 63.333 9 82 27s28 43.667 28 77c0 30 -9.16699 52 -27.5 66s-52.5 21 -102.5 21z" />
    <glyph glyph-name="S" unicode="S" horiz-adv-x="542" 
d="M172 501c0 -14 3.16992 -26.0029 9.50293 -36.0029s15.166 -18.667 26.499 -26s24.833 -14.166 40.5 -20.499s33.167 -12.833 52.5 -19.5c24 -8.66699 47.833 -18.5 71.5 -29.5s45 -24.667 64 -41s34.5 -36.5 46.5 -60.5s18 -53 18 -87c0 -36 -6.5 -66.333 -19.5 -91
s-30.5 -44.5 -52.5 -59.5s-47.333 -25.833 -76 -32.5s-58.334 -10 -89.001 -10c-44 0 -85.167 5.33301 -123.5 16s-71.166 23.667 -98.499 39l30 108c25.333 -19.333 53.5 -35.333 84.5 -48s66.5 -19 106.5 -19c42.667 0 73.667 7.5 93 22.5s29 35.167 29 60.5
c0 19.333 -4.66699 35.833 -14 49.5s-21 25.334 -35 35.001s-28.833 17.5 -44.5 23.5s-29.5 11 -41.5 15c-21.333 6.66699 -43 14.667 -65 24s-42.333 21.5 -61 36.5s-33.834 33.833 -45.501 56.5s-17.5 51 -17.5 85c0 32 5.5 59 16.5 81s26 39.833 45 53.5
s41.333 23.5 67 29.5s53.5 9 83.5 9c36.667 0 72.167 -3.66699 106.5 -11s63.166 -16.333 86.499 -27l-27 -106c-12 8 -25 15 -39 21s-28.5 11 -43.5 15s-30 7.16699 -45 9.5s-29.167 3.5 -42.5 3.5c-30 0 -53.667 -5.66699 -71 -17s-26 -28.666 -26 -51.999z" />
    <glyph glyph-name="T" unicode="T" 
d="M518 560h-191v-560h-115v560h-191v100h497v-100z" />
    <glyph glyph-name="U" unicode="U" horiz-adv-x="705" 
d="M196 256c0 -60.667 14.001 -104.167 42.001 -130.5s67 -39.5 117 -39.5s89.167 13.167 117.5 39.5s42.5 69.833 42.5 130.5v404h110v-428c0 -32.667 -5.33301 -63.667 -16 -93s-27.167 -55.166 -49.5 -77.499s-51 -40 -86 -53s-76.5 -19.5 -124.5 -19.5
s-89 6.5 -123 19.5s-61.833 30.667 -83.5 53s-37.334 48.166 -47.001 77.499s-14.5 60.333 -14.5 93v428h115v-404z" />
    <glyph glyph-name="V" unicode="V" horiz-adv-x="634" 
d="M-12 660h125l210 -520l190 520h120l-264 -660h-91z" />
    <glyph glyph-name="W" unicode="W" horiz-adv-x="1042" 
d="M796 0h-95l-180 502l-179 -502h-95l-246 660h125l169 -512l170 512h113l169 -512l169 512h125z" />
    <glyph glyph-name="X" unicode="X" horiz-adv-x="638" 
d="M316 267l-179 -267h-126l244 340l-229 320h129l167 -258l165 258h126l-230 -321l243 -339h-129z" />
    <glyph glyph-name="Y" unicode="Y" horiz-adv-x="564" 
d="M-12 660h129l169 -299l162 299h127l-235 -389v-271h-115v267z" />
    <glyph glyph-name="Z" unicode="Z" horiz-adv-x="554" 
d="M511 0h-468v100l328 460h-313v100h438v-100l-328 -460h343v-100z" />
    <glyph glyph-name="bracketleft" unicode="[" horiz-adv-x="281" 
d="M237 -95h-160v844h160v-72h-55v-700h55v-72z" />
    <glyph glyph-name="backslash" unicode="\" horiz-adv-x="450" 
d="M29 702h113l278 -759h-113z" />
    <glyph glyph-name="bracketright" unicode="]" horiz-adv-x="281" 
d="M44 749h160v-844h-160v72h55v700h-55v72z" />
    <glyph glyph-name="asciicircum" unicode="^" horiz-adv-x="348" 
d="M178 673l110 -99l3 -7l-16 -29l-7 -3l-94 41l-94 -41l-7 3l-16 29l3 7l110 99h8z" />
    <glyph glyph-name="underscore" unicode="_" horiz-adv-x="471" 
d="M452 0v-82h-433v82h433z" />
    <glyph glyph-name="grave" unicode="`" horiz-adv-x="219" 
d="M200 533l-186.999 69.002c-4.66699 1.33301 -8 4.66602 -10 9.99902s-3 11.666 -3 18.999c0 11.333 2.66699 22.833 8 34.5s12.666 17.5 21.999 17.5c2.66699 0 6 -1 10 -3l180 -101l3 -7l-15 -36z" />
    <glyph glyph-name="a" unicode="a" horiz-adv-x="501" 
d="M349 0l-8.00098 63.001h-4c-18 -22.667 -42.5 -40.834 -73.5 -54.501s-62.5 -20.5 -94.5 -20.5c-42 0 -75 12.167 -99 36.5s-36 56.5 -36 96.5c0 27.333 5.83301 51.833 17.5 73.5s28.5 40 50.5 55s48.333 26.5 79 34.5s65 12 103 12h43v15c0 26 -8.33301 45 -25 57
c-17.333 12 -44.333 18 -81 18c-49.333 0 -93.333 -11 -132 -33l-21 83c44.667 26 98.667 39 162 39c66.667 0 117.334 -13.667 152.001 -41c16 -12.667 29.167 -29 39.5 -49s15.5 -44 15.5 -72v-313h-88zM211.999 77.001c21.333 0 42.667 5.16797 64 15.501
s38.333 24.166 51 41.499v91h-19c-54.667 0 -94.5 -7 -119.5 -21s-37.5 -36.333 -37.5 -67c0 -40 20.333 -60 61 -60z" />
    <glyph glyph-name="b" unicode="b" horiz-adv-x="574" 
d="M322 -12c-36 0 -65.8301 7.33203 -89.4971 21.999s-44.834 32.334 -63.501 53.001h-4l-8 -63h-88v740h109v-326c15.333 19.333 35.666 34.333 60.999 45s54 16 86 16c34.667 0 65 -6.66699 91 -20s47.667 -31 65 -53s30.166 -47.5 38.499 -76.5s12.5 -59.167 12.5 -90.5
c0 -35.333 -5 -68 -15 -98s-24.167 -56 -42.5 -78s-40.5 -39.333 -66.5 -52s-54.667 -19 -86 -19zM308.003 70.999c19.333 0 36.166 4.66699 50.499 14s26.333 21.5 36 36.5s16.834 32.333 21.501 52s7 39.5 7 59.5c0 20.667 -2.5 40.5 -7.5 59.5s-12.667 35.833 -23 50.5
s-23.333 26.167 -39 34.5s-33.834 12.5 -54.501 12.5c-19.333 0 -39.333 -4.5 -60 -13.5s-41 -25.833 -61 -50.5v-192c7.33301 -10 16.333 -18.833 27 -26.5s21.834 -14.167 33.501 -19.5s23.5 -9.5 35.5 -12.5s23.333 -4.5 34 -4.5z" />
    <glyph glyph-name="c" unicode="c" horiz-adv-x="489" 
d="M424 346c-7.33301 5.33301 -16.4971 10.6709 -27.4971 16.0039s-22.833 10 -35.5 14s-25.834 7.16699 -39.501 9.5s-26.5 3.5 -38.5 3.5c-22.667 0 -41.834 -4.16699 -57.501 -12.5s-28.334 -19.333 -38.001 -33s-16.667 -29.5 -21 -47.5s-6.5 -36.667 -6.5 -56
c0 -22.667 2.66699 -43.834 8 -63.501s13.333 -36.834 24 -51.501s24.167 -26.334 40.5 -35.001s35.166 -13 56.499 -13c24 0 49.5 4.83301 76.5 14.5s49.5 23.167 67.5 40.5l20 -94c-18.667 -12 -44.167 -23.333 -76.5 -34s-66.833 -16 -103.5 -16
c-38.667 0 -72.5 6.66699 -101.5 20s-53 31.166 -72 53.499s-33.333 48.333 -43 78s-14.5 61.167 -14.5 94.5c0 32 4.5 62.5 13.5 91.5s23.167 54.667 42.5 77s44 40 74 53s66 19.5 108 19.5c32 0 63.333 -3.66699 94 -11s55.334 -17 74.001 -29z" />
    <glyph glyph-name="d" unicode="d" horiz-adv-x="574" 
d="M252 -12c-31.333 0 -59.9971 6.33398 -85.9971 19.001s-48.167 30 -66.5 52s-32.5 48 -42.5 78s-15 62.667 -15 98c0 31.333 4.16699 61.5 12.5 90.5s21.166 54.5 38.499 76.5s38.833 39.667 64.5 53s56.167 20 91.5 20c32 0 60.667 -5.33301 86 -16
s45.666 -25.667 60.999 -45v326h109v-740h-88l-8 63h-4c-18.667 -20.667 -39.834 -38.334 -63.501 -53.001s-53.5 -22 -89.5 -22zM266.003 71.001c10.667 0 21.9971 1.5 33.9971 4.5s23.833 7.16699 35.5 12.5s22.834 11.833 33.501 19.5s19.667 16.5 27 26.5v192
c-20 24.667 -40.333 41.5 -61 50.5s-40.667 13.5 -60 13.5c-21.333 0 -39.666 -4.16699 -54.999 -12.5s-28.166 -19.833 -38.499 -34.5s-18 -31.5 -23 -50.5s-7.5 -38.833 -7.5 -59.5c0 -20 2.33301 -39.833 7 -59.5s11.667 -37 21 -52s21.333 -27.167 36 -36.5
s31.667 -14 51 -14z" />
    <glyph glyph-name="e" unicode="e" horiz-adv-x="505" 
d="M278 475c58.667 0 104.001 -14.8369 136.001 -44.5039s48 -71.5 48 -125.5c0 -7.33301 -0.5 -15.166 -1.5 -23.499s-2.33301 -16.5 -4 -24.5s-3.66699 -15.167 -6 -21.5s-4.83301 -11.5 -7.5 -15.5h-291c1.33301 -20 5 -38.833 11 -56.5s14.667 -33 26 -46
s25.166 -23.333 41.499 -31s35.5 -11.5 57.5 -11.5c24.667 0 50.834 4.66699 78.501 14s51.167 21 70.5 35l18 -82c-8.66699 -5.33301 -19.334 -11.166 -32.001 -17.499s-27 -12.166 -43 -17.499s-33.167 -9.83301 -51.5 -13.5s-37.5 -5.5 -57.5 -5.5
c-37.333 0 -70.333 6.5 -99 19.5s-52.667 30.667 -72 53s-34 48.166 -44 77.499s-15 60 -15 92c0 32.667 5.16699 63.834 15.5 93.501s25.5 55.834 45.5 78.501s44.833 40.5 74.5 53.5s63.5 19.5 101.5 19.5zM275.001 388.996c-28 0 -51.832 -8.16699 -71.499 -24.5
s-33.834 -38.5 -42.501 -66.5h191c0.666992 2 1.16699 4.33301 1.5 7s0.5 6 0.5 10c0 21.333 -7.33301 39 -22 53s-33.667 21 -57 21z" />
    <glyph glyph-name="f" unicode="f" horiz-adv-x="310" 
d="M91 393l-56.999 0.000976562v57l57 9c0 38 1.16699 70.333 3.5 97s5.5 49.167 9.5 67.5s8.5 33.166 13.5 44.499s10.167 20.666 15.5 27.999c13.333 17.333 30.833 29.833 52.5 37.5s45.5 11.5 71.5 11.5c3.33301 0 8.66602 -0.166992 15.999 -0.5
s15.5 -1.16602 24.5 -2.49902s18.333 -3.5 28 -6.5s18.5 -6.83301 26.5 -11.5l-25 -85c-6.66699 4 -17.667 9.5 -33 16.5s-30.333 10.5 -45 10.5c-8.66699 0 -16 -2 -22 -6s-11 -11.333 -15 -22s-6.83301 -25 -8.5 -43s-2.5 -41 -2.5 -69v-66h88v-67h-88v-393h-110v393z" />
    <glyph glyph-name="g" unicode="g" horiz-adv-x="498" 
d="M130 145c-30 12.667 -51.6641 32.334 -64.9971 59.001s-20 55.667 -20 87c0 26 4.33301 50.333 13 73s21.167 42.167 37.5 58.5s36 29.166 59 38.499s49.167 14 78.5 14c17.333 0 34.5 -1.66699 51.5 -5s31.833 -8.33301 44.5 -15c28 0.666992 53.5 2.83398 76.5 6.50098
s45.167 8.5 66.5 14.5l9 -7l-11 -76l-5 -5l-71 8l-1 -3c22.667 -28.667 34 -62.334 34 -101.001c0 -23.333 -4.16699 -45.166 -12.5 -65.499s-20.5 -38 -36.5 -53s-35.833 -27 -59.5 -36s-50.5 -13.5 -80.5 -13.5c-7.33301 0 -13.166 0.166992 -17.499 0.5
s-8.5 0.5 -12.5 0.5c-11.333 -4 -20 -9.16699 -26 -15.5s-9 -12.833 -9 -19.5c0 -7.33301 3.66699 -13.666 11 -18.999s18.666 -9 33.999 -11l97 -12c22 -2.66699 42.5 -7.33398 61.5 -14.001s35.667 -15.667 50 -27s25.5 -25 33.5 -41s12 -34.333 12 -55
s-4.33301 -40.667 -13 -60s-22.334 -36.333 -41.001 -51s-42.167 -26.334 -70.5 -35.001s-62.5 -13 -102.5 -13c-35.333 0 -66.5 3.5 -93.5 10.5s-49.833 16.5 -68.5 28.5s-32.834 26.167 -42.501 42.5s-14.5 33.833 -14.5 52.5c0 13.333 2.33301 26.5 7 39.5
s11.167 25 19.5 36s18 20.833 29 29.5s22.833 15 35.5 19v4c-15.333 6.66699 -26 15.667 -32 27s-9 22.333 -9 33c0 14 4.66699 27 14 39s22.666 21.333 39.999 28v4zM237.003 201c27.333 0 47.999 8.83301 61.999 26.5s21 39.167 21 64.5c0 12 -1.66699 24.167 -5 36.5
s-8.66602 23.5 -15.999 33.5s-16.5 18.167 -27.5 24.5s-23.833 9.5 -38.5 9.5c-14 0 -26.333 -2.83301 -37 -8.5s-19.5 -13.167 -26.5 -22.5s-12.167 -19.833 -15.5 -31.5s-5 -23.5 -5 -35.5s1.83301 -23.833 5.5 -35.5s9.16699 -22 16.5 -31s16.5 -16.333 27.5 -22
s23.833 -8.5 38.5 -8.5zM206.002 -22c-22.667 -4 -41.999 -13.5 -57.999 -28.5s-24 -32.167 -24 -51.5c0 -21.333 10.5 -37.333 31.5 -48s51.5 -16 91.5 -16c39.333 0 70.666 5.5 93.999 16.5s35 28.833 35 53.5c0 24 -13 41 -39 51s-69.667 17.667 -131 23z" />
    <glyph glyph-name="h" unicode="h" horiz-adv-x="552" 
d="M179 392c18.667 29.333 40.502 50.502 65.502 63.502s54.5 19.5 88.5 19.5c20 0 39.333 -2.83301 58 -8.5s35.167 -14.834 49.5 -27.501s25.666 -29.334 33.999 -50.001s12.5 -46 12.5 -76v-313h-110v304c0 27.333 -6 47.833 -18 61.5s-28.333 20.5 -49 20.5
c-12.667 0 -25.834 -2 -39.501 -6s-26.5 -10 -38.5 -18s-22.667 -17.667 -32 -29s-16.333 -24 -21 -38v-295h-110v740h110v-348z" />
    <glyph glyph-name="i" unicode="i" horiz-adv-x="248" 
d="M179 0h-110v460h110v-460zM53 608c0 9.33301 1.83203 18.334 5.49902 27.001s8.83398 16.5 15.501 23.5s14.167 12.5 22.5 16.5s17.5 6 27.5 6c9.33301 0 18.333 -2 27 -6s16.5 -9.5 23.5 -16.5s12.5 -14.833 16.5 -23.5s6 -17.667 6 -27c0 -10 -2 -19.167 -6 -27.5
s-9.5 -15.833 -16.5 -22.5s-14.833 -11.834 -23.5 -15.501s-17.667 -5.5 -27 -5.5c-19.333 0 -36 7 -50 21s-21 30.667 -21 50z" />
    <glyph glyph-name="j" unicode="j" horiz-adv-x="248" 
d="M179 -3c0 -34 -3.83105 -66.3311 -11.498 -96.998s-18.834 -57.834 -33.501 -81.501s-32.834 -42.334 -54.501 -56.001s-46.834 -20.5 -75.501 -20.5c-5.33301 0 -10.166 0.166992 -14.499 0.5s-7.5 1.16602 -9.5 2.49902l-18 67c2 -1.33301 5 -2.16602 9 -2.49902
s8 -0.5 12 -0.5c20 0 35.667 6.16699 47 18.5s20 28 26 47s9.66699 39.5 11 61.5s2 42.667 2 62v462h110v-463zM53.002 608.002c0 9.33301 1.83203 18.333 5.49902 27s8.83398 16.5 15.501 23.5s14.167 12.5 22.5 16.5s17.5 6 27.5 6c19.333 0 36.333 -7.5 51 -22.5
s22 -32.167 22 -51.5s-7.5 -35.833 -22.5 -49.5s-32.167 -20.5 -51.5 -20.5s-35.833 7 -49.5 21s-20.5 30.667 -20.5 50z" />
    <glyph glyph-name="k" unicode="k" horiz-adv-x="493" 
d="M291 298l196 -298h-120l-149 226l-39 -39v-187h-110v740h110v-427l153 147h123z" />
    <glyph glyph-name="l" unicode="l" horiz-adv-x="260" 
d="M185 0h-110v740h110v-740z" />
    <glyph glyph-name="m" unicode="m" horiz-adv-x="835" 
d="M367 0l0.000976562 304.002c0 54.667 -21.667 82 -65 82c-10.667 0 -22.167 -2 -34.5 -6s-24.333 -9.83301 -36 -17.5s-22.334 -17.167 -32.001 -28.5s-16.5 -24.333 -20.5 -39v-295h-110v460h86l5 -68h4c13.333 28 34.5 48.833 63.5 62.5s59.833 20.5 92.5 20.5
c31.333 0 59.833 -6.16699 85.5 -18.5s44.834 -33.5 57.501 -63.5c13.333 27.333 34.333 47.833 63 61.5s59.334 20.5 92.001 20.5c21.333 0 41.5 -2.83301 60.5 -8.5s35.667 -14.834 50 -27.501s25.666 -29.334 33.999 -50.001s12.5 -46 12.5 -76v-313h-110v304
c0 54.667 -21.667 82 -65 82c-10.667 0 -22.167 -2 -34.5 -6s-24.333 -9.83301 -36 -17.5s-22.334 -17.167 -32.001 -28.5s-16.5 -24.333 -20.5 -39v-295h-110z" />
    <glyph glyph-name="n" unicode="n" horiz-adv-x="547" 
d="M377 0l0.000976562 304.002c0 54.667 -23.333 82 -70 82c-11.333 0 -23.5 -2 -36.5 -6s-25.5 -9.83301 -37.5 -17.5s-22.833 -17.167 -32.5 -28.5s-16.834 -24.333 -21.501 -39v-295h-110v460h86l5 -68h4c14 28 35.833 48.833 65.5 62.5s61.5 20.5 95.5 20.5
c22 0 42.667 -2.83301 62 -8.5s36.5 -14.834 51.5 -27.501s26.833 -29.334 35.5 -50.001s13 -46 13 -76v-313h-110z" />
    <glyph glyph-name="o" unicode="o" horiz-adv-x="549" 
d="M274 475c40.667 0 75.666 -6.82812 104.999 -20.4951s53.5 -32 72.5 -55s33 -49.333 42 -79s13.5 -60.834 13.5 -93.501s-4.5 -63.5 -13.5 -92.5s-23 -54.333 -42 -76s-43 -38.834 -72 -51.501s-63.167 -19 -102.5 -19c-40.667 0 -75.667 6.66699 -105 20
s-53.666 31.166 -72.999 53.499s-33.666 48.166 -42.999 77.499s-14 60.333 -14 93s4.66699 63.667 14 93s23.5 55.166 42.5 77.499s43.167 40 72.5 53s63.666 19.5 102.999 19.5zM275.999 71.0049c19.333 0 36.1709 4.16797 50.5039 12.501s26.166 19.666 35.499 33.999
s16.166 30.833 20.499 49.5s6.5 38.334 6.5 59.001c0 21.333 -2.33301 41.833 -7 61.5s-11.834 37 -21.501 52s-21.834 27 -36.501 36s-32.334 13.5 -53.001 13.5c-19.333 0 -36 -4.16699 -50 -12.5s-25.5 -19.5 -34.5 -33.5s-15.667 -30.333 -20 -49
s-6.5 -38.334 -6.5 -59.001c0 -21.333 2.16699 -41.833 6.5 -61.5s11.333 -37.167 21 -52.5s21.834 -27.5 36.501 -36.5s32 -13.5 52 -13.5z" />
    <glyph glyph-name="p" unicode="p" horiz-adv-x="575" 
d="M325 475c36 0 66.999 -6.83203 92.999 -20.499s47.5 -31.834 64.5 -54.501s29.5 -48.834 37.5 -78.501s12 -60.5 12 -92.5c0 -32.667 -4.16699 -63.667 -12.5 -93s-21.166 -55 -38.499 -77s-39 -39.333 -65 -52s-57 -19 -93 -19c-30 0 -57.833 4.33301 -83.5 13
s-46.167 22.667 -61.5 42v-303h-109v720h88l8 -63h4c8.66699 10.667 19 20.834 31 30.501s25 18 39 25s28.333 12.5 43 16.5s29 6 43 6zM306.999 391.001c-10 0 -20.998 -1.49902 -32.998 -4.49902s-23.833 -7.33301 -35.5 -13s-22.834 -12.5 -33.501 -20.5
s-19.667 -17 -27 -27v-195c20 -24.667 40.5 -40.167 61.5 -46.5s40.167 -9.5 57.5 -9.5c22 0 40.833 4 56.5 12s28.667 18.833 39 32.5s18 29.667 23 48s7.5 38.166 7.5 59.499c0 20 -2.16699 39.833 -6.5 59.5s-11.333 37.167 -21 52.5s-21.834 27.833 -36.501 37.5
s-32 14.5 -52 14.5z" />
    <glyph glyph-name="q" unicode="q" horiz-adv-x="575" 
d="M250 475c14 0 28.332 -2.00098 42.999 -6.00098s29 -9.5 43 -16.5s27 -15.333 39 -25s22.333 -19.834 31 -30.501h4l8 63h88v-720h-109v303c-15.333 -19.333 -35.833 -33.333 -61.5 -42s-53.5 -13 -83.5 -13c-36 0 -67 6.33301 -93 19s-47.667 30 -65 52
s-30.166 47.667 -38.499 77s-12.5 60.333 -12.5 93c0 32 4 62.833 12 92.5s20.5 55.834 37.5 78.501s38.5 40.834 64.5 54.501s57 20.5 93 20.5zM267.999 390.999c-20 0 -37.3311 -4.83301 -51.998 -14.5s-26.834 -22.167 -36.501 -37.5s-16.667 -32.833 -21 -52.5
s-6.5 -39.5 -6.5 -59.5c0 -21.333 2.5 -41.333 7.5 -60s12.667 -35 23 -49s23.333 -25 39 -33s34.5 -12 56.5 -12c17.333 0 36.5 4 57.5 12s41.5 23.333 61.5 46v195c-7.33301 10 -16.333 19 -27 27s-21.834 14.833 -33.501 20.5s-23.5 10 -35.5 13s-23 4.5 -33 4.5z" />
    <glyph glyph-name="r" unicode="r" horiz-adv-x="374" 
d="M332 360c-6.66699 5.33301 -16.9961 9.66699 -30.9961 13s-26 5 -36 5c-13.333 0 -24.333 -3.16699 -33 -9.5s-16.334 -14.666 -23.001 -24.999s-12.334 -22.166 -17.001 -35.499s-9 -27 -13 -41v-267h-110v460h86l5 -96h4c6.66699 14 13.667 27.667 21 41
s15.666 25.166 24.999 35.499s20.166 18.666 32.499 24.999s26.833 9.5 43.5 9.5c26.667 0 51.667 -8.66699 75 -26z" />
    <glyph glyph-name="s" unicode="s" horiz-adv-x="433" 
d="M209 393c-22 0 -39.167 -4.1709 -51.5 -12.5039s-18.5 -20.166 -18.5 -35.499c0 -10 3.5 -19.167 10.5 -27.5s21.833 -15.166 44.5 -20.499l71 -16c28 -6 50.5 -14.667 67.5 -26s30.333 -23.666 40 -36.999s16.167 -27 19.5 -41s5 -27 5 -39
c0 -21.333 -4.33301 -41.166 -13 -59.499s-21 -34.166 -37 -47.499s-35.333 -23.833 -58 -31.5s-48 -11.5 -76 -11.5c-35.333 0 -68 5.16699 -98 15.5s-54 21.833 -72 34.5l26 95c22.667 -22 48.167 -38.333 76.5 -49s54.5 -16 78.5 -16c25.333 0 44.666 5.5 57.999 16.5
s20 26.167 20 45.5c0 11.333 -3.33301 20.833 -10 28.5s-20 14.167 -40 19.5l-96 24c-22.667 5.33301 -41.167 13 -55.5 23s-25.666 21.167 -33.999 33.5s-14 25.166 -17 38.499s-4.5 26 -4.5 38c0 44.667 15.667 79.167 47 103.5s72 36.5 122 36.5c26 0 54 -3.5 84 -10.5
s55.333 -17.167 76 -30.5l-29 -90c-13.333 10.667 -32 21.5 -56 32.5s-50.667 16.5 -80 16.5z" />
    <glyph glyph-name="t" unicode="t" horiz-adv-x="332" 
d="M90 393l-57.002 0.00195312v60l65 10l18 136h84v-139h88v-67h-88v-264c0 -20 2 -33.5 6 -40.5s11.667 -10.5 23 -10.5c8.66699 0 17.334 1.66699 26.001 5s21.334 9.66602 38.001 18.999l18 -79c-12.667 -10.667 -30.5 -19.167 -53.5 -25.5s-45.833 -9.5 -68.5 -9.5
c-20 0 -36.5 2.66699 -49.5 8s-23.167 13.166 -30.5 23.499s-12.333 22.833 -15 37.5s-4 31 -4 49v287z" />
    <glyph glyph-name="u" unicode="u" 
d="M175 460l0.000976562 -298.998c0 -27.333 7.16699 -48.166 21.5 -62.499s32.833 -21.5 55.5 -21.5c23.333 0 44.666 7.83301 63.999 23.5s33.666 38.167 42.999 67.5v292h111v-460h-86l-6 64h-4c-7.33301 -15.333 -16.666 -27.833 -27.999 -37.5
s-23.833 -17.334 -37.5 -23.001s-27.834 -9.66699 -42.501 -12s-29 -3.5 -43 -3.5c-22 0 -42.5 2.66699 -61.5 8s-35.667 14.166 -50 26.499s-25.666 28.666 -33.999 48.999s-12.5 45.5 -12.5 75.5v313h110z" />
    <glyph glyph-name="v" unicode="v" horiz-adv-x="524" 
d="M327 0h-133l-184 460h115l139 -369l145 369h108z" />
    <glyph glyph-name="w" unicode="w" horiz-adv-x="822" 
d="M412 320l-99 -320h-133l-167 460h115l120 -353l109 353h110l109 -353l120 353h113l-167 -460h-131z" />
    <glyph glyph-name="x" unicode="x" horiz-adv-x="508" 
d="M149 460l108 -155l103 155h125l-168 -223l178 -237h-125l-117 168l-114 -168h-125l177 235l-167 225h125z" />
    <glyph glyph-name="y" unicode="y" horiz-adv-x="519" 
d="M268 133l127.996 327.004h106l-190 -464c-9.33301 -23.333 -22.166 -49.5 -38.499 -78.5s-35.666 -56.333 -57.999 -82s-47.5 -47.334 -75.5 -65.001s-58.333 -26.5 -91 -26.5c-5.33301 0 -9.33301 0.166992 -12 0.5s-5.66699 1.16602 -9 2.49902l-19 86
c2 -0.666992 4.33301 -1.33398 7 -2.00098s8.33398 -1 17.001 -1c12.667 0 25.167 1.33301 37.5 4s24.833 8 37.5 16c24 15.333 44.833 36.666 62.5 63.999s34.834 61 51.501 101l-229 445h115z" />
    <glyph glyph-name="z" unicode="z" horiz-adv-x="418" 
d="M252 371h-200v89h314v-89l-216 -282h226v-89h-334v89z" />
    <glyph glyph-name="braceleft" unicode="{" horiz-adv-x="292" 
d="M246 709c-16 -2 -25.832 -9.99707 -29.499 -23.9971s-5.5 -28.667 -5.5 -44c0 -8 0.166992 -18.667 0.5 -32s0.5 -27 0.5 -41s0.166992 -27.5 0.5 -40.5s0.5 -22.833 0.5 -29.5c0 -48 -7.16699 -86.333 -21.5 -115s-38.5 -47.334 -72.5 -56.001
c34 -8.66699 58.167 -27.334 72.5 -56.001s21.5 -67 21.5 -115c0 -7.33301 -0.166992 -17.333 -0.5 -30s-0.5 -26 -0.5 -40s-0.166992 -27.5 -0.5 -40.5s-0.5 -23.5 -0.5 -31.5c0 -16 1.83301 -31 5.5 -45s13.5 -22 29.5 -24l-2 -51c-31.333 0 -56.333 3.5 -75 10.5
s-33.167 16.667 -43.5 29s-17.166 27.333 -20.499 45s-5 37.5 -5 59.5c0 6.66699 0.166992 16.167 0.5 28.5s0.5 25.333 0.5 39s0.166992 27.5 0.5 41.5s0.5 26.333 0.5 37c0 12 -0.5 24.667 -1.5 38s-3.83301 25.833 -8.5 37.5s-11.834 21.5 -21.501 29.5
s-23.167 12.333 -40.5 13v50c18 0.666992 31.833 5.33398 41.5 14.001s16.667 18.667 21 30s7 23.166 8 35.499s1.5 22.833 1.5 31.5c0 14 -0.166992 28.667 -0.5 44s-0.5 30 -0.5 44s-0.166992 26.667 -0.5 38s-0.5 20.666 -0.5 27.999c0 21.333 1.66699 40.833 5 58.5
s10.166 32.667 20.499 45s24.833 22 43.5 29s43.667 10.5 75 10.5z" />
    <glyph glyph-name="bar" unicode="|" horiz-adv-x="256" 
d="M179 -114h-102v882h102v-882z" />
    <glyph glyph-name="braceright" unicode="}" horiz-adv-x="292" 
d="M46 -55c16 2 25.832 9.99805 29.499 23.998s5.5 28.667 5.5 44c0 8 -0.166992 18.667 -0.5 32s-0.5 27 -0.5 41s-0.166992 27.333 -0.5 40s-0.5 22.667 -0.5 30c0 48 7.16699 86.333 21.5 115s38.5 47.334 72.5 56.001c-34 8.66699 -58.167 27.334 -72.5 56.001
s-21.5 67 -21.5 115c0 6.66699 0.166992 16.5 0.5 29.5s0.5 26.5 0.5 40.5s0.166992 27.5 0.5 40.5s0.5 23.5 0.5 31.5c0 16 -1.83301 31 -5.5 45s-13.5 22 -29.5 24l2 51c30.667 0 55.5 -3.5 74.5 -10.5s33.667 -16.667 44 -29s17.166 -27.333 20.499 -45s5 -37.5 5 -59.5
c0 -7.33301 -0.166992 -17 -0.5 -29s-0.5 -24.833 -0.5 -38.5s-0.166992 -27.5 -0.5 -41.5s-0.5 -26.333 -0.5 -37c0 -12 0.5 -24.667 1.5 -38s3.83301 -25.833 8.5 -37.5s11.834 -21.5 21.501 -29.5s23.167 -12.333 40.5 -13v-50
c-18 -1.33301 -31.833 -6.16602 -41.5 -14.499s-16.667 -18.166 -21 -29.499s-7 -23.166 -8 -35.499s-1.5 -22.833 -1.5 -31.5c0 -14 0.166992 -28.667 0.5 -44s0.5 -30 0.5 -44s0.166992 -26.833 0.5 -38.5s0.5 -20.834 0.5 -27.501c0 -21.333 -1.66699 -40.833 -5 -58.5
s-10.166 -32.834 -20.499 -45.501s-25 -22.334 -44 -29.001s-43.833 -10 -74.5 -10z" />
    <glyph glyph-name="asciitilde" unicode="~" horiz-adv-x="474" 
d="M411 288c0 -3.33301 -1.66797 -9.83203 -5.00098 -19.499s-8.5 -20 -15.5 -31s-16.333 -20.667 -28 -29s-25.834 -12.5 -42.501 -12.5c-5.33301 0 -16.333 0.5 -33 1.5s-34.834 2 -54.501 3l-57 3c-18.333 1 -32.166 1.5 -41.499 1.5c-15.333 0 -27 -1.66699 -35 -5
s-15.333 -9 -22 -17l-13 19c0 5.33301 1.83301 13.166 5.5 23.499s9.33398 20.5 17.001 30.5s17.5 18.833 29.5 26.5s26.333 11.5 43 11.5c6 0 16 -0.5 30 -1.5s29.333 -2 46 -3l51 -3c17.333 -1 32.666 -1.5 45.999 -1.5c12.667 0 24.834 1.16699 36.501 3.5
s21.834 8.83301 30.501 19.5z" />
    <glyph glyph-name="uni00A0" unicode="&#xa0;" horiz-adv-x="245" 
 />
    <glyph glyph-name="exclamdown" unicode="&#xa1;" horiz-adv-x="255" 
d="M171 284l24 -502h-137l26 502h87zM200 405c0 -18.667 -7 -34.833 -21 -48.5s-30.667 -20.5 -50 -20.5s-36.333 6.83301 -51 20.5s-22 30.167 -22 49.5s7.5 35.833 22.5 49.5s32.167 20.5 51.5 20.5s35.833 -7 49.5 -21s20.5 -30.667 20.5 -50z" />
    <glyph glyph-name="cent" unicode="&#xa2;" horiz-adv-x="496" 
d="M331 441c23.333 -3.33301 45.1709 -7.99805 65.5039 -13.998s37.166 -13.333 50.499 -22l-26 -93c-9.33301 8.66699 -22 16.5 -38 23.5s-33.333 12.5 -52 16.5v-273c19.333 4.66699 37.666 11.5 54.999 20.5s32.666 19.5 45.999 31.5l20 -93
c-13.333 -9.33301 -30.5 -18 -51.5 -26s-44.167 -14 -69.5 -18v-131h-92v127c-33.333 3.33301 -62.333 11.833 -87 25.5s-45.334 30.667 -62.001 51s-29 43.666 -37 69.999s-12 53.833 -12 82.5c0 27.333 3.83301 53.666 11.5 78.999s19.5 48 35.5 68s36.5 36.833 61.5 50.5
s54.833 22.5 89.5 26.5v134h92v-136zM148.005 222.002c0 -32 8.16699 -61 24.5 -87s38.5 -44 66.5 -54v272c-30 -8.66699 -52.667 -25.5 -68 -50.5s-23 -51.833 -23 -80.5z" />
    <glyph glyph-name="sterling" unicode="&#xa3;" horiz-adv-x="583" 
d="M227 76c18.667 -1.33301 36.9971 -4.16797 54.9971 -8.50098s36.333 -9 55 -14s37.334 -9.5 56.001 -13.5s38 -6 58 -6c32 0 63 6.33301 93 19l-24 -98c-16.667 -8.66699 -30.667 -14.167 -42 -16.5s-22.666 -3.5 -33.999 -3.5c-26.667 0 -52.5 3.5 -77.5 10.5
s-49.5 14.5 -73.5 22.5l-70.5 22.5c-23 7 -45.833 10.5 -68.5 10.5c-14 0 -29.5 -2.16699 -46.5 -6.5s-34.833 -14.166 -53.5 -29.499l-22 71c50.667 19.333 87.334 47 110.001 83s34 74.667 34 116v15h-93v82h89c-3.33301 29.333 -7.33301 56.833 -12 82.5
s-7 49.834 -7 72.501c0 32 5.83301 59.333 17.5 82s27 41.167 46 55.5s40 24.666 63 30.999s46.167 9.5 69.5 9.5c30 0 59.833 -4.66699 89.5 -14s53.167 -21 70.5 -35l-22 -91c-13.333 13.333 -32.833 24.833 -58.5 34.5s-50.834 14.5 -75.501 14.5
c-16 0 -29.167 -2.16699 -39.5 -6.5s-18.5 -10.333 -24.5 -18s-10.167 -16.667 -12.5 -27s-3.5 -21.833 -3.5 -34.5c0 -20.667 2 -44.334 6 -71.001s7.33301 -55 10 -85h122v-82h-120c-1.33301 -28 -7.16602 -57.167 -17.499 -87.5s-26.5 -58.166 -48.5 -83.499z" />
    <glyph glyph-name="currency" unicode="&#xa4;" horiz-adv-x="592" 
d="M122 112c-26 34 -38.998 73.3301 -38.998 117.997c0 20.667 3 40.334 9 59.001s16.333 37.667 31 57l-75 72l55 55l73 -71c20 13.333 39.5 23.166 58.5 29.499s39.167 9.5 60.5 9.5c22 0 42.5 -3.16699 61.5 -9.5s37.833 -16.166 56.5 -29.499l73 71l55 -54l-71 -73
c13.333 -19.333 23.166 -38.5 29.499 -57.5s9.5 -39.167 9.5 -60.5s-3 -41.166 -9 -59.499s-15.667 -37.166 -29 -56.499l73 -72l-56 -55l-74 71c-36.667 -26.667 -75.667 -40 -117 -40c-20.667 0 -40.334 3.16699 -59.001 9.5s-38.667 16.5 -60 30.5l-73 -71l-54 55z
M296.002 362.997c-18 0 -35.167 -3.5 -51.5 -10.5s-30.5 -16.5 -42.5 -28.5s-21.5 -26.167 -28.5 -42.5s-10.5 -33.833 -10.5 -52.5s3.5 -36.167 10.5 -52.5s16.5 -30.5 28.5 -42.5s26.167 -21.5 42.5 -28.5s33.833 -10.5 52.5 -10.5s36 3.5 52 10.5s30 16.5 42 28.5
s21.333 26.167 28 42.5s10 33.833 10 52.5s-3.33301 36.167 -10 52.5s-16 30.5 -28 42.5s-26.167 21.5 -42.5 28.5s-33.833 10.5 -52.5 10.5z" />
    <glyph glyph-name="yen" unicode="&#xa5;" horiz-adv-x="647" 
d="M268 255v12l-25 41h-131v82h82l-163 270h129l169 -299l162 299h127l-163 -270h76v-82h-126l-22 -37v-16h148v-82h-148v-173h-115v173h-156v82h156z" />
    <glyph glyph-name="brokenbar" unicode="&#xa6;" horiz-adv-x="258" 
d="M180 274v-388h-102v388h102zM78 380v388h102v-388h-102z" />
    <glyph glyph-name="section" unicode="&#xa7;" horiz-adv-x="434" 
d="M201 550c0 -19.333 4.66895 -36.5 14.002 -51.5s21 -29 35 -42s29.333 -25.5 46 -37.5s32 -25 46 -39s25.667 -29.5 35 -46.5s14 -36.833 14 -59.5c0 -25.333 -5.83301 -49.5 -17.5 -72.5s-26.834 -41.833 -45.501 -56.5c7.33301 -18.667 11 -39 11 -61
c0 -25.333 -4.5 -47.333 -13.5 -66s-20.667 -34 -35 -46s-30 -21 -47 -27s-33.5 -9 -49.5 -9c-22 0 -44.833 4.5 -68.5 13.5s-43.167 19.833 -58.5 32.5l33 77c12.667 -9.33301 26 -16.666 40 -21.999s26.667 -8 38 -8c17.333 0 30.833 6.16699 40.5 18.5
s14.5 28.166 14.5 47.499s-4.66699 36.5 -14 51.5s-21 29 -35 42s-29.333 25.5 -46 37.5s-32 25 -46 39s-25.667 29.5 -35 46.5s-14 36.833 -14 59.5c0 24.667 5.66699 48.667 17 72s26.666 42 45.999 56c-7.33301 20 -11 40.667 -11 62c0 25.333 4.5 47.333 13.5 66
s20.667 34 35 46s30 21 47 27s33.5 9 49.5 9c22 0 44.833 -4.5 68.5 -13.5s43.167 -19.833 58.5 -32.5l-33 -77c-12.667 9.33301 -26 16.666 -40 21.999s-26.667 8 -38 8c-17.333 0 -30.833 -6.16699 -40.5 -18.5s-14.5 -28.166 -14.5 -47.499zM132.002 397
c0 -20.667 5.5 -39.002 16.5 -55.002s24.5 -31.167 40.5 -45.5s33.333 -28.833 52 -43.5s35.667 -31 51 -49c6.66699 14.667 10 29.334 10 44.001c0 20 -5.5 38 -16.5 54s-24.667 31.333 -41 46s-33.833 29.334 -52.5 44.001s-35.667 31 -51 49c-6 -13.333 -9 -28 -9 -44z
" />
    <glyph glyph-name="dieresis" unicode="&#xa8;" horiz-adv-x="220" 
d="M0 618c0 15.333 5.66699 29 17 41s24.666 18 39.999 18s29 -6 41 -18s18 -25.667 18 -41s-6 -28.666 -18 -39.999s-25.667 -17 -41 -17s-28.666 5.66699 -39.999 17s-17 24.666 -17 39.999zM136 618c0 15.333 5.66699 29 17 41s24.666 18 39.999 18s29 -6 41 -18
s18 -25.667 18 -41s-6 -28.666 -18 -39.999s-25.667 -17 -41 -17s-28.666 5.66699 -39.999 17s-17 24.666 -17 39.999z" />
    <glyph glyph-name="copyright" unicode="&#xa9;" horiz-adv-x="711" 
d="M355 654c42 0 81.499 -7.83301 118.499 -23.5s69.167 -37.167 96.5 -64.5s49 -59.166 65 -95.499s24 -75.166 24 -116.499c0 -42 -8 -81.5 -24 -118.5s-37.833 -69 -65.5 -96s-60.334 -48.333 -98.001 -64s-78.167 -23.5 -121.5 -23.5c-40.667 0 -79.167 8 -115.5 24
s-68 37.667 -95 65s-48.333 59.333 -64 96s-23.5 75.667 -23.5 117s7.83301 80.166 23.5 116.499s37.334 68.166 65.001 95.499s59.834 48.833 96.501 64.5s76 23.5 118 23.5zM453.999 427c-9.33301 6 -23.999 11.502 -43.999 16.502s-38.667 7.5 -56 7.5
c-16 0 -29.5 -2.83301 -40.5 -8.5s-20 -13 -27 -22s-12 -19.167 -15 -30.5s-4.5 -23 -4.5 -35c0 -26.667 7.5 -50.167 22.5 -70.5s37.5 -30.5 67.5 -30.5c18.667 0 37.5 3.66699 56.5 11s34.833 15.666 47.5 24.999l12 -71c-13.333 -8.66699 -31.333 -16.667 -54 -24
s-46.667 -11 -72 -11c-27.333 0 -51 4.66699 -71 14s-36.667 21.833 -50 37.5s-23.333 33.834 -30 54.501s-10 42.667 -10 66c0 22.667 3.16699 44.167 9.5 64.5s16.166 38.166 29.499 53.499s30.5 27.666 51.5 36.999s46.167 14 75.5 14c22 0 43.833 -2.5 65.5 -7.5
s39.167 -11.833 52.5 -20.5zM357 600.002c-34.667 0 -66.832 -6.33496 -96.499 -19.002s-55.5 -30 -77.5 -52s-39.167 -47.833 -51.5 -77.5s-18.5 -61.5 -18.5 -95.5c0 -35.333 6 -68.166 18 -98.499s28.667 -56.666 50 -78.999s46.166 -40 74.499 -53
s59.166 -19.5 92.499 -19.5c35.333 0 68 6.33301 98 19s56 30 78 52s39.333 48 52 78s19 62.667 19 98c0 34 -6.16699 66 -18.5 96s-29.166 56.167 -50.499 78.5s-46.5 40 -75.5 53s-60.167 19.5 -93.5 19.5z" />
    <glyph glyph-name="ordfeminine" unicode="&#xaa;" horiz-adv-x="365" 
d="M240 369l-4.00293 36.999h-4c-10.667 -13.333 -25.167 -24.166 -43.5 -32.499s-37.166 -12.5 -56.499 -12.5c-26 0 -46 7.5 -60 22.5s-21 34.167 -21 57.5c0 33.333 13.333 59.166 40 77.499s63.334 27.5 110.001 27.5h25v9c0 8 -1 14.833 -3 20.5s-6 10.834 -12 15.501
c-11.333 8.66699 -26.666 13 -45.999 13c-17.333 0 -32.333 -3 -45 -9s-24.667 -13 -36 -21l-13 55c26 19.333 59 29 99 29c17.333 0 34 -1.83301 50 -5.5s30 -10.167 42 -19.5c12.667 -10 22 -22.5 28 -37.5s9 -30.167 9 -45.5v-181h-59zM156.997 414.999
c13.333 0 26.333 3.16797 39 9.50098s22.667 14.5 30 24.5v55h-11c-33.333 0 -57.333 -4.33301 -72 -13s-22 -22.334 -22 -41.001c0 -23.333 12 -35 36 -35z" />
    <glyph glyph-name="guillemotleft" unicode="&#xab;" horiz-adv-x="531" 
d="M144 238l145 -177h-113l-133 178v5l134 176h112l-145 -177v-5zM338 238l145 -177h-113l-133 178v5l134 176h112l-145 -177v-5z" />
    <glyph glyph-name="logicalnot" unicode="&#xac;" horiz-adv-x="624" 
d="M549 356v-239h-93v157h-387v82h480z" />
    <glyph glyph-name="uni00AD" unicode="&#xad;" horiz-adv-x="466" 
d="M401 280v-82h-336v82h336z" />
    <glyph glyph-name="registered" unicode="&#xae;" horiz-adv-x="711" 
d="M355 654c42 0 81.499 -7.83301 118.499 -23.5s69.167 -37.167 96.5 -64.5s49 -59.166 65 -95.499s24 -75.166 24 -116.499c0 -42 -8 -81.5 -24 -118.5s-37.833 -69 -65.5 -96s-60.334 -48.333 -98.001 -64s-78.167 -23.5 -121.5 -23.5c-40.667 0 -79.167 8 -115.5 24
s-68 37.667 -95 65s-48.333 59.333 -64 96s-23.5 75.667 -23.5 117s7.83301 80.166 23.5 116.499s37.334 68.166 65.001 95.499s59.834 48.833 96.501 64.5s76 23.5 118 23.5zM356.999 600c-34.667 0 -66.832 -6.33496 -96.499 -19.002s-55.5 -30 -77.5 -52
s-39.167 -47.833 -51.5 -77.5s-18.5 -61.5 -18.5 -95.5c0 -35.333 6 -68.166 18 -98.499s28.667 -56.666 50 -78.999s46.166 -40 74.499 -53s59.166 -19.5 92.499 -19.5c35.333 0 68 6.33301 98 19s56 30 78 52s39.333 48 52 78s19 62.667 19 98c0 34 -6.16699 66 -18.5 96
s-29.166 56.167 -50.499 78.5s-46.5 40 -75.5 53s-60.167 19.5 -93.5 19.5zM314.001 319.998l-0.000976562 -118.999h-67v328c5.33301 0.666992 12 1.16699 20 1.5l24 1c8 0.333008 15.5 0.5 22.5 0.5h16.5c28 0 50.833 -2.83301 68.5 -8.5s31.5 -13.334 41.5 -23.001
s17 -21 21 -34s6 -27.167 6 -42.5c0 -18 -4.66699 -34.833 -14 -50.5s-22.666 -28.167 -39.999 -37.5l75 -135h-71l-62 119h-41zM314 483.999l-0.000976562 -115.999h29c18.667 0 33.167 6.16699 43.5 18.5s15.5 26.833 15.5 43.5c0 15.333 -5.16699 28.166 -15.5 38.499
s-29.166 15.5 -56.499 15.5h-16z" />
    <glyph glyph-name="degree" unicode="&#xb0;" horiz-adv-x="370" 
d="M184 658c22.667 0 42.6641 -3.50098 59.9971 -10.501s31.833 -16.5 43.5 -28.5s20.334 -26.167 26.001 -42.5s8.5 -33.5 8.5 -51.5c0 -17.333 -2.66699 -33.666 -8 -48.999s-13.666 -28.666 -24.999 -39.999s-25.666 -20.333 -42.999 -27s-38 -10 -62 -10
s-44.667 3.5 -62 10.5s-31.5 16.333 -42.5 28s-19 25.167 -24 40.5s-7.5 31.666 -7.5 48.999c0 18 3 35 9 51s14.667 29.833 26 41.5s25.5 21 42.5 28s36.5 10.5 58.5 10.5zM183.997 459.999c23.333 0 39.832 6.66699 49.499 20s14.5 29 14.5 47
c0 17.333 -4.83301 32.833 -14.5 46.5s-26.167 20.5 -49.5 20.5s-40.166 -6.5 -50.499 -19.5s-15.5 -27.833 -15.5 -44.5c0 -18 5.5 -34.167 16.5 -48.5s27.5 -21.5 49.5 -21.5z" />
    <glyph glyph-name="plusminus" unicode="&#xb1;" horiz-adv-x="463" 
d="M72 366h116v89h92v-89h111v-82h-111v-101h-92v101h-116v82zM392 123v-82h-321v82h321z" />
    <glyph glyph-name="twosuperior" unicode="&#xb2;" horiz-adv-x="377" 
d="M73 606c21.333 19.333 42.668 34.001 64.001 44.001s43.666 15 66.999 15c34 0 60.167 -9 78.5 -27s27.5 -41 27.5 -69c0 -19.333 -4.33301 -37.666 -13 -54.999s-20.5 -34.333 -35.5 -51s-32.333 -33.334 -52 -50.001l-62.5 -52h163v-62h-252v62
c16 18 34.5 35.167 55.5 51.5s40.667 32.333 59 48s33.833 31.5 46.5 47.5s19 33.333 19 52c0 4 -0.5 8.66699 -1.5 14s-3 10.333 -6 15s-7.33301 8.5 -13 11.5s-12.834 4.5 -21.501 4.5c-17.333 0 -35.666 -5.83301 -54.999 -17.5s-36.333 -26.834 -51 -45.501z" />
    <glyph glyph-name="threesuperior" unicode="&#xb3;" horiz-adv-x="340" 
d="M72 635c15.333 9.33301 29.666 16.668 42.999 22.001s29.333 8 48 8c34 0 60.5 -8.33301 79.5 -25s28.5 -38 28.5 -64c0 -18 -4.33301 -32.833 -13 -44.5s-20 -21.834 -34 -30.501c20.667 -7.33301 36.834 -18.166 48.501 -32.499s17.5 -33.5 17.5 -57.5
c0 -15.333 -2.66699 -30 -8 -44s-13.666 -26.5 -24.999 -37.5s-25.833 -19.667 -43.5 -26s-38.5 -9.5 -62.5 -9.5c-24.667 0 -44.167 3.33301 -58.5 10s-29.166 16 -44.499 28l12 60c14 -11.333 27 -20.5 39 -27.5s28 -10.5 48 -10.5c25.333 0 43.833 5.5 55.5 16.5
s17.5 26.167 17.5 45.5c0 17.333 -5.83301 30.833 -17.5 40.5s-33.834 14.5 -66.501 14.5h-12v54h15c21.333 0 37.166 4.16699 47.499 12.5s15.5 19.833 15.5 34.5c0 9.33301 -2.66699 17.166 -8 23.499s-16.333 9.5 -33 9.5c-17.333 0 -32.5 -3 -45.5 -9
s-23.833 -12.667 -32.5 -20z" />
    <glyph glyph-name="acute" unicode="&#xb4;" horiz-adv-x="219" 
d="M15 536l-14.999 35.998l3 7l180 101c4 2 7.33301 3 10 3c9.33301 0 16.666 -5.83301 21.999 -17.5s8 -23.167 8 -34.5c0 -7.33301 -1 -13.666 -3 -18.999s-5.33301 -8.66602 -10 -9.99902l-187 -69z" />
    <glyph glyph-name="mu" unicode="&#xb5;" horiz-adv-x="573" 
d="M217 460l0.000976562 -299c0 -27.333 7.16699 -48.166 21.5 -62.499s32.833 -21.5 55.5 -21.5c23.333 0 44.666 8 63.999 24s33.666 38.667 42.999 68v291h111v-460h-86l-6 64h-4c-7.33301 -15.333 -16.666 -27.833 -27.999 -37.5s-23.666 -17.334 -36.999 -23.001
s-27.333 -9.66699 -42 -12s-29 -3.5 -43 -3.5c-28 0 -53 4 -75 12l-2 -8c-3.33301 -14 -6.83301 -27 -10.5 -39s-7.66699 -23.833 -12 -35.5l-14 -36c-5 -12.333 -10.833 -25.5 -17.5 -39.5l-104 47c12 22.667 22.667 44.167 32 64.5s17.166 40.833 23.499 61.5
s11.333 41.667 15 63s5.5 44.333 5.5 69v313h110z" />
    <glyph glyph-name="paragraph" unicode="&#xb6;" horiz-adv-x="557" 
d="M248 248l-20.999 -0.000976562c-30.667 0 -58 5.5 -82 16.5s-44.333 25.833 -61 44.5s-29.334 40.334 -38.001 65.001s-13 51 -13 79c0 34.667 5.66699 65.167 17 91.5s27.5 48.5 48.5 66.5s46.333 31.5 76 40.5s62.5 13.5 98.5 13.5c25.333 0 56 -0.5 92 -1.5
s70 -2.16699 102 -3.5v-746h-85v655h-44v-655h-90v334z" />
    <glyph glyph-name="periodcentered" unicode="&#xb7;" horiz-adv-x="267" 
d="M62 243c0 9.33301 1.83203 18.334 5.49902 27.001s8.83398 16.5 15.501 23.5s14.167 12.5 22.5 16.5s17.5 6 27.5 6c9.33301 0 18.333 -2 27 -6s16.5 -9.5 23.5 -16.5s12.5 -14.833 16.5 -23.5s6 -17.667 6 -27c0 -10 -2 -19.167 -6 -27.5s-9.5 -15.833 -16.5 -22.5
s-14.833 -11.834 -23.5 -15.501s-17.667 -5.5 -27 -5.5c-19.333 0 -36 7 -50 21s-21 30.667 -21 50z" />
    <glyph glyph-name="cedilla" unicode="&#xb8;" horiz-adv-x="202" 
d="M0 -193l27.9961 47.999h7c7.33301 -3.33301 16.833 -6.16602 28.5 -8.49902s23.167 -3.5 34.5 -3.5s21.5 2.16699 30.5 6.5s13.5 12.166 13.5 23.499c0 12 -4.16699 20.167 -12.5 24.5s-18.166 6.5 -29.499 6.5c-8 0 -16.167 -0.666992 -24.5 -2s-16.166 -3 -23.499 -5
l-19 26l51 77h54l-25 -41c10 2.66699 19.667 4 29 4c23.333 0 42.333 -7.83301 57 -23.5s22 -35.167 22 -58.5c0 -13.333 -3.16699 -25.833 -9.5 -37.5s-15 -22.167 -26 -31.5s-24.167 -16.666 -39.5 -21.999s-32 -8 -50 -8c-17.333 0 -34.166 1.83301 -50.499 5.5
s-31.166 8.16699 -44.499 13.5z" />
    <glyph glyph-name="onesuperior" unicode="&#xb9;" horiz-adv-x="252" 
d="M180 299h-75v266l-57 -28l-13 52l145 76v-366z" />
    <glyph glyph-name="ordmasculine" unicode="&#xba;" horiz-adv-x="392" 
d="M195 668c24 0 45.333 -4.33301 64 -13s34.334 -20.334 47.001 -35.001s22.334 -31.5 29.001 -50.5s10 -38.833 10 -59.5c0 -19.333 -3 -38.166 -9 -56.499s-15.333 -34.5 -28 -48.5s-28.334 -25.167 -47.001 -33.5s-40.334 -12.5 -65.001 -12.5
c-25.333 0 -47.333 4.33301 -66 13s-34.167 20.167 -46.5 34.5s-21.5 30.833 -27.5 49.5s-9 37.667 -9 57c0 20.667 3.33301 40.5 10 59.5s16.5 35.5 29.5 49.5s28.5 25.167 46.5 33.5s38.667 12.5 62 12.5zM196 430c24 0 41.167 7.5 51.5 22.5s15.5 34.167 15.5 57.5
s-5.66699 43.166 -17 59.499s-29 24.5 -53 24.5c-24.667 0 -41.667 -7.66699 -51 -23s-14 -34.333 -14 -57c0 -23.333 5.5 -43.166 16.5 -59.499s28.167 -24.5 51.5 -24.5z" />
    <glyph glyph-name="guillemotright" unicode="&#xbb;" horiz-adv-x="531" 
d="M387 243l-145 177h112l134 -176v-5l-133 -178h-113l145 177v5zM193 243l-145 177h112l134 -176v-5l-133 -178h-113l145 177v5z" />
    <glyph glyph-name="onequarter" unicode="&#xbc;" horiz-adv-x="773" 
d="M734 91h-34v-91h-68v91h-182v62l147 213h103v-213h34v-62zM632 153v154l-110 -154h110zM178 -24h-90l463 715h90zM179 299h-75v266l-57 -28l-13 52l145 76v-366z" />
    <glyph glyph-name="onehalf" unicode="&#xbd;" horiz-adv-x="779" 
d="M180 -24h-90l463 715h90zM179 299h-75v266l-57 -28l-13 52l145 76v-366zM497 307c21.333 19.333 42.668 34.001 64.001 44.001s43.666 15 66.999 15c34 0 60.167 -9 78.5 -27s27.5 -41 27.5 -69c0 -19.333 -4.33301 -37.666 -13 -54.999s-20.5 -34.333 -35.5 -51
s-32.333 -33.334 -52 -50.001l-62.5 -52h163v-62h-252v62c16 18 34.5 35.167 55.5 51.5s40.667 32.333 59 48s33.833 31.5 46.5 47.5s19 33.333 19 52c0 4 -0.5 8.66699 -1.5 14s-3 10.333 -6 15s-7.33301 8.5 -13 11.5s-12.834 4.5 -21.501 4.5
c-17.333 0 -35.666 -5.83301 -54.999 -17.5s-36.333 -26.834 -51 -45.501z" />
    <glyph glyph-name="threequarters" unicode="&#xbe;" horiz-adv-x="774" 
d="M60 635c15.333 9.33301 29.666 16.668 42.999 22.001s29.333 8 48 8c34 0 60.5 -8.33301 79.5 -25s28.5 -38 28.5 -64c0 -18 -4.33301 -32.833 -13 -44.5s-20 -21.834 -34 -30.501c20.667 -7.33301 36.834 -18.166 48.501 -32.499s17.5 -33.5 17.5 -57.5
c0 -15.333 -2.66699 -30 -8 -44s-13.666 -26.5 -24.999 -37.5s-25.833 -19.667 -43.5 -26s-38.5 -9.5 -62.5 -9.5c-24.667 0 -44.167 3.33301 -58.5 10s-29.166 16 -44.499 28l12 60c14 -11.333 27 -20.5 39 -27.5s28 -10.5 48 -10.5c25.333 0 43.833 5.5 55.5 16.5
s17.5 26.167 17.5 45.5c0 17.333 -5.83301 30.833 -17.5 40.5s-33.834 14.5 -66.501 14.5h-12v54h15c21.333 0 37.166 4.16699 47.499 12.5s15.5 19.833 15.5 34.5c0 9.33301 -2.66699 17.166 -8 23.499s-16.333 9.5 -33 9.5c-17.333 0 -32.5 -3 -45.5 -9
s-23.833 -12.667 -32.5 -20zM200 -23.998h-90l463 715h90zM736 91.002h-34v-91h-68v91h-182v62l147 213h103v-213h34v-62zM634 153.002v154l-110 -154h110z" />
    <glyph glyph-name="questiondown" unicode="&#xbf;" horiz-adv-x="401" 
d="M368 -170c-18.667 -14 -41.832 -26.166 -69.499 -36.499s-56.5 -15.5 -86.5 -15.5c-24.667 0 -47.334 4 -68.001 12s-38.5 19 -53.5 33s-26.667 30.667 -35 50s-12.5 40.333 -12.5 63c0 30 6.5 57 19.5 81s27.333 48.5 43 73.5s30.167 52.667 43.5 83s20 66.833 20 109.5
h104c0 -45.333 -6.33301 -84 -19 -116s-26.5 -60.167 -41.5 -84.5l-41.5 -68c-12.667 -21 -19 -43.167 -19 -66.5c0 -26.667 8 -45.334 24 -56.001s34 -16 54 -16c21.333 0 42.333 4.66699 63 14s37 21.333 49 36zM290.002 405.001c0 -18.667 -7 -34.833 -21 -48.5
s-30.667 -20.5 -50 -20.5s-36.333 6.83301 -51 20.5s-22 30.167 -22 49.5s7.5 35.833 22.5 49.5s32.167 20.5 51.5 20.5s35.833 -7 49.5 -21s20.5 -30.667 20.5 -50z" />
    <glyph glyph-name="Agrave" unicode="&#xc0;" horiz-adv-x="628" 
d="M639 1h-125l-75 192h-249l-68 -192h-120l256 660h99zM222 283h181l-95 243zM405 698l-186.999 69.002c-4.66699 1.33301 -8 4.66602 -10 9.99902s-3 11.666 -3 18.999c0 11.333 2.66699 22.833 8 34.5s12.666 17.5 21.999 17.5c2.66699 0 6 -1 10 -3l180 -101l3 -7
l-15 -36z" />
    <glyph glyph-name="Aacute" unicode="&#xc1;" horiz-adv-x="628" 
d="M639 0h-125l-75 192h-249l-68 -192h-120l256 660h99zM222 282h181l-95 243zM217 702l-14.999 35.998l3 7l180 101c4 2 7.33301 3 10 3c9.33301 0 16.666 -5.83301 21.999 -17.5s8 -23.167 8 -34.5c0 -7.33301 -1 -13.666 -3 -18.999s-5.33301 -8.66602 -10 -9.99902
l-187 -69z" />
    <glyph glyph-name="Acircumflex" unicode="&#xc2;" horiz-adv-x="628" 
d="M639 0h-125l-75 192h-249l-68 -192h-120l256 660h99zM222 282h181l-95 243zM323 842l110 -99l3 -7l-16 -29l-7 -3l-94 41l-94 -41l-7 3l-16 29l3 7l110 99h8z" />
    <glyph glyph-name="Atilde" unicode="&#xc3;" horiz-adv-x="628" 
d="M639 0h-125l-75 192h-249l-68 -192h-120l256 660h99zM222 282h181l-95 243zM473 818c-2 -10.667 -5.16797 -21.499 -9.50098 -32.499s-10 -20.833 -17 -29.5s-15.667 -15.834 -26 -21.501s-22.833 -8.5 -37.5 -8.5c-8 0 -17.167 0.666992 -27.5 2s-21.5 3 -33.5 5
s-24.167 3.66699 -36.5 5s-24.166 2 -35.499 2c-15.333 0 -29.333 -1.83301 -42 -5.5s-23.667 -10.167 -33 -19.5l-13 23c4 12 8.16699 23.5 12.5 34.5s10.166 20.667 17.499 29s16.333 15 27 20s24.334 7.5 41.001 7.5c19.333 0 40.5 -2.33301 63.5 -7s43.5 -7 61.5 -7
c12 0 24.333 1.83301 37 5.5s25.667 10.5 39 20.5z" />
    <glyph glyph-name="Adieresis" unicode="&#xc4;" horiz-adv-x="628" 
d="M639 0h-125l-75 192h-249l-68 -192h-120l256 660h99zM222 282h181l-95 243zM192 783c0 15.333 5.66699 29 17 41s24.666 18 39.999 18s29 -6 41 -18s18 -25.667 18 -41s-6 -28.666 -18 -39.999s-25.667 -17 -41 -17s-28.666 5.66699 -39.999 17s-17 24.666 -17 39.999z
M328 783c0 15.333 5.66699 29 17 41s24.666 18 39.999 18s29 -6 41 -18s18 -25.667 18 -41s-6 -28.666 -18 -39.999s-25.667 -17 -41 -17s-28.666 5.66699 -39.999 17s-17 24.666 -17 39.999z" />
    <glyph glyph-name="Aring" unicode="&#xc5;" horiz-adv-x="635" 
d="M311 792c29.333 0 52.666 -8.99707 69.999 -26.9971s26 -38.667 26 -62c0 -14.667 -3.66699 -27.834 -11 -39.501s-16.666 -21.167 -27.999 -28.5l279 -635h-129l-75 202h-249l-68 -202h-124l253 635c-12.667 7.33301 -22.667 17.166 -30 29.499s-11 25.833 -11 40.5
c0 23.333 8.83301 43.666 26.5 60.999s41.167 26 70.5 26zM226 292.003h181l-95 233zM312 664.003c10 0 18.332 3.99805 24.999 11.998s10 17 10 27c0 10.667 -3.5 19.834 -10.5 27.501s-15.833 11.5 -26.5 11.5c-11.333 0 -20.333 -3.5 -27 -10.5s-10 -15.5 -10 -25.5
c0 -11.333 3.83301 -21.166 11.5 -29.499s16.834 -12.5 27.501 -12.5z" />
    <glyph glyph-name="AE" unicode="&#xc6;" horiz-adv-x="757" 
d="M717 0h-331v190h-177l-101 -190h-122l352 660h359v-102h-202v-157h135v-102h-135v-197h222v-102zM386 290v234l-124 -234h124z" />
    <glyph glyph-name="Ccedilla" unicode="&#xc7;" horiz-adv-x="629" 
d="M258 -193l27.9951 47.999h7c7.33301 -3.33301 16.833 -6.16602 28.5 -8.49902s23.167 -3.5 34.5 -3.5s21.5 2.16699 30.5 6.5s13.5 12.166 13.5 23.499c0 12 -4.16699 20.167 -12.5 24.5s-18.166 6.5 -29.499 6.5c-8 0 -16.167 -0.666992 -24.5 -2s-16.166 -3 -23.499 -5
l-19 26l44 67c-48.667 4 -90.834 15.5 -126.501 34.5s-65.167 43.5 -88.5 73.5s-40.666 64.333 -51.999 103s-17 79.334 -17 122.001c0 47.333 7 91.666 21 132.999s34.833 77.5 62.5 108.5s62 55.5 103 73.5s88.833 27 143.5 27c36 0 72 -3.83301 108 -11.5
s67 -18.167 93 -31.5l-29 -104c-21.333 14.667 -46.833 26.5 -76.5 35.5s-63.5 13.5 -101.5 13.5c-36 0 -66.833 -5.66699 -92.5 -17s-46.5 -27.333 -62.5 -48s-27.833 -45.5 -35.5 -74.5s-11.5 -61.167 -11.5 -96.5c0 -80.667 17.167 -141.667 51.5 -183
s83.833 -62 148.5 -62c40 0 76.5 6 109.5 18s60.167 26.667 81.5 44l30 -99c-25.333 -15.333 -55.166 -28.833 -89.499 -40.5s-72.833 -18.167 -115.5 -19.5l-18 -30c10 2.66699 19.667 4 29 4c23.333 0 42.333 -7.83301 57 -23.5s22 -35.167 22 -58.5
c0 -13.333 -3.16699 -25.833 -9.5 -37.5s-15 -22.167 -26 -31.5s-24.167 -16.666 -39.5 -21.999s-32 -8 -50 -8c-17.333 0 -34.166 1.83301 -50.499 5.5s-31.166 8.16699 -44.499 13.5z" />
    <glyph glyph-name="Egrave" unicode="&#xc8;" horiz-adv-x="529" 
d="M403 300h-200v-200h287v-100h-402v660h382v-100h-267v-160h200v-100zM374 698l-186.999 69.002c-4.66699 1.33301 -8 4.66602 -10 9.99902s-3 11.666 -3 18.999c0 11.333 2.66699 22.833 8 34.5s12.666 17.5 21.999 17.5c2.66699 0 6 -1 10 -3l180 -101l3 -7l-15 -36z
" />
    <glyph glyph-name="Eacute" unicode="&#xc9;" horiz-adv-x="529" 
d="M403 300h-200v-200h287v-100h-402v660h382v-100h-267v-160h200v-100zM201 701l-14.999 35.998l3 7l180 101c4 2 7.33301 3 10 3c9.33301 0 16.666 -5.83301 21.999 -17.5s8 -23.167 8 -34.5c0 -7.33301 -1 -13.666 -3 -18.999s-5.33301 -8.66602 -10 -9.99902l-187 -69z
" />
    <glyph glyph-name="Ecircumflex" unicode="&#xca;" horiz-adv-x="529" 
d="M403 300h-200v-200h287v-100h-402v660h382v-100h-267v-160h200v-100zM300 842l110 -99l3 -7l-16 -29l-7 -3l-94 41l-94 -41l-7 3l-16 29l3 7l110 99h8z" />
    <glyph glyph-name="Edieresis" unicode="&#xcb;" horiz-adv-x="529" 
d="M403 300h-200v-200h287v-100h-402v660h382v-100h-267v-160h200v-100zM161 784c0 15.333 5.66699 29 17 41s24.666 18 39.999 18s29 -6 41 -18s18 -25.667 18 -41s-6 -28.666 -18 -39.999s-25.667 -17 -41 -17s-28.666 5.66699 -39.999 17s-17 24.666 -17 39.999zM297 784
c0 15.333 5.66699 29 17 41s24.666 18 39.999 18s29 -6 41 -18s18 -25.667 18 -41s-6 -28.666 -18 -39.999s-25.667 -17 -41 -17s-28.666 5.66699 -39.999 17s-17 24.666 -17 39.999z" />
    <glyph glyph-name="Igrave" unicode="&#xcc;" horiz-adv-x="291" 
d="M203 0h-115v660h115v-660zM222 698l-186.999 69.002c-4.66699 1.33301 -8 4.66602 -10 9.99902s-3 11.666 -3 18.999c0 11.333 2.66699 22.833 8 34.5s12.666 17.5 21.999 17.5c2.66699 0 6 -1 10 -3l180 -101l3 -7l-15 -36z" />
    <glyph glyph-name="Iacute" unicode="&#xcd;" horiz-adv-x="291" 
d="M88 660h115v-660h-115v660zM61 701l-14.999 35.998l3 7l180 101c4 2 7.33301 3 10 3c9.33301 0 16.666 -5.83301 21.999 -17.5s8 -23.167 8 -34.5c0 -7.33301 -1 -13.666 -3 -18.999s-5.33301 -8.66602 -10 -9.99902l-187 -69z" />
    <glyph glyph-name="Icircumflex" unicode="&#xce;" horiz-adv-x="291" 
d="M203 0h-115v660h115v-660zM147 842l110 -99l3 -7l-16 -29l-7 -3l-94 41l-94 -41l-7 3l-16 29l3 7l110 99h8z" />
    <glyph glyph-name="Idieresis" unicode="&#xcf;" horiz-adv-x="291" 
d="M203 0h-115v660h115v-660zM21 783c0 15.333 5.66699 29 17 41s24.666 18 39.999 18s29 -6 41 -18s18 -25.667 18 -41s-6 -28.666 -18 -39.999s-25.667 -17 -41 -17s-28.666 5.66699 -39.999 17s-17 24.666 -17 39.999zM157 783c0 15.333 5.66699 29 17 41
s24.666 18 39.999 18s29 -6 41 -18s18 -25.667 18 -41s-6 -28.666 -18 -39.999s-25.667 -17 -41 -17s-28.666 5.66699 -39.999 17s-17 24.666 -17 39.999z" />
    <glyph glyph-name="Eth" unicode="&#xd0;" horiz-adv-x="714" 
d="M94 660c8.66699 0.666992 22.3311 1.33105 40.998 1.99805s38.334 1.16699 59.001 1.5l59.5 1c19 0.333008 33.833 0.5 44.5 0.5c64.667 0 117.834 -6.66699 159.501 -20s76.167 -31.666 103.5 -54.999c35.333 -30.667 61 -69.667 77 -117s24 -99.666 24 -156.999
c0 -43.333 -5.5 -84.833 -16.5 -124.5s-30.667 -74.5 -59 -104.5s-67.333 -53.833 -117 -71.5s-113.167 -26.5 -190.5 -26.5c-28 0 -58 1 -90 3s-63.667 4.66699 -95 8v311h-74v74h74v275zM356.997 384.997l0.000976562 -74h-148v-223
c18.667 -1.33301 36.667 -2.33301 54 -3s32 -1 44 -1c80.667 0 139.5 19.333 176.5 58s55.5 101.667 55.5 189c0 39.333 -3.83301 73.833 -11.5 103.5s-20.834 54.5 -39.501 74.5s-43.667 35 -75 45s-70.333 15 -117 15h-37.5c-15.667 0 -32.167 -0.333008 -49.5 -1v-183
h148z" />
    <glyph glyph-name="Ntilde" unicode="&#xd1;" horiz-adv-x="722" 
d="M203 484v-484h-115v660h141l290 -485v485h115v-660h-141zM500 818c-2 -10.667 -5.16797 -21.499 -9.50098 -32.499s-10 -20.833 -17 -29.5s-15.667 -15.834 -26 -21.501s-22.833 -8.5 -37.5 -8.5c-8 0 -17.167 0.666992 -27.5 2s-21.5 3 -33.5 5s-24.167 3.66699 -36.5 5
s-24.166 2 -35.499 2c-15.333 0 -29.333 -1.83301 -42 -5.5s-23.667 -10.167 -33 -19.5l-13 23c4 12 8.16699 23.5 12.5 34.5s10.166 20.667 17.499 29s16.333 15 27 20s24.334 7.5 41.001 7.5c19.333 0 40.5 -2.33301 63.5 -7s43.5 -7 61.5 -7c12 0 24.333 1.83301 37 5.5
s25.667 10.5 39 20.5z" />
    <glyph glyph-name="Ograve" unicode="&#xd2;" horiz-adv-x="742" 
d="M371 665c52 0 98.001 -8.99902 138.001 -26.999s73.667 -42.5 101 -73.5s48 -66.833 62 -107.5s21 -83.334 21 -128.001c0 -44 -6.83301 -86.5 -20.5 -127.5s-34.334 -77.333 -62.001 -109s-62 -57 -103 -76s-88.833 -28.5 -143.5 -28.5c-53.333 0 -99.666 9 -138.999 27
s-72 42.333 -98 73s-45.5 66.167 -58.5 106.5s-19.5 82.833 -19.5 127.5c0 47.333 7.16699 91.833 21.5 133.5s35.166 78 62.499 109s61 55.5 101 73.5s85.667 27 137 27zM366.001 86.001c36.667 0 67.833 6.1709 93.5 18.5039s46.834 29.333 63.501 51
s28.834 47.167 36.501 76.5s11.5 60.666 11.5 93.999c0 36 -4 68.667 -12 98s-20.333 54.666 -37 75.999s-37.834 37.833 -63.501 49.5s-55.834 17.5 -90.501 17.5c-35.333 0 -65.5 -5.83301 -90.5 -17.5s-45.333 -27.834 -61 -48.501s-27 -45.334 -34 -74.001
s-10.5 -60.334 -10.5 -95.001c0 -81.333 16.667 -142.666 50 -183.999s81.333 -62 144 -62zM430 698.005l-186.999 69.002c-4.66699 1.33301 -8 4.66602 -10 9.99902s-3 11.666 -3 18.999c0 11.333 2.66699 22.833 8 34.5s12.666 17.5 21.999 17.5c2.66699 0 6 -1 10 -3
l180 -101l3 -7l-15 -36z" />
    <glyph glyph-name="Oacute" unicode="&#xd3;" horiz-adv-x="742" 
d="M371 665c52 0 98.001 -8.99902 138.001 -26.999s73.667 -42.5 101 -73.5s48 -66.833 62 -107.5s21 -83.334 21 -128.001c0 -44 -6.83301 -86.5 -20.5 -127.5s-34.334 -77.333 -62.001 -109s-62 -57 -103 -76s-88.833 -28.5 -143.5 -28.5c-53.333 0 -99.666 9 -138.999 27
s-72 42.333 -98 73s-45.5 66.167 -58.5 106.5s-19.5 82.833 -19.5 127.5c0 47.333 7.16699 91.833 21.5 133.5s35.166 78 62.499 109s61 55.5 101 73.5s85.667 27 137 27zM366.001 86.001c36.667 0 67.833 6.1709 93.5 18.5039s46.834 29.333 63.501 51
s28.834 47.167 36.501 76.5s11.5 60.666 11.5 93.999c0 36 -4 68.667 -12 98s-20.333 54.666 -37 75.999s-37.834 37.833 -63.501 49.5s-55.834 17.5 -90.501 17.5c-35.333 0 -65.5 -5.83301 -90.5 -17.5s-45.333 -27.834 -61 -48.501s-27 -45.334 -34 -74.001
s-10.5 -60.334 -10.5 -95.001c0 -81.333 16.667 -142.666 50 -183.999s81.333 -62 144 -62zM313 701.005l-14.999 35.998l3 7l180 101c4 2 7.33301 3 10 3c9.33301 0 16.666 -5.83301 21.999 -17.5s8 -23.167 8 -34.5c0 -7.33301 -1 -13.666 -3 -18.999
s-5.33301 -8.66602 -10 -9.99902l-187 -69z" />
    <glyph glyph-name="Ocircumflex" unicode="&#xd4;" horiz-adv-x="742" 
d="M371 665c52 0 98.001 -8.99902 138.001 -26.999s73.667 -42.5 101 -73.5s48 -66.833 62 -107.5s21 -83.334 21 -128.001c0 -44 -6.83301 -86.5 -20.5 -127.5s-34.334 -77.333 -62.001 -109s-62 -57 -103 -76s-88.833 -28.5 -143.5 -28.5c-53.333 0 -99.666 9 -138.999 27
s-72 42.333 -98 73s-45.5 66.167 -58.5 106.5s-19.5 82.833 -19.5 127.5c0 47.333 7.16699 91.833 21.5 133.5s35.166 78 62.499 109s61 55.5 101 73.5s85.667 27 137 27zM366.001 86.001c36.667 0 67.833 6.1709 93.5 18.5039s46.834 29.333 63.501 51
s28.834 47.167 36.501 76.5s11.5 60.666 11.5 93.999c0 36 -4 68.667 -12 98s-20.333 54.666 -37 75.999s-37.834 37.833 -63.501 49.5s-55.834 17.5 -90.501 17.5c-35.333 0 -65.5 -5.83301 -90.5 -17.5s-45.333 -27.834 -61 -48.501s-27 -45.334 -34 -74.001
s-10.5 -60.334 -10.5 -95.001c0 -81.333 16.667 -142.666 50 -183.999s81.333 -62 144 -62zM385 842.005l110 -99l3 -7l-16 -29l-7 -3l-94 41l-94 -41l-7 3l-16 29l3 7l110 99h8z" />
    <glyph glyph-name="Otilde" unicode="&#xd5;" horiz-adv-x="742" 
d="M371 665c52 0 98.001 -8.99902 138.001 -26.999s73.667 -42.5 101 -73.5s48 -66.833 62 -107.5s21 -83.334 21 -128.001c0 -44 -6.83301 -86.5 -20.5 -127.5s-34.334 -77.333 -62.001 -109s-62 -57 -103 -76s-88.833 -28.5 -143.5 -28.5c-53.333 0 -99.666 9 -138.999 27
s-72 42.333 -98 73s-45.5 66.167 -58.5 106.5s-19.5 82.833 -19.5 127.5c0 47.333 7.16699 91.833 21.5 133.5s35.166 78 62.499 109s61 55.5 101 73.5s85.667 27 137 27zM366.001 86.001c36.667 0 67.833 6.1709 93.5 18.5039s46.834 29.333 63.501 51
s28.834 47.167 36.501 76.5s11.5 60.666 11.5 93.999c0 36 -4 68.667 -12 98s-20.333 54.666 -37 75.999s-37.834 37.833 -63.501 49.5s-55.834 17.5 -90.501 17.5c-35.333 0 -65.5 -5.83301 -90.5 -17.5s-45.333 -27.834 -61 -48.501s-27 -45.334 -34 -74.001
s-10.5 -60.334 -10.5 -95.001c0 -81.333 16.667 -142.666 50 -183.999s81.333 -62 144 -62zM527 818.005c-2 -10.667 -5.16797 -21.499 -9.50098 -32.499s-10 -20.833 -17 -29.5s-15.667 -15.834 -26 -21.501s-22.833 -8.5 -37.5 -8.5c-8 0 -17.167 0.666992 -27.5 2
s-21.5 3 -33.5 5s-24.167 3.66699 -36.5 5s-24.166 2 -35.499 2c-15.333 0 -29.333 -1.83301 -42 -5.5s-23.667 -10.167 -33 -19.5l-13 23c4 12 8.16699 23.5 12.5 34.5s10.166 20.667 17.499 29s16.333 15 27 20s24.334 7.5 41.001 7.5c19.333 0 40.5 -2.33301 63.5 -7
s43.5 -7 61.5 -7c12 0 24.333 1.83301 37 5.5s25.667 10.5 39 20.5z" />
    <glyph glyph-name="Odieresis" unicode="&#xd6;" horiz-adv-x="742" 
d="M371 665c52 0 98.001 -8.99902 138.001 -26.999s73.667 -42.5 101 -73.5s48 -66.833 62 -107.5s21 -83.334 21 -128.001c0 -44 -6.83301 -86.5 -20.5 -127.5s-34.334 -77.333 -62.001 -109s-62 -57 -103 -76s-88.833 -28.5 -143.5 -28.5c-53.333 0 -99.666 9 -138.999 27
s-72 42.333 -98 73s-45.5 66.167 -58.5 106.5s-19.5 82.833 -19.5 127.5c0 47.333 7.16699 91.833 21.5 133.5s35.166 78 62.499 109s61 55.5 101 73.5s85.667 27 137 27zM366.001 86.001c36.667 0 67.833 6.1709 93.5 18.5039s46.834 29.333 63.501 51
s28.834 47.167 36.501 76.5s11.5 60.666 11.5 93.999c0 36 -4 68.667 -12 98s-20.333 54.666 -37 75.999s-37.834 37.833 -63.501 49.5s-55.834 17.5 -90.501 17.5c-35.333 0 -65.5 -5.83301 -90.5 -17.5s-45.333 -27.834 -61 -48.501s-27 -45.334 -34 -74.001
s-10.5 -60.334 -10.5 -95.001c0 -81.333 16.667 -142.666 50 -183.999s81.333 -62 144 -62zM246 783.005c0 15.333 5.66699 29 17 41s24.666 18 39.999 18s29 -6 41 -18s18 -25.667 18 -41s-6 -28.666 -18 -39.999s-25.667 -17 -41 -17s-28.666 5.66699 -39.999 17
s-17 24.666 -17 39.999zM382 783.005c0 15.333 5.66699 29 17 41s24.666 18 39.999 18s29 -6 41 -18s18 -25.667 18 -41s-6 -28.666 -18 -39.999s-25.667 -17 -41 -17s-28.666 5.66699 -39.999 17s-17 24.666 -17 39.999z" />
    <glyph glyph-name="multiply" unicode="&#xd7;" horiz-adv-x="456" 
d="M228 187l-113 -113l-52 52l113 113l-113 112l52 52l113 -112l114 114l52 -52l-114 -114l114 -115l-51 -51z" />
    <glyph glyph-name="Oslash" unicode="&#xd8;" horiz-adv-x="743" 
d="M372 665c34 0 65.334 -4 94.001 -12s54.667 -19 78 -33l67 79l81 -62l-72 -84c24.667 -30.667 43.167 -65.167 55.5 -103.5s18.5 -78.5 18.5 -120.5c0 -44 -6.83301 -86.5 -20.5 -127.5s-34.334 -77.333 -62.001 -109s-62 -57 -103 -76s-88.833 -28.5 -143.5 -28.5
c-36.667 0 -70.167 4.33301 -100.5 13s-57.166 21 -80.499 37l-73 -86l-76 68l76 90c-20.667 29.333 -36 62 -46 98s-15 74 -15 114c0 47.333 7.16699 91.833 21.5 133.5s35.166 78 62.499 109s61 55.5 101 73.5s85.667 27 137 27zM367.001 86
c36.667 0 67.8311 6.16797 93.498 18.501s46.834 29.333 63.501 51s28.834 47.167 36.501 76.5s11.5 60.666 11.5 93.999c0 54 -9 100 -27 138l-292 -345c30 -22 68 -33 114 -33zM172.998 332.001c0 -50.667 6.33301 -92.9971 19 -126.997l284 336
c-29.333 17.333 -65 26 -107 26c-35.333 0 -65.5 -5.83301 -90.5 -17.5s-45.333 -27.834 -61 -48.501s-27 -45.334 -34 -74.001s-10.5 -60.334 -10.5 -95.001z" />
    <glyph glyph-name="Ugrave" unicode="&#xd9;" horiz-adv-x="705" 
d="M196 256c0 -60.667 14.001 -104.167 42.001 -130.5s67 -39.5 117 -39.5s89.167 13.167 117.5 39.5s42.5 69.833 42.5 130.5v404h110v-428c0 -32.667 -5.33301 -63.667 -16 -93s-27.167 -55.166 -49.5 -77.499s-51 -40 -86 -53s-76.5 -19.5 -124.5 -19.5
s-89 6.5 -123 19.5s-61.833 30.667 -83.5 53s-37.334 48.166 -47.001 77.499s-14.5 60.333 -14.5 93v428h115v-404zM428.001 698l-186.999 69.002c-4.66699 1.33301 -8 4.66602 -10 9.99902s-3 11.666 -3 18.999c0 11.333 2.66699 22.833 8 34.5s12.666 17.5 21.999 17.5
c2.66699 0 6 -1 10 -3l180 -101l3 -7l-15 -36z" />
    <glyph glyph-name="Uacute" unicode="&#xda;" horiz-adv-x="705" 
d="M196 256c0 -60.667 14.001 -104.167 42.001 -130.5s67 -39.5 117 -39.5s89.167 13.167 117.5 39.5s42.5 69.833 42.5 130.5v404h110v-428c0 -32.667 -5.33301 -63.667 -16 -93s-27.167 -55.166 -49.5 -77.499s-51 -40 -86 -53s-76.5 -19.5 -124.5 -19.5
s-89 6.5 -123 19.5s-61.833 30.667 -83.5 53s-37.334 48.166 -47.001 77.499s-14.5 60.333 -14.5 93v428h115v-404zM272.001 701l-14.999 35.998l3 7l180 101c4 2 7.33301 3 10 3c9.33301 0 16.666 -5.83301 21.999 -17.5s8 -23.167 8 -34.5
c0 -7.33301 -1 -13.666 -3 -18.999s-5.33301 -8.66602 -10 -9.99902l-187 -69z" />
    <glyph glyph-name="Ucircumflex" unicode="&#xdb;" horiz-adv-x="705" 
d="M196 256c0 -60.667 14.001 -104.167 42.001 -130.5s67 -39.5 117 -39.5s89.167 13.167 117.5 39.5s42.5 69.833 42.5 130.5v404h110v-428c0 -32.667 -5.33301 -63.667 -16 -93s-27.167 -55.166 -49.5 -77.499s-51 -40 -86 -53s-76.5 -19.5 -124.5 -19.5
s-89 6.5 -123 19.5s-61.833 30.667 -83.5 53s-37.334 48.166 -47.001 77.499s-14.5 60.333 -14.5 93v428h115v-404zM353.001 842l110 -99l3 -7l-16 -29l-7 -3l-94 41l-94 -41l-7 3l-16 29l3 7l110 99h8z" />
    <glyph glyph-name="Udieresis" unicode="&#xdc;" horiz-adv-x="705" 
d="M196 256c0 -60.667 14.001 -104.167 42.001 -130.5s67 -39.5 117 -39.5s89.167 13.167 117.5 39.5s42.5 69.833 42.5 130.5v404h110v-428c0 -32.667 -5.33301 -63.667 -16 -93s-27.167 -55.166 -49.5 -77.499s-51 -40 -86 -53s-76.5 -19.5 -124.5 -19.5
s-89 6.5 -123 19.5s-61.833 30.667 -83.5 53s-37.334 48.166 -47.001 77.499s-14.5 60.333 -14.5 93v428h115v-404zM239.001 783c0 15.333 5.66699 29 17 41s24.666 18 39.999 18s29 -6 41 -18s18 -25.667 18 -41s-6 -28.666 -18 -39.999s-25.667 -17 -41 -17
s-28.666 5.66699 -39.999 17s-17 24.666 -17 39.999zM375.001 783c0 15.333 5.66699 29 17 41s24.666 18 39.999 18s29 -6 41 -18s18 -25.667 18 -41s-6 -28.666 -18 -39.999s-25.667 -17 -41 -17s-28.666 5.66699 -39.999 17s-17 24.666 -17 39.999z" />
    <glyph glyph-name="Yacute" unicode="&#xdd;" horiz-adv-x="564" 
d="M-12 660h129l169 -299l162 299h127l-235 -389v-271h-115v267zM226 701l-14.999 35.998l3 7l180 101c4 2 7.33301 3 10 3c9.33301 0 16.666 -5.83301 21.999 -17.5s8 -23.167 8 -34.5c0 -7.33301 -1 -13.666 -3 -18.999s-5.33301 -8.66602 -10 -9.99902l-187 -69z" />
    <glyph glyph-name="Thorn" unicode="&#xde;" horiz-adv-x="532" 
d="M203 550l44 0.000976562c37.333 0 71.333 -4.5 102 -13.5s57 -22.5 79 -40.5s39 -40.167 51 -66.5s18 -56.833 18 -91.5c0 -28 -4.66699 -54.333 -14 -79s-23.333 -46.334 -42 -65.001s-42.5 -33.5 -71.5 -44.5s-62.833 -16.5 -101.5 -16.5h-33.5
c-11 0 -21.5 0.333008 -31.5 1v-134h-115v660h115v-110zM263 454.001h-31c-10 0 -19.667 -0.333008 -29 -1v-223c9.33301 -0.666992 19.166 -1 29.499 -1h32.5c36 0 63.167 10 81.5 30s27.5 49 27.5 87c0 32 -8.16699 58 -24.5 78s-45.166 30 -86.499 30z" />
    <glyph glyph-name="germandbls" unicode="&#xdf;" horiz-adv-x="553" 
d="M169 0l-100.005 -0.00195312v486c0 37.333 4.16699 71.333 12.5 102s20.833 57 37.5 79s37.5 39 62.5 51s54.167 18 87.5 18c24.667 0 47 -3.83301 67 -11.5s37 -17.667 51 -30s24.833 -26.666 32.5 -42.999s11.5 -33.166 11.5 -50.499
c0 -22.667 -5.33301 -43.5 -16 -62.5s-22.334 -37 -35.001 -54l-35 -49c-10.667 -15.667 -16 -30.834 -16 -45.501c0 -14 4.83301 -26.167 14.5 -36.5s21.834 -20.5 36.501 -30.5s30.667 -20.333 48 -31s33.333 -23.167 48 -37.5s26.834 -30.833 36.501 -49.5
s14.5 -41 14.5 -67c0 -30 -5.5 -55.5 -16.5 -76.5s-24.5 -38 -40.5 -51s-33.333 -22.5 -52 -28.5s-36 -9 -52 -9c-24 0 -46.167 4.5 -66.5 13.5s-37.166 19.167 -50.499 30.5l29 105c11.333 -19.333 25 -35.333 41 -48s34 -19 54 -19c13.333 0 25 6 35 18s15 30 15 54
c0 23.333 -4.66699 43 -14 59s-21 29.833 -35 41.5s-29.333 22.334 -46 32.001s-32 20 -46 31s-25.667 23.667 -35 38s-14 32.5 -14 54.5c0 23.333 4.83301 44 14.5 62s20.334 35 32.001 51s22.334 32 32.001 48s14.5 33.333 14.5 52c0 16 -5.16699 29.833 -15.5 41.5
s-25.5 17.5 -45.5 17.5c-21.333 0 -38.166 -4.66699 -50.499 -14s-22 -21.833 -29 -37.5s-11.5 -33.667 -13.5 -54s-3 -41.5 -3 -63.5v-486z" />
    <glyph glyph-name="agrave" unicode="&#xe0;" horiz-adv-x="501" 
d="M349 0l-8.00098 63.001h-4c-18 -22.667 -42.5 -40.834 -73.5 -54.501s-62.5 -20.5 -94.5 -20.5c-42 0 -75 12.167 -99 36.5s-36 56.5 -36 96.5c0 27.333 5.83301 51.833 17.5 73.5s28.5 40 50.5 55s48.333 26.5 79 34.5s65 12 103 12h43v15c0 26 -8.33301 45 -25 57
c-17.333 12 -44.333 18 -81 18c-49.333 0 -93.333 -11 -132 -33l-21 83c44.667 26 98.667 39 162 39c66.667 0 117.334 -13.667 152.001 -41c16 -12.667 29.167 -29 39.5 -49s15.5 -44 15.5 -72v-313h-88zM211.999 77.001c21.333 0 42.667 5.16797 64 15.501
s38.333 24.166 51 41.499v91h-19c-54.667 0 -94.5 -7 -119.5 -21s-37.5 -36.333 -37.5 -67c0 -40 20.333 -60 61 -60zM305 531.002l-186.999 69.002c-4.66699 1.33301 -8 4.66602 -10 9.99902s-3 11.666 -3 18.999c0 11.333 2.66699 22.833 8 34.5s12.666 17.5 21.999 17.5
c2.66699 0 6 -1 10 -3l180 -101l3 -7l-15 -36z" />
    <glyph glyph-name="aacute" unicode="&#xe1;" horiz-adv-x="501" 
d="M349 0l-8.00098 63.001h-4c-18 -22.667 -42.5 -40.834 -73.5 -54.501s-62.5 -20.5 -94.5 -20.5c-42 0 -75 12.167 -99 36.5s-36 56.5 -36 96.5c0 27.333 5.83301 51.833 17.5 73.5s28.5 40 50.5 55s48.333 26.5 79 34.5s65 12 103 12h43v15c0 26 -8.33301 45 -25 57
c-17.333 12 -44.333 18 -81 18c-49.333 0 -93.333 -11 -132 -33l-21 83c44.667 26 98.667 39 162 39c66.667 0 117.334 -13.667 152.001 -41c16 -12.667 29.167 -29 39.5 -49s15.5 -44 15.5 -72v-313h-88zM211.999 77.001c21.333 0 42.667 5.16797 64 15.501
s38.333 24.166 51 41.499v91h-19c-54.667 0 -94.5 -7 -119.5 -21s-37.5 -36.333 -37.5 -67c0 -40 20.333 -60 61 -60zM194 535.002l-14.999 35.998l3 7l180 101c4 2 7.33301 3 10 3c9.33301 0 16.666 -5.83301 21.999 -17.5s8 -23.167 8 -34.5
c0 -7.33301 -1 -13.666 -3 -18.999s-5.33301 -8.66602 -10 -9.99902l-187 -69z" />
    <glyph glyph-name="acircumflex" unicode="&#xe2;" horiz-adv-x="501" 
d="M349 0l-8.00098 63.001h-4c-18 -22.667 -42.5 -40.834 -73.5 -54.501s-62.5 -20.5 -94.5 -20.5c-42 0 -75 12.167 -99 36.5s-36 56.5 -36 96.5c0 27.333 5.83301 51.833 17.5 73.5s28.5 40 50.5 55s48.333 26.5 79 34.5s65 12 103 12h43v15c0 26 -8.33301 45 -25 57
c-17.333 12 -44.333 18 -81 18c-49.333 0 -93.333 -11 -132 -33l-21 83c44.667 26 98.667 39 162 39c66.667 0 117.334 -13.667 152.001 -41c16 -12.667 29.167 -29 39.5 -49s15.5 -44 15.5 -72v-313h-88zM211.999 77.001c21.333 0 42.667 5.16797 64 15.501
s38.333 24.166 51 41.499v91h-19c-54.667 0 -94.5 -7 -119.5 -21s-37.5 -36.333 -37.5 -67c0 -40 20.333 -60 61 -60zM246 673.002l110 -99l3 -7l-16 -29l-7 -3l-94 41l-94 -41l-7 3l-16 29l3 7l110 99h8z" />
    <glyph glyph-name="atilde" unicode="&#xe3;" horiz-adv-x="501" 
d="M349 0l-8.00098 63.001h-4c-18 -22.667 -42.5 -40.834 -73.5 -54.501s-62.5 -20.5 -94.5 -20.5c-42 0 -75 12.167 -99 36.5s-36 56.5 -36 96.5c0 27.333 5.83301 51.833 17.5 73.5s28.5 40 50.5 55s48.333 26.5 79 34.5s65 12 103 12h43v15c0 26 -8.33301 45 -25 57
c-17.333 12 -44.333 18 -81 18c-49.333 0 -93.333 -11 -132 -33l-21 83c44.667 26 98.667 39 162 39c66.667 0 117.334 -13.667 152.001 -41c16 -12.667 29.167 -29 39.5 -49s15.5 -44 15.5 -72v-313h-88zM211.999 77.001c21.333 0 42.667 5.16797 64 15.501
s38.333 24.166 51 41.499v91h-19c-54.667 0 -94.5 -7 -119.5 -21s-37.5 -36.333 -37.5 -67c0 -40 20.333 -60 61 -60zM405 658.002c-2 -10.667 -5.16797 -21.499 -9.50098 -32.499s-10 -20.833 -17 -29.5s-15.667 -15.834 -26 -21.501s-22.833 -8.5 -37.5 -8.5
c-8 0 -17.167 0.666992 -27.5 2s-21.5 3 -33.5 5s-24.167 3.66699 -36.5 5s-24.166 2 -35.499 2c-15.333 0 -29.333 -1.83301 -42 -5.5s-23.667 -10.167 -33 -19.5l-13 23c4 12 8.16699 23.5 12.5 34.5s10.166 20.667 17.499 29s16.333 15 27 20s24.334 7.5 41.001 7.5
c19.333 0 40.5 -2.33301 63.5 -7s43.5 -7 61.5 -7c12 0 24.333 1.83301 37 5.5s25.667 10.5 39 20.5z" />
    <glyph glyph-name="adieresis" unicode="&#xe4;" horiz-adv-x="501" 
d="M349 0l-8.00098 63.001h-4c-18 -22.667 -42.5 -40.834 -73.5 -54.501s-62.5 -20.5 -94.5 -20.5c-42 0 -75 12.167 -99 36.5s-36 56.5 -36 96.5c0 27.333 5.83301 51.833 17.5 73.5s28.5 40 50.5 55s48.333 26.5 79 34.5s65 12 103 12h43v15c0 26 -8.33301 45 -25 57
c-17.333 12 -44.333 18 -81 18c-49.333 0 -93.333 -11 -132 -33l-21 83c44.667 26 98.667 39 162 39c66.667 0 117.334 -13.667 152.001 -41c16 -12.667 29.167 -29 39.5 -49s15.5 -44 15.5 -72v-313h-88zM211.999 77.001c21.333 0 42.667 5.16797 64 15.501
s38.333 24.166 51 41.499v91h-19c-54.667 0 -94.5 -7 -119.5 -21s-37.5 -36.333 -37.5 -67c0 -40 20.333 -60 61 -60zM126 612.002c0 15.333 5.66699 29 17 41s24.666 18 39.999 18s29 -6 41 -18s18 -25.667 18 -41s-6 -28.666 -18 -39.999s-25.667 -17 -41 -17
s-28.666 5.66699 -39.999 17s-17 24.666 -17 39.999zM262 612.002c0 15.333 5.66699 29 17 41s24.666 18 39.999 18s29 -6 41 -18s18 -25.667 18 -41s-6 -28.666 -18 -39.999s-25.667 -17 -41 -17s-28.666 5.66699 -39.999 17s-17 24.666 -17 39.999z" />
    <glyph glyph-name="aring" unicode="&#xe5;" horiz-adv-x="501" 
d="M256 693c14.667 0 27.6689 -2.50098 39.002 -7.50098s21 -11.5 29 -19.5s14.167 -17 18.5 -27s6.5 -20.333 6.5 -31c0 -20 -7.83301 -38.333 -23.5 -55s-38.5 -25 -68.5 -25c-16 0 -29.833 2.5 -41.5 7.5s-21.334 11.333 -29.001 19s-13.334 16.334 -17.001 26.001
s-5.5 19.5 -5.5 29.5c0 21.333 8.16699 40.5 24.5 57.5s38.833 25.5 67.5 25.5zM257.002 571.999c10.667 0 18.998 3.83105 24.998 11.498s9 15.834 9 24.501c0 9.33301 -3.16699 18.5 -9.5 27.5s-15.166 13.5 -26.499 13.5s-19.833 -4 -25.5 -12s-8.5 -16.667 -8.5 -26
s3.33301 -18.166 10 -26.499s15.334 -12.5 26.001 -12.5zM349 -0.00292969l-8.00098 63.001h-4c-18 -22.667 -42.5 -40.834 -73.5 -54.501s-62.5 -20.5 -94.5 -20.5c-42 0 -75 12.167 -99 36.5s-36 56.5 -36 96.5c0 27.333 5.83301 51.833 17.5 73.5s28.5 40 50.5 55
s48.333 26.5 79 34.5s65 12 103 12h43v15c0 26 -8.33301 45 -25 57c-17.333 12 -44.333 18 -81 18c-49.333 0 -93.333 -11 -132 -33l-21 83c44.667 26 98.667 39 162 39c66.667 0 117.334 -13.667 152.001 -41c16 -12.667 29.167 -29 39.5 -49s15.5 -44 15.5 -72v-313h-88z
M211.999 76.998c21.333 0 42.667 5.16797 64 15.501s38.333 24.166 51 41.499v91h-19c-54.667 0 -94.5 -7 -119.5 -21s-37.5 -36.333 -37.5 -67c0 -40 20.333 -60 61 -60z" />
    <glyph glyph-name="ae" unicode="&#xe6;" horiz-adv-x="802" 
d="M575 475c58.667 0 103.997 -14.8359 135.997 -44.5029s48 -71.5 48 -125.5c0 -7.33301 -0.5 -15.166 -1.5 -23.499s-2.33301 -16.5 -4 -24.5s-3.66699 -15.167 -6 -21.5s-4.83301 -11.5 -7.5 -15.5h-291c1.33301 -20 5 -38.833 11 -56.5s14.667 -33 26 -46
s25.166 -23.333 41.499 -31s35.5 -11.5 57.5 -11.5c24.667 0 50.834 4.66699 78.501 14s51.167 21 70.5 35l18 -82c-8.66699 -5.33301 -19.334 -11.166 -32.001 -17.499s-27 -12.166 -43 -17.499s-33.167 -9.83301 -51.5 -13.5s-37.5 -5.5 -57.5 -5.5
c-41.333 0 -77.166 7.83301 -107.499 23.5s-55.166 36.5 -74.499 62.5c-28 -32 -60.5 -54.333 -97.5 -67s-75.5 -19 -115.5 -19c-23.333 0 -43.666 3.33301 -60.999 10s-31.666 16 -42.999 28s-20 26.167 -26 42.5s-9 33.833 -9 52.5c0 38 9 68.5 27 91.5s40 40.667 66 53
s53.5 20.5 82.5 24.5s54.167 6 75.5 6h42v9c0 18 -2.66699 31.833 -8 41.5s-13 17.834 -23 24.501c-8.66699 5.33301 -17.834 9.16602 -27.501 11.499s-22.167 3.5 -37.5 3.5c-29.333 0 -55 -3 -77 -9s-43.667 -14 -65 -24l-21 83c48 26 104.333 39 169 39
c14.667 0 29.834 -1 45.501 -3s31 -5.5 46 -10.5s29.167 -11.667 42.5 -20s25 -18.833 35 -31.5c20 20 44.167 35.833 72.5 47.5s60.5 17.5 96.5 17.5zM211.997 76.9971c19.333 0 39.999 4.83301 61.999 14.5s39.667 23.834 53 42.501v93h-7c-19.333 0 -39 -1 -59 -3
s-38.167 -6.33301 -54.5 -13s-29.666 -16.334 -39.999 -29.001s-15.5 -30 -15.5 -52c0 -17.333 5.5 -30.5 16.5 -39.5s25.833 -13.5 44.5 -13.5zM571.996 388.997c-30 0 -54.499 -8.5 -73.499 -25.5s-32.5 -38.833 -40.5 -65.5h191c0.666992 3.33301 1 6.33301 1 9v9
c0 24 -7.83301 42.167 -23.5 54.5s-33.834 18.5 -54.501 18.5z" />
    <glyph glyph-name="ccedilla" unicode="&#xe7;" horiz-adv-x="490" 
d="M425 346c-7.33301 5.33301 -16.5 10.6689 -27.5 16.002s-22.833 10 -35.5 14s-25.834 7.16699 -39.501 9.5s-26.5 3.5 -38.5 3.5c-22.667 0 -41.834 -4.16699 -57.501 -12.5s-28.334 -19.333 -38.001 -33s-16.667 -29.5 -21 -47.5s-6.5 -36.667 -6.5 -56
c0 -22.667 2.66699 -43.834 8 -63.501s13.333 -36.834 24 -51.501s24.167 -26.334 40.5 -35.001s35.166 -13 56.499 -13c24 0 49.5 4.83301 76.5 14.5s49.5 23.167 67.5 40.5l20 -94c-17.333 -11.333 -40 -21.833 -68 -31.5s-58.333 -15.5 -91 -17.5l-18 -30
c10 2.66699 19.667 4 29 4c23.333 0 42.333 -7.83301 57 -23.5s22 -35.167 22 -58.5c0 -13.333 -3.16699 -25.833 -9.5 -37.5s-15 -22.167 -26 -31.5s-24.167 -16.666 -39.5 -21.999s-32 -8 -50 -8c-17.333 0 -34.166 1.83301 -50.499 5.5s-31.166 8.16699 -44.499 13.5
l-1 6l28 48h7c7.33301 -3.33301 16.833 -6.16602 28.5 -8.49902s23.167 -3.5 34.5 -3.5s21.5 2.16699 30.5 6.5s13.5 12.166 13.5 23.499c0 12 -4.16699 20.167 -12.5 24.5s-18.166 6.5 -29.499 6.5c-8 0 -16.167 -0.666992 -24.5 -2s-16.166 -3 -23.499 -5l-19 26l44 67
c-33.333 4 -62.333 13.167 -87 27.5s-45.334 32.333 -62.001 54s-29 46.5 -37 74.5s-12 57.333 -12 88c0 32 4.5 62.5 13.5 91.5s23.167 54.667 42.5 77s44 40 74 53s66 19.5 108 19.5c32 0 63.333 -3.66699 94 -11s55.334 -17 74.001 -29z" />
    <glyph glyph-name="egrave" unicode="&#xe8;" horiz-adv-x="505" 
d="M278 475c58.667 0 104.001 -14.8369 136.001 -44.5039s48 -71.5 48 -125.5c0 -7.33301 -0.5 -15.166 -1.5 -23.499s-2.33301 -16.5 -4 -24.5s-3.66699 -15.167 -6 -21.5s-4.83301 -11.5 -7.5 -15.5h-291c1.33301 -20 5 -38.833 11 -56.5s14.667 -33 26 -46
s25.166 -23.333 41.499 -31s35.5 -11.5 57.5 -11.5c24.667 0 50.834 4.66699 78.501 14s51.167 21 70.5 35l18 -82c-8.66699 -5.33301 -19.334 -11.166 -32.001 -17.499s-27 -12.166 -43 -17.499s-33.167 -9.83301 -51.5 -13.5s-37.5 -5.5 -57.5 -5.5
c-37.333 0 -70.333 6.5 -99 19.5s-52.667 30.667 -72 53s-34 48.166 -44 77.499s-15 60 -15 92c0 32.667 5.16699 63.834 15.5 93.501s25.5 55.834 45.5 78.501s44.833 40.5 74.5 53.5s63.5 19.5 101.5 19.5zM330.001 530.996l-186.999 69.002
c-4.66699 1.33301 -8 4.66602 -10 9.99902s-3 11.666 -3 18.999c0 11.333 2.66699 22.833 8 34.5s12.666 17.5 21.999 17.5c2.66699 0 6 -1 10 -3l180 -101l3 -7l-15 -36zM275.002 388.998c-30 0 -54.499 -8.5 -73.499 -25.5s-32.5 -38.833 -40.5 -65.5h191
c0.666992 3.33301 1 6.33301 1 9v9c0 24 -7.83301 42.167 -23.5 54.5s-33.834 18.5 -54.501 18.5z" />
    <glyph glyph-name="eacute" unicode="&#xe9;" horiz-adv-x="505" 
d="M278 475c58.667 0 104.001 -14.8369 136.001 -44.5039s48 -71.5 48 -125.5c0 -7.33301 -0.5 -15.166 -1.5 -23.499s-2.33301 -16.5 -4 -24.5s-3.66699 -15.167 -6 -21.5s-4.83301 -11.5 -7.5 -15.5h-291c1.33301 -20 5 -38.833 11 -56.5s14.667 -33 26 -46
s25.166 -23.333 41.499 -31s35.5 -11.5 57.5 -11.5c24.667 0 50.834 4.66699 78.501 14s51.167 21 70.5 35l18 -82c-8.66699 -5.33301 -19.334 -11.166 -32.001 -17.499s-27 -12.166 -43 -17.499s-33.167 -9.83301 -51.5 -13.5s-37.5 -5.5 -57.5 -5.5
c-37.333 0 -70.333 6.5 -99 19.5s-52.667 30.667 -72 53s-34 48.166 -44 77.499s-15 60 -15 92c0 32.667 5.16699 63.834 15.5 93.501s25.5 55.834 45.5 78.501s44.833 40.5 74.5 53.5s63.5 19.5 101.5 19.5zM200.001 534.996l-14.999 35.998l3 7l180 101
c4 2 7.33301 3 10 3c9.33301 0 16.666 -6 21.999 -18s8 -23.333 8 -34c0 -7.33301 -1 -13.666 -3 -18.999s-5.33301 -8.66602 -10 -9.99902l-187 -69zM275.002 388.994c-30 0 -54.499 -8.5 -73.499 -25.5s-32.5 -38.833 -40.5 -65.5h191c0.666992 3.33301 1 6.33301 1 9v9
c0 24 -7.83301 42.167 -23.5 54.5s-33.834 18.5 -54.501 18.5z" />
    <glyph glyph-name="ecircumflex" unicode="&#xea;" horiz-adv-x="505" 
d="M278 475c58.667 0 104.001 -14.8369 136.001 -44.5039s48 -71.5 48 -125.5c0 -7.33301 -0.5 -15.166 -1.5 -23.499s-2.33301 -16.5 -4 -24.5s-3.66699 -15.167 -6 -21.5s-4.83301 -11.5 -7.5 -15.5h-291c1.33301 -20 5 -38.833 11 -56.5s14.667 -33 26 -46
s25.166 -23.333 41.499 -31s35.5 -11.5 57.5 -11.5c24.667 0 50.834 4.66699 78.501 14s51.167 21 70.5 35l18 -82c-8.66699 -5.33301 -19.334 -11.166 -32.001 -17.499s-27 -12.166 -43 -17.499s-33.167 -9.83301 -51.5 -13.5s-37.5 -5.5 -57.5 -5.5
c-37.333 0 -70.333 6.5 -99 19.5s-52.667 30.667 -72 53s-34 48.166 -44 77.499s-15 60 -15 92c0 32.667 5.16699 63.834 15.5 93.501s25.5 55.834 45.5 78.501s44.833 40.5 74.5 53.5s63.5 19.5 101.5 19.5zM269.001 672.996l110 -99l3 -7l-16 -29l-7 -3l-94 41l-94 -41
l-7 3l-16 29l3 7l110 99h8zM275.001 388.996c-30 0 -54.499 -8.5 -73.499 -25.5s-32.5 -38.833 -40.5 -65.5h191c0.666992 3.33301 1 6.33301 1 9v9c0 24 -7.83301 42.167 -23.5 54.5s-33.834 18.5 -54.501 18.5z" />
    <glyph glyph-name="edieresis" unicode="&#xeb;" horiz-adv-x="505" 
d="M278 475c58.667 0 104.001 -14.8369 136.001 -44.5039s48 -71.5 48 -125.5c0 -7.33301 -0.5 -15.166 -1.5 -23.499s-2.33301 -16.5 -4 -24.5s-3.66699 -15.167 -6 -21.5s-4.83301 -11.5 -7.5 -15.5h-291c1.33301 -20 5 -38.833 11 -56.5s14.667 -33 26 -46
s25.166 -23.333 41.499 -31s35.5 -11.5 57.5 -11.5c24.667 0 50.834 4.66699 78.501 14s51.167 21 70.5 35l18 -82c-8.66699 -5.33301 -19.334 -11.166 -32.001 -17.499s-27 -12.166 -43 -17.499s-33.167 -9.83301 -51.5 -13.5s-37.5 -5.5 -57.5 -5.5
c-37.333 0 -70.333 6.5 -99 19.5s-52.667 30.667 -72 53s-34 48.166 -44 77.499s-15 60 -15 92c0 32.667 5.16699 63.834 15.5 93.501s25.5 55.834 45.5 78.501s44.833 40.5 74.5 53.5s63.5 19.5 101.5 19.5zM275.001 388.996c-30 0 -54.499 -8.5 -73.499 -25.5
s-32.5 -38.833 -40.5 -65.5h191c0.666992 3.33301 1 6.33301 1 9v9c0 24 -7.83301 42.167 -23.5 54.5s-33.834 18.5 -54.501 18.5zM138.002 611.996c0 15.333 5.66699 29 17 41s24.666 18 39.999 18s29 -6 41 -18s18 -25.667 18 -41s-6 -28.666 -18 -39.999
s-25.667 -17 -41 -17s-28.666 5.66699 -39.999 17s-17 24.666 -17 39.999zM274.002 611.996c0 15.333 5.66699 29 17 41s24.666 18 39.999 18s29 -6 41 -18s18 -25.667 18 -41s-6 -28.666 -18 -39.999s-25.667 -17 -41 -17s-28.666 5.66699 -39.999 17
s-17 24.666 -17 39.999z" />
    <glyph glyph-name="igrave" unicode="&#xec;" horiz-adv-x="248" 
d="M179 0h-110v460h110v-460zM176 531l-186.999 69.002c-4.66699 1.33301 -8 4.66602 -10 9.99902s-3 11.666 -3 18.999c0 11.333 2.66699 22.833 8 34.5s12.666 17.5 21.999 17.5c2.66699 0 6 -1 10 -3l180 -101l3 -7l-15 -36z" />
    <glyph glyph-name="iacute" unicode="&#xed;" horiz-adv-x="248" 
d="M179 0h-110v460h110v-460zM39 535l-14.999 35.998l3 7l180 101c4 2 7.33301 3 10 3c9.33301 0 16.666 -5.83301 21.999 -17.5s8 -23.167 8 -34.5c0 -7.33301 -1 -13.666 -3 -18.999s-5.33301 -8.66602 -10 -9.99902l-187 -69z" />
    <glyph glyph-name="icircumflex" unicode="&#xee;" horiz-adv-x="248" 
d="M179 0h-110v460h110v-460zM125 673l110 -99l3 -7l-16 -29l-7 -3l-94 41l-94 -41l-7 3l-16 29l3 7l110 99h8z" />
    <glyph glyph-name="idieresis" unicode="&#xef;" horiz-adv-x="248" 
d="M179 0h-110v460h110v-460zM-3 612c0 15.333 5.66699 29 17 41s24.666 18 39.999 18s29 -6 41 -18s18 -25.667 18 -41s-6 -28.666 -18 -39.999s-25.667 -17 -41 -17s-28.666 5.66699 -39.999 17s-17 24.666 -17 39.999zM133 612c0 15.333 5.66699 29 17 41
s24.666 18 39.999 18s29 -6 41 -18s18 -25.667 18 -41s-6 -28.666 -18 -39.999s-25.667 -17 -41 -17s-28.666 5.66699 -39.999 17s-17 24.666 -17 39.999z" />
    <glyph glyph-name="eth" unicode="&#xf0;" horiz-adv-x="560" 
d="M201 607l97.0029 25.001c-17.333 23.333 -35.833 44.333 -55.5 63s-39.167 33.667 -58.5 45h147c12 -11.333 23.833 -23.833 35.5 -37.5s22.834 -28.167 33.501 -43.5l123 33l21 -68l-106 -27c22 -42 39.833 -88.833 53.5 -140.5s20.5 -107.167 20.5 -166.5
c0 -40.667 -3.83301 -79.167 -11.5 -115.5s-20.5 -68.333 -38.5 -96s-42 -49.667 -72 -66s-67.667 -24.5 -113 -24.5c-42.667 0 -78.834 7 -108.501 21s-53.834 32.5 -72.501 55.5s-32.334 49.167 -41.001 78.5s-13 59 -13 89c0 32.667 4.66699 63.667 14 93
s23.333 55.166 42 77.499s41.667 40 69 53s58.666 19.5 93.999 19.5c34 0 62.333 -5.83301 85 -17.5s40 -27.5 52 -47.5l3 1c-3.33301 23.333 -10.5 48.833 -21.5 76.5s-24.833 55.5 -41.5 83.5l-116 -29zM276.003 71.001c19.333 0 36.1709 4.16797 50.5039 12.501
s26.166 19.666 35.499 33.999s16.166 30.833 20.499 49.5s6.5 38.334 6.5 59.001c0 21.333 -2.33301 41.833 -7 61.5s-11.834 37 -21.501 52s-21.834 27 -36.501 36s-32.334 13.5 -53.001 13.5c-19.333 0 -36 -4.16699 -50 -12.5s-25.5 -19.5 -34.5 -33.5
s-15.667 -30.333 -20 -49s-6.5 -38.334 -6.5 -59.001c0 -21.333 2.16699 -41.833 6.5 -61.5s11.333 -37.167 21 -52.5s21.834 -27.5 36.501 -36.5s32 -13.5 52 -13.5z" />
    <glyph glyph-name="ntilde" unicode="&#xf1;" horiz-adv-x="547" 
d="M425 658c-2 -10.667 -5.16797 -21.499 -9.50098 -32.499s-10 -20.833 -17 -29.5s-15.667 -15.834 -26 -21.501s-22.833 -8.5 -37.5 -8.5c-8 0 -17.167 0.666992 -27.5 2s-21.5 3 -33.5 5s-24.167 3.66699 -36.5 5s-24.166 2 -35.499 2
c-15.333 0 -29.333 -1.83301 -42 -5.5s-23.667 -10.167 -33 -19.5l-13 23c4 12 8.16699 23.5 12.5 34.5s10.166 20.667 17.499 29s16.333 15 27 20s24.334 7.5 41.001 7.5c19.333 0 40.5 -2.33301 63.5 -7s43.5 -7 61.5 -7c12 0 24.333 1.83301 37 5.5s25.667 10.5 39 20.5z
M376.999 0.000976562l0.000976562 304.002c0 54.667 -23.333 82 -70 82c-11.333 0 -23.5 -2 -36.5 -6s-25.5 -9.83301 -37.5 -17.5s-22.833 -17.167 -32.5 -28.5s-16.834 -24.333 -21.501 -39v-295h-110v460h86l5 -68h4c14 28 35.833 48.833 65.5 62.5s61.5 20.5 95.5 20.5
c22 0 42.667 -2.83301 62 -8.5s36.5 -14.834 51.5 -27.501s26.833 -29.334 35.5 -50.001s13 -46 13 -76v-313h-110z" />
    <glyph glyph-name="ograve" unicode="&#xf2;" horiz-adv-x="549" 
d="M274 475c40.667 0 75.666 -6.82812 104.999 -20.4951s53.5 -32 72.5 -55s33 -49.333 42 -79s13.5 -60.834 13.5 -93.501s-4.5 -63.5 -13.5 -92.5s-23 -54.333 -42 -76s-43 -38.834 -72 -51.501s-63.167 -19 -102.5 -19c-40.667 0 -75.667 6.66699 -105 20
s-53.666 31.166 -72.999 53.499s-33.666 48.166 -42.999 77.499s-14 60.333 -14 93s4.66699 63.667 14 93s23.5 55.166 42.5 77.499s43.167 40 72.5 53s63.666 19.5 102.999 19.5zM275.999 71.0049c19.333 0 36.1709 4.16797 50.5039 12.501s26.166 19.666 35.499 33.999
s16.166 30.833 20.499 49.5s6.5 38.334 6.5 59.001c0 21.333 -2.33301 41.833 -7 61.5s-11.834 37 -21.501 52s-21.834 27 -36.501 36s-32.334 13.5 -53.001 13.5c-19.333 0 -36 -4.16699 -50 -12.5s-25.5 -19.5 -34.5 -33.5s-15.667 -30.333 -20 -49
s-6.5 -38.334 -6.5 -59.001c0 -21.333 2.16699 -41.833 6.5 -61.5s11.333 -37.167 21 -52.5s21.834 -27.5 36.501 -36.5s32 -13.5 52 -13.5zM329.004 531.006l-186.999 69.002c-4.66699 1.33301 -8 4.66602 -10 9.99902s-3 11.666 -3 18.999c0 11.333 2.66699 22.833 8 34.5
s12.666 17.5 21.999 17.5c2.66699 0 6 -1 10 -3l180 -101l3 -7l-15 -36z" />
    <glyph glyph-name="oacute" unicode="&#xf3;" horiz-adv-x="549" 
d="M274 475c40.667 0 75.666 -6.82812 104.999 -20.4951s53.5 -32 72.5 -55s33 -49.333 42 -79s13.5 -60.834 13.5 -93.501s-4.5 -63.5 -13.5 -92.5s-23 -54.333 -42 -76s-43 -38.834 -72 -51.501s-63.167 -19 -102.5 -19c-40.667 0 -75.667 6.66699 -105 20
s-53.666 31.166 -72.999 53.499s-33.666 48.166 -42.999 77.499s-14 60.333 -14 93s4.66699 63.667 14 93s23.5 55.166 42.5 77.499s43.167 40 72.5 53s63.666 19.5 102.999 19.5zM275.999 71.0049c19.333 0 36.1709 4.16797 50.5039 12.501s26.166 19.666 35.499 33.999
s16.166 30.833 20.499 49.5s6.5 38.334 6.5 59.001c0 21.333 -2.33301 41.833 -7 61.5s-11.834 37 -21.501 52s-21.834 27 -36.501 36s-32.334 13.5 -53.001 13.5c-19.333 0 -36 -4.16699 -50 -12.5s-25.5 -19.5 -34.5 -33.5s-15.667 -30.333 -20 -49
s-6.5 -38.334 -6.5 -59.001c0 -21.333 2.16699 -41.833 6.5 -61.5s11.333 -37.167 21 -52.5s21.834 -27.5 36.501 -36.5s32 -13.5 52 -13.5zM207.004 535.006l-14.999 35.998l3 7l180 101c4 2 7.33301 3 10 3c9.33301 0 16.666 -5.83301 21.999 -17.5s8 -23.167 8 -34.5
c0 -7.33301 -1 -13.666 -3 -18.999s-5.33301 -8.66602 -10 -9.99902l-187 -69z" />
    <glyph glyph-name="ocircumflex" unicode="&#xf4;" horiz-adv-x="549" 
d="M274 475c40.667 0 75.666 -6.82812 104.999 -20.4951s53.5 -32 72.5 -55s33 -49.333 42 -79s13.5 -60.834 13.5 -93.501s-4.5 -63.5 -13.5 -92.5s-23 -54.333 -42 -76s-43 -38.834 -72 -51.501s-63.167 -19 -102.5 -19c-40.667 0 -75.667 6.66699 -105 20
s-53.666 31.166 -72.999 53.499s-33.666 48.166 -42.999 77.499s-14 60.333 -14 93s4.66699 63.667 14 93s23.5 55.166 42.5 77.499s43.167 40 72.5 53s63.666 19.5 102.999 19.5zM275.999 71.0049c19.333 0 36.1709 4.16797 50.5039 12.501s26.166 19.666 35.499 33.999
s16.166 30.833 20.499 49.5s6.5 38.334 6.5 59.001c0 21.333 -2.33301 41.833 -7 61.5s-11.834 37 -21.501 52s-21.834 27 -36.501 36s-32.334 13.5 -53.001 13.5c-19.333 0 -36 -4.16699 -50 -12.5s-25.5 -19.5 -34.5 -33.5s-15.667 -30.333 -20 -49
s-6.5 -38.334 -6.5 -59.001c0 -21.333 2.16699 -41.833 6.5 -61.5s11.333 -37.167 21 -52.5s21.834 -27.5 36.501 -36.5s32 -13.5 52 -13.5zM287.004 673.006l110 -99l3 -7l-16 -29l-7 -3l-94 41l-94 -41l-7 3l-16 29l3 7l110 99h8z" />
    <glyph glyph-name="otilde" unicode="&#xf5;" horiz-adv-x="549" 
d="M274 475c40.667 0 75.666 -6.82812 104.999 -20.4951s53.5 -32 72.5 -55s33 -49.333 42 -79s13.5 -60.834 13.5 -93.501s-4.5 -63.5 -13.5 -92.5s-23 -54.333 -42 -76s-43 -38.834 -72 -51.501s-63.167 -19 -102.5 -19c-40.667 0 -75.667 6.66699 -105 20
s-53.666 31.166 -72.999 53.499s-33.666 48.166 -42.999 77.499s-14 60.333 -14 93s4.66699 63.667 14 93s23.5 55.166 42.5 77.499s43.167 40 72.5 53s63.666 19.5 102.999 19.5zM275.999 71.0049c19.333 0 36.1709 4.16797 50.5039 12.501s26.166 19.666 35.499 33.999
s16.166 30.833 20.499 49.5s6.5 38.334 6.5 59.001c0 21.333 -2.33301 41.833 -7 61.5s-11.834 37 -21.501 52s-21.834 27 -36.501 36s-32.334 13.5 -53.001 13.5c-19.333 0 -36 -4.16699 -50 -12.5s-25.5 -19.5 -34.5 -33.5s-15.667 -30.333 -20 -49
s-6.5 -38.334 -6.5 -59.001c0 -21.333 2.16699 -41.833 6.5 -61.5s11.333 -37.167 21 -52.5s21.834 -27.5 36.501 -36.5s32 -13.5 52 -13.5zM420.004 658.006c-2 -10.667 -5.16797 -21.499 -9.50098 -32.499s-10 -20.833 -17 -29.5s-15.667 -15.834 -26 -21.501
s-22.833 -8.5 -37.5 -8.5c-8 0 -17.167 0.666992 -27.5 2s-21.5 3 -33.5 5s-24.167 3.66699 -36.5 5s-24.166 2 -35.499 2c-15.333 0 -29.333 -1.83301 -42 -5.5s-23.667 -10.167 -33 -19.5l-13 23c4 12 8.16699 23.5 12.5 34.5s10.166 20.667 17.499 29s16.333 15 27 20
s24.334 7.5 41.001 7.5c19.333 0 40.5 -2.33301 63.5 -7s43.5 -7 61.5 -7c12 0 24.333 1.83301 37 5.5s25.667 10.5 39 20.5z" />
    <glyph glyph-name="odieresis" unicode="&#xf6;" horiz-adv-x="549" 
d="M274 475c40.667 0 75.666 -6.82812 104.999 -20.4951s53.5 -32 72.5 -55s33 -49.333 42 -79s13.5 -60.834 13.5 -93.501s-4.5 -63.5 -13.5 -92.5s-23 -54.333 -42 -76s-43 -38.834 -72 -51.501s-63.167 -19 -102.5 -19c-40.667 0 -75.667 6.66699 -105 20
s-53.666 31.166 -72.999 53.499s-33.666 48.166 -42.999 77.499s-14 60.333 -14 93s4.66699 63.667 14 93s23.5 55.166 42.5 77.499s43.167 40 72.5 53s63.666 19.5 102.999 19.5zM275.999 71.0049c19.333 0 36.1709 4.16797 50.5039 12.501s26.166 19.666 35.499 33.999
s16.166 30.833 20.499 49.5s6.5 38.334 6.5 59.001c0 21.333 -2.33301 41.833 -7 61.5s-11.834 37 -21.501 52s-21.834 27 -36.501 36s-32.334 13.5 -53.001 13.5c-19.333 0 -36 -4.16699 -50 -12.5s-25.5 -19.5 -34.5 -33.5s-15.667 -30.333 -20 -49
s-6.5 -38.334 -6.5 -59.001c0 -21.333 2.16699 -41.833 6.5 -61.5s11.333 -37.167 21 -52.5s21.834 -27.5 36.501 -36.5s32 -13.5 52 -13.5zM150.004 612.006c0 15.333 5.66699 29 17 41s24.666 18 39.999 18s29 -6 41 -18s18 -25.667 18 -41s-6 -28.666 -18 -39.999
s-25.667 -17 -41 -17s-28.666 5.66699 -39.999 17s-17 24.666 -17 39.999zM286.004 612.006c0 15.333 5.66699 29 17 41s24.666 18 39.999 18s29 -6 41 -18s18 -25.667 18 -41s-6 -28.666 -18 -39.999s-25.667 -17 -41 -17s-28.666 5.66699 -39.999 17
s-17 24.666 -17 39.999z" />
    <glyph glyph-name="divide" unicode="&#xf7;" horiz-adv-x="513" 
d="M464 280v-82h-414v82h414zM196 64c0 9.33301 1.83203 18.334 5.49902 27.001s8.83398 16.5 15.501 23.5s14.167 12.5 22.5 16.5s17.5 6 27.5 6c9.33301 0 18.333 -2 27 -6s16.5 -9.5 23.5 -16.5s12.5 -14.833 16.5 -23.5s6 -17.667 6 -27c0 -10 -2 -19.167 -6 -27.5
s-9.5 -15.833 -16.5 -22.5s-14.833 -11.834 -23.5 -15.501s-17.667 -5.5 -27 -5.5c-19.333 0 -36 7 -50 21s-21 30.667 -21 50zM195.999 412.001c0 9.33301 1.83203 18.334 5.49902 27.001s8.83398 16.5 15.501 23.5s14.167 12.5 22.5 16.5s17.5 6 27.5 6
c9.33301 0 18.333 -2 27 -6s16.5 -9.5 23.5 -16.5s12.5 -14.833 16.5 -23.5s6 -17.667 6 -27c0 -10 -2 -19.167 -6 -27.5s-9.5 -15.833 -16.5 -22.5s-14.833 -11.834 -23.5 -15.501s-17.667 -5.5 -27 -5.5c-19.333 0 -36 7 -50 21s-21 30.667 -21 50z" />
    <glyph glyph-name="oslash" unicode="&#xf8;" horiz-adv-x="550" 
d="M517 453l-57.001 -64.998c16 -22.667 27.833 -47.667 35.5 -75s11.5 -56 11.5 -86c0 -32.667 -4.5 -63.5 -13.5 -92.5s-23 -54.333 -42 -76s-43 -38.834 -72 -51.501s-63.167 -19 -102.5 -19c-28 0 -53.167 3.16699 -75.5 9.5s-42.166 15.166 -59.499 26.499l-54 -62
l-56 50l55 63c-15.333 21.333 -26.666 45.333 -33.999 72s-11 55 -11 85c0 32.667 4.66699 63.667 14 93s23.5 55.166 42.5 77.499s43.167 40 72.5 53s63.666 19.5 102.999 19.5c27.333 0 52 -3.16699 74 -9.5s41.667 -15.166 59 -26.499l51 58zM275.999 71.002
c19.333 0 36.1689 4.16699 50.502 12.5s26.166 19.666 35.499 33.999s16.166 30.833 20.499 49.5s6.5 38.334 6.5 59.001c0 28 -4 54 -12 78l-176 -201c19.333 -21.333 44.333 -32 75 -32zM160.002 235.002c0 -28.667 3.33301 -53.999 10 -75.999l176 199
c-9.33301 9.33301 -20.333 16.833 -33 22.5s-26.667 8.5 -42 8.5c-19.333 0 -36 -4.16699 -50 -12.5s-25.5 -19.5 -34.5 -33.5s-15.667 -30.333 -20 -49s-6.5 -38.334 -6.5 -59.001z" />
    <glyph glyph-name="ugrave" unicode="&#xf9;" 
d="M175 460l0.000976562 -298.998c0 -27.333 7.16699 -48.166 21.5 -62.499s32.833 -21.5 55.5 -21.5c23.333 0 44.666 7.83301 63.999 23.5s33.666 38.167 42.999 67.5v292h111v-460h-86l-6 64h-4c-7.33301 -15.333 -16.666 -27.833 -27.999 -37.5
s-23.833 -17.334 -37.5 -23.001s-27.834 -9.66699 -42.501 -12s-29 -3.5 -43 -3.5c-22 0 -42.5 2.66699 -61.5 8s-35.667 14.166 -50 26.499s-25.666 28.666 -33.999 48.999s-12.5 45.5 -12.5 75.5v313h110zM323.001 531.002l-186.999 69.002
c-4.66699 1.33301 -8 4.66602 -10 9.99902s-3 11.666 -3 18.999c0 11.333 2.66699 22.833 8 34.5s12.666 17.5 21.999 17.5c2.66699 0 6 -1 10 -3l180 -101l3 -7l-15 -36z" />
    <glyph glyph-name="uacute" unicode="&#xfa;" 
d="M175 460l0.000976562 -298.998c0 -27.333 7.16699 -48.166 21.5 -62.499s32.833 -21.5 55.5 -21.5c23.333 0 44.666 7.83301 63.999 23.5s33.666 38.167 42.999 67.5v292h111v-460h-86l-6 64h-4c-7.33301 -15.333 -16.666 -27.833 -27.999 -37.5
s-23.833 -17.334 -37.5 -23.001s-27.834 -9.66699 -42.501 -12s-29 -3.5 -43 -3.5c-22 0 -42.5 2.66699 -61.5 8s-35.667 14.166 -50 26.499s-25.666 28.666 -33.999 48.999s-12.5 45.5 -12.5 75.5v313h110zM175.001 535.002l-14.999 35.998l3 7l180 101c4 2 7.33301 3 10 3
c9.33301 0 16.666 -5.83301 21.999 -17.5s8 -23.167 8 -34.5c0 -7.33301 -1 -13.666 -3 -18.999s-5.33301 -8.66602 -10 -9.99902l-187 -69z" />
    <glyph glyph-name="ucircumflex" unicode="&#xfb;" 
d="M175 460l0.000976562 -298.998c0 -27.333 7.16699 -48.166 21.5 -62.499s32.833 -21.5 55.5 -21.5c23.333 0 44.666 7.83301 63.999 23.5s33.666 38.167 42.999 67.5v292h111v-460h-86l-6 64h-4c-7.33301 -15.333 -16.666 -27.833 -27.999 -37.5
s-23.833 -17.334 -37.5 -23.001s-27.834 -9.66699 -42.501 -12s-29 -3.5 -43 -3.5c-22 0 -42.5 2.66699 -61.5 8s-35.667 14.166 -50 26.499s-25.666 28.666 -33.999 48.999s-12.5 45.5 -12.5 75.5v313h110zM267.001 673.002l110 -99l3 -7l-16 -29l-7 -3l-94 41l-94 -41
l-7 3l-16 29l3 7l110 99h8z" />
    <glyph glyph-name="udieresis" unicode="&#xfc;" 
d="M175 460l0.000976562 -298.998c0 -27.333 7.16699 -48.166 21.5 -62.499s32.833 -21.5 55.5 -21.5c23.333 0 44.666 7.83301 63.999 23.5s33.666 38.167 42.999 67.5v292h111v-460h-86l-6 64h-4c-7.33301 -15.333 -16.666 -27.833 -27.999 -37.5
s-23.833 -17.334 -37.5 -23.001s-27.834 -9.66699 -42.501 -12s-29 -3.5 -43 -3.5c-22 0 -42.5 2.66699 -61.5 8s-35.667 14.166 -50 26.499s-25.666 28.666 -33.999 48.999s-12.5 45.5 -12.5 75.5v313h110zM137.001 612.002c0 15.333 5.66699 29 17 41s24.666 18 39.999 18
s29 -6 41 -18s18 -25.667 18 -41s-6 -28.666 -18 -39.999s-25.667 -17 -41 -17s-28.666 5.66699 -39.999 17s-17 24.666 -17 39.999zM273.001 612.002c0 15.333 5.66699 29 17 41s24.666 18 39.999 18s29 -6 41 -18s18 -25.667 18 -41s-6 -28.666 -18 -39.999
s-25.667 -17 -41 -17s-28.666 5.66699 -39.999 17s-17 24.666 -17 39.999z" />
    <glyph glyph-name="yacute" unicode="&#xfd;" horiz-adv-x="519" 
d="M268 133l127.996 327.004h106l-190 -464c-9.33301 -23.333 -22.166 -49.5 -38.499 -78.5s-35.666 -56.333 -57.999 -82s-47.5 -47.334 -75.5 -65.001s-58.333 -26.5 -91 -26.5c-5.33301 0 -9.33301 0.166992 -12 0.5s-5.66699 1.16602 -9 2.49902l-19 86
c2 -0.666992 4.33301 -1.33398 7 -2.00098s8.33398 -1 17.001 -1c12.667 0 25.167 1.33301 37.5 4s24.833 8 37.5 16c24 15.333 44.833 36.666 62.5 63.999s34.834 61 51.501 101l-229 445h115zM201.996 535.004l-14.999 35.998l3 7l180 101c4 2 7.33301 3 10 3
c9.33301 0 16.666 -5.83301 21.999 -17.5s8 -23.167 8 -34.5c0 -7.33301 -1 -13.666 -3 -18.999s-5.33301 -8.66602 -10 -9.99902l-187 -69z" />
    <glyph glyph-name="thorn" unicode="&#xfe;" horiz-adv-x="575" 
d="M325 475c36 0 66.999 -6.83008 92.999 -20.4971s47.5 -31.834 64.5 -54.501s29.5 -48.834 37.5 -78.501s12 -60.5 12 -92.5c0 -32.667 -4.16699 -63.667 -12.5 -93s-21.166 -55 -38.499 -77s-39 -39.333 -65 -52s-57 -19 -93 -19c-30 0 -57.833 4.33301 -83.5 13
s-46.167 22.667 -61.5 42v-303h-109v1000h106v-333h4c8 9.33301 17.667 18.166 29 26.499s23.5 15.5 36.5 21.5s26.5 10.833 40.5 14.5s27.333 5.5 40 5.5zM306.999 391.003c-10 0 -20.998 -1.49902 -32.998 -4.49902s-23.833 -7.33301 -35.5 -13
s-22.834 -12.5 -33.501 -20.5s-19.667 -17 -27 -27v-195c20 -24.667 40.5 -40.167 61.5 -46.5s40.167 -9.5 57.5 -9.5c22 0 40.833 4 56.5 12s28.667 18.833 39 32.5s18 29.667 23 48s7.5 38.166 7.5 59.499c0 20 -2.16699 39.833 -6.5 59.5s-11.333 37.167 -21 52.5
s-21.834 27.833 -36.501 37.5s-32 14.5 -52 14.5z" />
    <glyph glyph-name="ydieresis" unicode="&#xff;" horiz-adv-x="519" 
d="M268 133l127.996 327.004h106l-190 -464c-9.33301 -23.333 -22.166 -49.5 -38.499 -78.5s-35.666 -56.333 -57.999 -82s-47.5 -47.334 -75.5 -65.001s-58.333 -26.5 -91 -26.5c-5.33301 0 -9.33301 0.166992 -12 0.5s-5.66699 1.16602 -9 2.49902l-19 86
c2 -0.666992 4.33301 -1.33398 7 -2.00098s8.33398 -1 17.001 -1c12.667 0 25.167 1.33301 37.5 4s24.833 8 37.5 16c24 15.333 44.833 36.666 62.5 63.999s34.834 61 51.501 101l-229 445h115zM257.996 612.004c0 15.333 5.66699 29 17 41s24.666 18 39.999 18
s29 -6 41 -18s18 -25.667 18 -41s-6 -28.666 -18 -39.999s-25.667 -17 -41 -17s-28.666 5.66699 -39.999 17s-17 24.666 -17 39.999zM121.996 612.004c0 15.333 5.66699 29 17 41s24.666 18 39.999 18s29 -6 41 -18s18 -25.667 18 -41s-6 -28.666 -18 -39.999
s-25.667 -17 -41 -17s-28.666 5.66699 -39.999 17s-17 24.666 -17 39.999z" />
    <glyph glyph-name="Dcroat" unicode="&#x110;" horiz-adv-x="714" 
d="M94 660c8.66699 0.666992 22.3311 1.33105 40.998 1.99805s38.334 1.16699 59.001 1.5l59.5 1c19 0.333008 33.833 0.5 44.5 0.5c64.667 0 117.834 -6.66699 159.501 -20s76.167 -31.666 103.5 -54.999c35.333 -30.667 61 -69.667 77 -117s24 -99.666 24 -156.999
c0 -43.333 -5.5 -84.833 -16.5 -124.5s-30.667 -74.5 -59 -104.5s-67.333 -53.833 -117 -71.5s-113.167 -26.5 -190.5 -26.5c-28 0 -58 1 -90 3s-63.667 4.66699 -95 8v311h-74v74h74v275zM356.997 384.997l0.000976562 -74h-148v-223
c18.667 -1.33301 36.667 -2.33301 54 -3s32 -1 44 -1c80.667 0 139.5 19.333 176.5 58s55.5 101.667 55.5 189c0 39.333 -3.83301 73.833 -11.5 103.5s-20.834 54.5 -39.501 74.5s-43.667 35 -75 45s-70.333 15 -117 15h-37.5c-15.667 0 -32.167 -0.333008 -49.5 -1v-183
h148z" />
    <glyph glyph-name="dotlessi" unicode="&#x131;" horiz-adv-x="238" 
d="M169 0h-100v460h100v-460z" />
    <glyph glyph-name="IJ" unicode="&#x132;" horiz-adv-x="552" 
d="M203 0h-115v660h115v-660zM465 101c0 -35.333 -3.83594 -68.498 -11.5029 -99.498s-19.5 -58.167 -35.5 -81.5s-36.167 -41.833 -60.5 -55.5s-53.166 -20.5 -86.499 -20.5l-22 87c23.333 0 41.833 5.33301 55.5 16s23.834 24.167 30.501 40.5
s10.834 34.666 12.501 54.999s2.5 40.166 2.5 59.499v558h115v-559z" />
    <glyph glyph-name="ij" unicode="&#x133;" horiz-adv-x="461" 
d="M179 0h-110v460h110v-460zM53 608c0 9.33301 1.83203 18.334 5.49902 27.001s8.83398 16.5 15.501 23.5s14.167 12.5 22.5 16.5s17.5 6 27.5 6c9.33301 0 18.333 -2 27 -6s16.5 -9.5 23.5 -16.5s12.5 -14.833 16.5 -23.5s6 -17.667 6 -27c0 -10 -2 -19.167 -6 -27.5
s-9.5 -15.833 -16.5 -22.5s-14.833 -11.834 -23.5 -15.501s-17.667 -5.5 -27 -5.5c-19.333 0 -36 7 -50 21s-21 30.667 -21 50zM391.999 -2.99902c0 -34 -3.83105 -66.3311 -11.498 -96.998s-18.834 -57.834 -33.501 -81.501s-32.834 -42.334 -54.501 -56.001
s-46.834 -20.5 -75.501 -20.5c-5.33301 0 -10.166 0.166992 -14.499 0.5s-7.5 1.16602 -9.5 2.49902l-18 67c2 -1.33301 5 -2.16602 9 -2.49902s8 -0.5 12 -0.5c20 0 35.667 6.16699 47 18.5s20 28 26 47s9.66699 39.5 11 61.5s2 42.667 2 62v462h110v-463zM266.001 608.003
c0 9.33301 1.83203 18.333 5.49902 27s8.83398 16.5 15.501 23.5s14.167 12.5 22.5 16.5s17.5 6 27.5 6c19.333 0 36.333 -7.5 51 -22.5s22 -32.167 22 -51.5s-7.5 -35.833 -22.5 -49.5s-32.167 -20.5 -51.5 -20.5s-35.833 7 -49.5 21s-20.5 30.667 -20.5 50z" />
    <glyph glyph-name="kgreenlandic" unicode="&#x138;" horiz-adv-x="493" 
d="M291 298l196 -298h-120l-149 226l-39 -39v-187h-110v460h110v-147l153 147h123z" />
    <glyph glyph-name="OE" unicode="&#x152;" horiz-adv-x="845" 
d="M806 0h-346c-29.333 -8 -61.333 -12 -96 -12c-53.333 0 -99.666 9 -138.999 27s-72 42.333 -98 73s-45.5 66.167 -58.5 106.5s-19.5 82.833 -19.5 127.5c0 47.333 7.16699 91.833 21.5 133.5s35.166 78 62.499 109s61 55.5 101 73.5s85.667 27 137 27
c12.667 0 25 -0.5 37 -1.5s23.667 -2.16699 35 -3.5h343v-100h-248v-160h181v-100h-181v-200h268v-100zM366 84c20.667 0 39.666 3 56.999 9v467c-17.333 6 -35.666 9 -54.999 9c-35.333 0 -65.5 -5.83301 -90.5 -17.5s-45.333 -28 -61 -49s-27 -46 -34 -75
s-10.5 -60.833 -10.5 -95.5c0 -82 16.667 -143.833 50 -185.5s81.333 -62.5 144 -62.5z" />
    <glyph glyph-name="oe" unicode="&#x153;" horiz-adv-x="844" 
d="M274 475c38.667 0 72.499 -6.99805 101.499 -20.998s52.167 -36.333 69.5 -67c39.333 58.667 96.666 88 171.999 88c58.667 0 104 -14.833 136 -44.5s48 -71.5 48 -125.5c0 -7.33301 -0.5 -15.166 -1.5 -23.499s-2.33301 -16.5 -4 -24.5s-3.66699 -15.167 -6 -21.5
s-4.83301 -11.5 -7.5 -15.5h-291c1.33301 -20 5 -38.833 11 -56.5s14.667 -33 26 -46s25.166 -23.333 41.499 -31s35.5 -11.5 57.5 -11.5c24.667 0 50.834 4.66699 78.501 14s51.167 21 70.5 35l18 -82c-8.66699 -5.33301 -19.334 -11.166 -32.001 -17.499
s-27 -12.166 -43 -17.499s-33.167 -9.83301 -51.5 -13.5s-37.5 -5.5 -57.5 -5.5c-35.333 0 -67.166 6.66699 -95.499 20s-51.166 34.666 -68.499 63.999c-17.333 -30.667 -40.333 -52.334 -69 -65.001s-62 -19 -100 -19c-40.667 0 -75.667 6.66699 -105 20
s-53.666 31.166 -72.999 53.499s-33.666 48.166 -42.999 77.499s-14 60.333 -14 93s4.66699 63.667 14 93s23.5 55.166 42.5 77.499s43.167 40 72.5 53s63.666 19.5 102.999 19.5zM275.999 71.002c19.333 0 36.1709 4.16797 50.5039 12.501s26.166 19.666 35.499 33.999
s16.166 30.833 20.499 49.5s6.5 38.334 6.5 59.001c0 21.333 -2.33301 41.833 -7 61.5s-11.834 37 -21.501 52s-21.834 27 -36.501 36s-32.334 13.5 -53.001 13.5c-19.333 0 -36 -4.16699 -50 -12.5s-25.5 -19.5 -34.5 -33.5s-15.667 -30.333 -20 -49
s-6.5 -38.334 -6.5 -59.001c0 -21.333 2.16699 -41.833 6.5 -61.5s11.333 -37.167 21 -52.5s21.834 -27.5 36.501 -36.5s32 -13.5 52 -13.5zM614.004 389.003c-30 0 -54.499 -8.5 -73.499 -25.5s-32.5 -38.833 -40.5 -65.5h191c0.666992 3.33301 1 6.33301 1 9v9
c0 24 -7.83301 42.167 -23.5 54.5s-33.834 18.5 -54.501 18.5z" />
    <glyph glyph-name="Scaron" unicode="&#x160;" horiz-adv-x="542" 
d="M172 501c0 -14 3.16992 -26.0029 9.50293 -36.0029s15.166 -18.667 26.499 -26s24.833 -14.166 40.5 -20.499s33.167 -12.833 52.5 -19.5c24 -8.66699 47.833 -18.5 71.5 -29.5s45 -24.667 64 -41s34.5 -36.5 46.5 -60.5s18 -53 18 -87c0 -36 -6.5 -66.333 -19.5 -91
s-30.5 -44.5 -52.5 -59.5s-47.333 -25.833 -76 -32.5s-58.334 -10 -89.001 -10c-44 0 -85.167 5.33301 -123.5 16s-71.166 23.667 -98.499 39l30 108c25.333 -19.333 53.5 -35.333 84.5 -48s66.5 -19 106.5 -19c42.667 0 73.667 7.5 93 22.5s29 35.167 29 60.5
c0 19.333 -4.66699 35.833 -14 49.5s-21 25.334 -35 35.001s-28.833 17.5 -44.5 23.5s-29.5 11 -41.5 15c-21.333 6.66699 -43 14.667 -65 24s-42.333 21.5 -61 36.5s-33.834 33.833 -45.501 56.5s-17.5 51 -17.5 85c0 32 5.5 59 16.5 81s26 39.833 45 53.5
s41.333 23.5 67 29.5s53.5 9 83.5 9c36.667 0 72.167 -3.66699 106.5 -11s63.166 -16.333 86.499 -27l-27 -106c-12 8 -25 15 -39 21s-28.5 11 -43.5 15s-30 7.16699 -45 9.5s-29.167 3.5 -42.5 3.5c-30 0 -53.667 -5.66699 -71 -17s-26 -28.666 -26 -51.999z
M269.003 704.997l-110 99l-3 7l16 29l7 3l94 -41l94 41l7 -3l16 -29l-3 -7l-110 -99h-8z" />
    <glyph glyph-name="scaron" unicode="&#x161;" horiz-adv-x="433" 
d="M209 393c-22 0 -39.167 -4.1709 -51.5 -12.5039s-18.5 -20.166 -18.5 -35.499c0 -10 3.5 -19.167 10.5 -27.5s21.833 -15.166 44.5 -20.499l71 -16c28 -6 50.5 -14.667 67.5 -26s30.333 -23.666 40 -36.999s16.167 -27 19.5 -41s5 -27 5 -39
c0 -21.333 -4.33301 -41.166 -13 -59.499s-21 -34.166 -37 -47.499s-35.333 -23.833 -58 -31.5s-48 -11.5 -76 -11.5c-35.333 0 -68 5.16699 -98 15.5s-54 21.833 -72 34.5l26 95c22.667 -22 48.167 -38.333 76.5 -49s54.5 -16 78.5 -16c25.333 0 44.666 5.5 57.999 16.5
s20 26.167 20 45.5c0 11.333 -3.33301 20.833 -10 28.5s-20 14.167 -40 19.5l-96 24c-22.667 5.33301 -41.167 13 -55.5 23s-25.666 21.167 -33.999 33.5s-14 25.166 -17 38.499s-4.5 26 -4.5 38c0 44.667 15.667 79.167 47 103.5s72 36.5 122 36.5c26 0 54 -3.5 84 -10.5
s55.333 -17.167 76 -30.5l-29 -90c-13.333 10.667 -32 21.5 -56 32.5s-50.667 16.5 -80 16.5zM208 534.996l-110 99l-3 7l16 29l7 3l94 -41l94 41l7 -3l16 -29l-3 -7l-110 -99h-8z" />
    <glyph glyph-name="Ydieresis" unicode="&#x178;" horiz-adv-x="564" 
d="M160 783c0 15.333 5.66699 29 17 41s24.666 18 39.999 18s29 -6 41 -18s18 -25.667 18 -41s-6 -28.666 -18 -39.999s-25.667 -17 -41 -17s-28.666 5.66699 -39.999 17s-17 24.666 -17 39.999zM296 783c0 15.333 5.66699 29 17 41s24.666 18 39.999 18s29 -6 41 -18
s18 -25.667 18 -41s-6 -28.666 -18 -39.999s-25.667 -17 -41 -17s-28.666 5.66699 -39.999 17s-17 24.666 -17 39.999zM-12 660h129l169 -299l162 299h127l-235 -389v-271h-115v267z" />
    <glyph glyph-name="Zcaron" unicode="&#x17d;" horiz-adv-x="554" 
d="M270 705l-110 99l-3 7l16 29l7 3l94 -41l94 41l7 -3l16 -29l-3 -7l-110 -99h-8zM511 0h-468v100l328 460h-313v100h438v-100l-328 -460h343v-100z" />
    <glyph glyph-name="zcaron" unicode="&#x17e;" horiz-adv-x="418" 
d="M201 535l-110 99l-3 7l16 29l7 3l94 -41l94 41l7 -3l16 -29l-3 -7l-110 -99h-8zM252 371h-200v89h314v-89l-216 -282h226v-89h-334v89z" />
    <glyph glyph-name="florin" unicode="&#x192;" horiz-adv-x="633" 
d="M385 393l-80.9961 -395.999c-16.667 -79.333 -43 -141.5 -79 -186.5s-82 -67.5 -138 -67.5c-16 0 -32.333 2 -49 6l-8 88c18 -4 33.667 -6 47 -6c16 0 29.667 2.83301 41 8.5s21.166 15.167 29.499 28.5s16 30.833 23 52.5s13.833 48.167 20.5 79.5l83 393h-43v57l56 7
l20 93c8 38 18.333 69.5 31 94.5s27 45 43 60s33.333 25.5 52 31.5s38 9 58 9c19.333 0 39.166 -2.33301 59.499 -7s40.166 -10.334 59.499 -17.001l-41 -86c-18 9.33301 -33.667 16.833 -47 22.5s-25 8.5 -35 8.5c-17.333 0 -31.333 -10.333 -42 -31
s-21.334 -57 -32.001 -109l-14 -66h87v-67h-101z" />
    <glyph glyph-name="schwa" unicode="&#x259;" horiz-adv-x="505" 
d="M227 -12c-58.667 0 -104.002 14.835 -136.002 44.502s-48 71.5 -48 125.5c0 7.33301 0.5 15.166 1.5 23.499s2.33301 16.5 4 24.5s3.66699 15.167 6 21.5s4.83301 11.5 7.5 15.5h290c-1.33301 20 -5 38.667 -11 56s-14.667 32.666 -26 45.999
s-25.166 23.833 -41.499 31.5s-35.166 11.5 -56.499 11.5c-24.667 0 -50.834 -4.66699 -78.501 -14s-51.167 -21 -70.5 -35l-18 82c8.66699 5.33301 19.334 11.166 32.001 17.499s27 12.166 43 17.499s33.167 9.83301 51.5 13.5s37.5 5.5 57.5 5.5
c37.333 0 70.333 -6.5 99 -19.5s52.667 -30.667 72 -53s34 -48.166 44 -77.499s15 -60 15 -92c0 -33.333 -5.16699 -64.666 -15.5 -93.999s-25.5 -55.333 -45.5 -78s-44.833 -40.5 -74.5 -53.5s-63.5 -19.5 -101.5 -19.5zM229.998 74.002c27.333 0 50.833 8 70.5 24
s34.167 38.333 43.5 67h-191c-0.666992 -2 -1.16699 -4.33301 -1.5 -7s-0.5 -6 -0.5 -10c0 -21.333 7.33301 -39 22 -53s33.667 -21 57 -21z" />
    <glyph glyph-name="circumflex" unicode="&#x2c6;" horiz-adv-x="234" 
d="M121 673l110 -99l3 -7l-16 -29l-7 -3l-94 41l-94 -41l-7 3l-16 29l3 7l110 99h8z" />
    <glyph glyph-name="caron" unicode="&#x2c7;" horiz-adv-x="234" 
d="M113 535l-110 99l-3 7l16 29l7 3l94 -41l94 41l7 -3l16 -29l-3 -7l-110 -99h-8z" />
    <glyph glyph-name="ring" unicode="&#x2da;" horiz-adv-x="164" 
d="M92 693c14.667 0 27.6689 -2.50098 39.002 -7.50098s21 -11.5 29 -19.5s14 -17 18 -27s6 -20.333 6 -31c0 -20 -7.66699 -38.333 -23 -55s-38 -25 -68 -25c-16 0 -29.833 2.5 -41.5 7.5s-21.334 11.333 -29.001 19s-13.334 16.334 -17.001 26.001s-5.5 19.5 -5.5 29.5
c0 21.333 8 40.5 24 57.5s38.667 25.5 68 25.5zM93.002 571.999c10 0 17.999 3.83105 23.999 11.498s9 15.834 9 24.501c0 9.33301 -3.16699 18.5 -9.5 27.5s-14.833 13.5 -25.5 13.5c-11.333 0 -19.833 -4 -25.5 -12s-8.5 -16.667 -8.5 -26s3.33301 -18.166 10 -26.499
s15.334 -12.5 26.001 -12.5z" />
    <glyph glyph-name="tilde" unicode="&#x2dc;" horiz-adv-x="311" 
d="M311 648c-2 -10.667 -5.16895 -21.499 -9.50195 -32.499s-10 -20.833 -17 -29.5s-15.667 -15.834 -26 -21.501s-22.833 -8.5 -37.5 -8.5c-8 0 -17.167 0.666992 -27.5 2s-21.5 3 -33.5 5s-24.167 3.66699 -36.5 5s-24.166 2 -35.499 2
c-15.333 0 -29.333 -1.83301 -42 -5.5s-23.667 -10.167 -33 -19.5l-13 23c4 12 8.33301 23.5 13 34.5s10.5 20.667 17.5 29s15.833 15 26.5 20s24.334 7.5 41.001 7.5c19.333 0 40.5 -2.33301 63.5 -7s43.5 -7 61.5 -7c12 0 24.333 1.83301 37 5.5s25.667 10.5 39 20.5z" />
    <glyph glyph-name="uni03BC" unicode="&#x3bc;" horiz-adv-x="546" 
d="M182 460l0.000976562 -299c0 -27.333 7.16699 -48.166 21.5 -62.499s32.833 -21.5 55.5 -21.5c23.333 0 44.666 8 63.999 24s33.666 38.667 42.999 68v291h111v-460h-86l-6 64h-4c-7.33301 -15.333 -16.666 -27.833 -27.999 -37.5s-23.666 -17.334 -36.999 -23.001
s-27.333 -9.66699 -42 -12s-29 -3.5 -43 -3.5c-28 0 -53 4 -75 12l-2 -8c-3.33301 -14 -6.83301 -27 -10.5 -39s-7.66699 -23.833 -12 -35.5l-14 -36c-5 -12.333 -10.833 -25.5 -17.5 -39.5l-104 47c12 22.667 22.667 44.167 32 64.5s17.166 40.833 23.499 61.5
s11.333 41.667 15 63s5.5 44.333 5.5 69v313h110z" />
    <glyph glyph-name="endash" unicode="&#x2013;" horiz-adv-x="544" 
d="M479 280v-82h-414v82h414z" />
    <glyph glyph-name="emdash" unicode="&#x2014;" horiz-adv-x="772" 
d="M707 280v-82h-642v82h642z" />
    <glyph glyph-name="quoteleft" unicode="&#x2018;" horiz-adv-x="252" 
d="M205 710l-45 -113h25v-137h-119v152l103 123z" />
    <glyph glyph-name="quoteright" unicode="&#x2019;" horiz-adv-x="233" 
d="M52 485l45 113h-25v137h119v-152l-103 -123z" />
    <glyph glyph-name="quotesinglbase" unicode="&#x201a;" horiz-adv-x="261" 
d="M51 -118l45 113h-25v137h119v-152l-103 -123z" />
    <glyph glyph-name="quotedblleft" unicode="&#x201c;" horiz-adv-x="411" 
d="M364 710l-45 -113h25v-137h-119v152l103 123zM205 710l-45 -113h25v-137h-119v152l103 123z" />
    <glyph glyph-name="quotedblright" unicode="&#x201d;" horiz-adv-x="392" 
d="M52 485l45 113h-25v137h119v-152l-103 -123zM211 485l45 113h-25v137h119v-152l-103 -123z" />
    <glyph glyph-name="quotedblbase" unicode="&#x201e;" horiz-adv-x="420" 
d="M51 -118l45 113h-25v137h119v-152l-103 -123zM210 -118l45 113h-25v137h119v-152l-103 -123z" />
    <glyph glyph-name="dagger" unicode="&#x2020;" horiz-adv-x="466" 
d="M168 109l22 216v94h-10l-144 -12v103l145 -12h10l-22 194h130l-22 -194h9l144 12v-103l-145 12h-9v-94l22 -216h-130z" />
    <glyph glyph-name="daggerdbl" unicode="&#x2021;" horiz-adv-x="500" 
d="M197 419l-144 -12v103l144 -12h10l-22 194h130l-22 -194h9l145 12v-103l-144 12h-10v-217h10l144 12v-103l-145 12h-9l22 -194h-130l22 194h-10l-144 -12v103l144 -12h10v217h-10z" />
    <glyph glyph-name="bullet" unicode="&#x2022;" horiz-adv-x="322" 
d="M89 243c0 9.33301 1.83203 18.334 5.49902 27.001s8.83398 16.5 15.501 23.5s14.167 12.5 22.5 16.5s17.5 6 27.5 6c9.33301 0 18.333 -2 27 -6s16.5 -9.5 23.5 -16.5s12.5 -14.833 16.5 -23.5s6 -17.667 6 -27c0 -10 -2 -19.167 -6 -27.5s-9.5 -15.833 -16.5 -22.5
s-14.833 -11.834 -23.5 -15.501s-17.667 -5.5 -27 -5.5c-19.333 0 -36 7 -50 21s-21 30.667 -21 50z" />
    <glyph glyph-name="ellipsis" unicode="&#x2026;" horiz-adv-x="634" 
d="M435 59c0 9.33301 1.83203 18.334 5.49902 27.001s8.83398 16.5 15.501 23.5s14.167 12.5 22.5 16.5s17.5 6 27.5 6c9.33301 0 18.333 -2 27 -6s16.5 -9.5 23.5 -16.5s12.5 -14.833 16.5 -23.5s6 -17.667 6 -27c0 -10 -2 -19.167 -6 -27.5s-9.5 -15.833 -16.5 -22.5
s-14.833 -11.834 -23.5 -15.501s-17.667 -5.5 -27 -5.5c-19.333 0 -36 7 -50 21s-21 30.667 -21 50zM55.999 59.001c0 9.33301 1.83203 18.334 5.49902 27.001s8.83398 16.5 15.501 23.5s14.167 12.5 22.5 16.5s17.5 6 27.5 6c9.33301 0 18.333 -2 27 -6
s16.5 -9.5 23.5 -16.5s12.5 -14.833 16.5 -23.5s6 -17.667 6 -27c0 -10 -2 -19.167 -6 -27.5s-9.5 -15.833 -16.5 -22.5s-14.833 -11.834 -23.5 -15.501s-17.667 -5.5 -27 -5.5c-19.333 0 -36 7 -50 21s-21 30.667 -21 50zM245.998 59.002
c0 9.33301 1.83203 18.334 5.49902 27.001s8.83398 16.5 15.501 23.5s14.167 12.5 22.5 16.5s17.5 6 27.5 6c9.33301 0 18.333 -2 27 -6s16.5 -9.5 23.5 -16.5s12.5 -14.833 16.5 -23.5s6 -17.667 6 -27c0 -10 -2 -19.167 -6 -27.5s-9.5 -15.833 -16.5 -22.5
s-14.833 -11.834 -23.5 -15.501s-17.667 -5.5 -27 -5.5c-19.333 0 -36 7 -50 21s-21 30.667 -21 50z" />
    <glyph glyph-name="perthousand" unicode="&#x2030;" horiz-adv-x="1196" 
d="M232 -24h-90l463 715h90zM194 665c24.667 0 46.667 -5.00195 66 -15.002s35.833 -23.333 49.5 -40s24 -36.167 31 -58.5s10.5 -45.833 10.5 -70.5c0 -24 -3.5 -47.333 -10.5 -70s-17.333 -42.667 -31 -60s-30.5 -31.166 -50.5 -41.499s-43 -15.5 -69 -15.5
c-25.333 0 -47.5 4.83301 -66.5 14.5s-35 22.834 -48 39.501s-22.667 36.167 -29 58.5s-9.5 45.833 -9.5 70.5c0 26 3.5 50.5 10.5 73.5s17.333 43 31 60s30.167 30.333 49.5 40s41.333 14.5 66 14.5zM191 358.998c13.333 0 24.666 3.16699 33.999 9.5s17 15 23 26
s10.5 23.667 13.5 38s4.5 29.833 4.5 46.5c0 36 -6 65.167 -18 87.5s-30.667 33.5 -56 33.5s-43.166 -11 -53.499 -33s-15.5 -50 -15.5 -84c0 -41.333 6 -72.333 18 -93s28.667 -31 50 -31zM647 365.998c24.667 0 46.667 -5.00195 66 -15.002s35.833 -23.333 49.5 -40
s24 -36.167 31 -58.5s10.5 -45.833 10.5 -70.5c0 -24 -3.5 -47.333 -10.5 -70s-17.333 -42.667 -31 -60s-30.5 -31.166 -50.5 -41.499s-43 -15.5 -69 -15.5c-25.333 0 -47.5 4.83301 -66.5 14.5s-35 22.834 -48 39.501s-22.667 36.167 -29 58.5s-9.5 45.833 -9.5 70.5
c0 26 3.5 50.5 10.5 73.5s17.333 43 31 60s30.167 30.333 49.5 40s41.333 14.5 66 14.5zM644 59.9961c13.333 0 24.666 3.16699 33.999 9.5s17 15 23 26s10.5 23.667 13.5 38s4.5 29.833 4.5 46.5c0 36 -6 65.167 -18 87.5s-30.667 33.5 -56 33.5s-43.166 -11 -53.499 -33
s-15.5 -50 -15.5 -84c0 -41.333 6 -72.333 18 -93s28.667 -31 50 -31zM1005 365.996c24.667 0 46.667 -5.00195 66 -15.002s35.833 -23.333 49.5 -40s24 -36.167 31 -58.5s10.5 -45.833 10.5 -70.5c0 -24 -3.5 -47.333 -10.5 -70s-17.333 -42.667 -31 -60
s-30.5 -31.166 -50.5 -41.499s-43 -15.5 -69 -15.5c-25.333 0 -47.5 4.83301 -66.5 14.5s-35 22.834 -48 39.501s-22.667 36.167 -29 58.5s-9.5 45.833 -9.5 70.5c0 26 3.5 50.5 10.5 73.5s17.333 43 31 60s30.167 30.333 49.5 40s41.333 14.5 66 14.5zM1002 59.9941
c13.333 0 24.666 3.16699 33.999 9.5s17 15 23 26s10.5 23.667 13.5 38s4.5 29.833 4.5 46.5c0 36 -6 65.167 -18 87.5s-30.667 33.5 -56 33.5s-43.166 -11 -53.499 -33s-15.5 -50 -15.5 -84c0 -41.333 6 -72.333 18 -93s28.667 -31 50 -31z" />
    <glyph glyph-name="guilsinglleft" unicode="&#x2039;" horiz-adv-x="337" 
d="M144 238l145 -177h-113l-133 178v5l134 176h112l-145 -177v-5z" />
    <glyph glyph-name="guilsinglright" unicode="&#x203a;" horiz-adv-x="337" 
d="M193 243l-145 177h112l134 -176v-5l-133 -178h-113l145 177v5z" />
    <glyph glyph-name="fraction" unicode="&#x2044;" horiz-adv-x="520" 
d="M74 -24h-90l463 715h90z" />
    <glyph glyph-name="zerosuperior" unicode="&#x2070;" horiz-adv-x="409" 
d="M205 665c24.667 0 46.667 -5.00195 66 -15.002s35.833 -23.333 49.5 -40s24 -36.167 31 -58.5s10.5 -45.833 10.5 -70.5c0 -24 -3.5 -47.333 -10.5 -70s-17.333 -42.667 -31 -60s-30.5 -31.166 -50.5 -41.499s-43 -15.5 -69 -15.5c-25.333 0 -47.5 4.83301 -66.5 14.5
s-35 22.834 -48 39.501s-22.667 36.167 -29 58.5s-9.5 45.833 -9.5 70.5c0 26 3.5 50.5 10.5 73.5s17.333 43 31 60s30.167 30.333 49.5 40s41.333 14.5 66 14.5zM202 358.998c13.333 0 24.666 3.16699 33.999 9.5s17 15 23 26s10.5 23.667 13.5 38s4.5 29.833 4.5 46.5
c0 36 -6 65.167 -18 87.5s-30.667 33.5 -56 33.5s-43.166 -11 -53.499 -33s-15.5 -50 -15.5 -84c0 -41.333 6 -72.333 18 -93s28.667 -31 50 -31z" />
    <glyph glyph-name="foursuperior" unicode="&#x2074;" horiz-adv-x="375" 
d="M323 390h-34v-91h-68v91h-182v62l147 213h103v-213h34v-62zM221 452v154l-110 -154h110z" />
    <glyph glyph-name="zeroinferior" unicode="&#x2080;" horiz-adv-x="421" 
d="M211 366c24.667 0 46.667 -5.00195 66 -15.002s35.833 -23.333 49.5 -40s24 -36.167 31 -58.5s10.5 -45.833 10.5 -70.5c0 -24 -3.5 -47.333 -10.5 -70s-17.333 -42.667 -31 -60s-30.5 -31.166 -50.5 -41.499s-43 -15.5 -69 -15.5c-25.333 0 -47.5 4.83301 -66.5 14.5
s-35 22.834 -48 39.501s-22.667 36.167 -29 58.5s-9.5 45.833 -9.5 70.5c0 26 3.5 50.5 10.5 73.5s17.333 43 31 60s30.167 30.333 49.5 40s41.333 14.5 66 14.5zM208 59.998c13.333 0 24.666 3.16699 33.999 9.5s17 15 23 26s10.5 23.667 13.5 38s4.5 29.833 4.5 46.5
c0 36 -6 65.167 -18 87.5s-30.667 33.5 -56 33.5s-43.166 -11 -53.499 -33s-15.5 -50 -15.5 -84c0 -41.333 6 -72.333 18 -93s28.667 -31 50 -31z" />
    <glyph glyph-name="oneinferior" unicode="&#x2081;" horiz-adv-x="256" 
d="M182 0h-75v266l-57 -28l-13 52l145 76v-366z" />
    <glyph glyph-name="twoinferior" unicode="&#x2082;" horiz-adv-x="359" 
d="M63 307c21.333 19.333 42.668 34.001 64.001 44.001s43.666 15 66.999 15c34 0 60.167 -9 78.5 -27s27.5 -41 27.5 -69c0 -19.333 -4.33301 -37.666 -13 -54.999s-20.5 -34.333 -35.5 -51s-32.333 -33.334 -52 -50.001l-62.5 -52h163v-62h-252v62
c16 18 34.5 35.167 55.5 51.5s40.667 32.333 59 48s33.833 31.5 46.5 47.5s19 33.333 19 52c0 4 -0.5 8.66699 -1.5 14s-3 10.333 -6 15s-7.33301 8.5 -13 11.5s-12.834 4.5 -21.501 4.5c-17.333 0 -35.666 -5.83301 -54.999 -17.5s-36.333 -26.834 -51 -45.501z" />
    <glyph glyph-name="threeinferior" unicode="&#x2083;" horiz-adv-x="342" 
d="M68 336c15.333 9.33301 29.666 16.668 42.999 22.001s29.333 8 48 8c34 0 60.5 -8.33301 79.5 -25s28.5 -38 28.5 -64c0 -18 -4.33301 -32.833 -13 -44.5s-20 -21.834 -34 -30.501c20.667 -7.33301 36.834 -18.166 48.501 -32.499s17.5 -33.5 17.5 -57.5
c0 -15.333 -2.66699 -30 -8 -44s-13.666 -26.5 -24.999 -37.5s-25.833 -19.667 -43.5 -26s-38.5 -9.5 -62.5 -9.5c-24.667 0 -44.167 3.33301 -58.5 10s-29.166 16 -44.499 28l12 60c14 -11.333 27 -20.5 39 -27.5s28 -10.5 48 -10.5c25.333 0 43.833 5.5 55.5 16.5
s17.5 26.167 17.5 45.5c0 17.333 -5.83301 30.833 -17.5 40.5s-33.834 14.5 -66.501 14.5h-12v54h15c21.333 0 37.166 4.16699 47.499 12.5s15.5 19.833 15.5 34.5c0 9.33301 -2.66699 17.166 -8 23.499s-16.333 9.5 -33 9.5c-17.333 0 -32.5 -3 -45.5 -9
s-23.833 -12.667 -32.5 -20z" />
    <glyph glyph-name="fourinferior" unicode="&#x2084;" horiz-adv-x="374" 
d="M319 91h-34v-91h-68v91h-182v62l147 213h103v-213h34v-62zM217 153v154l-110 -154h110z" />
    <glyph glyph-name="Euro" unicode="&#x20ac;" horiz-adv-x="616" 
d="M132 442c8 32.667 19.501 62.667 34.501 90s33.5 50.833 55.5 70.5s47.333 35 76 46s60.667 16.5 96 16.5c30 0 60.667 -3.83301 92 -11.5s57.666 -18.167 78.999 -31.5l-32 -111c-16.667 16 -37 29.333 -61 40s-51.667 16 -83 16c-40 0 -70.833 -11.167 -92.5 -33.5
s-37.167 -52.833 -46.5 -91.5h211v-82h-221v-53h221v-82h-212c19.333 -92.667 64 -139 134 -139c34 0 65.5 6 94.5 18s52.167 27.333 69.5 46l30 -101c-23.333 -16 -51.166 -30.167 -83.499 -42.5s-69.166 -18.5 -110.499 -18.5c-36.667 0 -69.334 6 -98.001 18
s-53.667 28.667 -75 50s-38.833 46.333 -52.5 75s-23.834 60 -30.501 94h-85v82h76v16v18.5c0 6.33301 0.333008 12.5 1 18.5h-77v82h90z" />
    <glyph glyph-name="trademark" unicode="&#x2122;" horiz-adv-x="712" 
d="M382 534v-165h-68v284h90l71 -201l70 201h89v-284h-68v164l-60 -164h-65zM281 589h-74v-220h-68v220h-74v64h216v-64z" />
    <glyph glyph-name="onethird" unicode="&#x2153;" horiz-adv-x="773" 
d="M516 336c15.333 9.33301 29.666 16.668 42.999 22.001s29.333 8 48 8c34 0 60.5 -8.33301 79.5 -25s28.5 -38 28.5 -64c0 -18 -4.33301 -32.833 -13 -44.5s-20 -21.834 -34 -30.501c20.667 -7.33301 36.834 -18.166 48.501 -32.499s17.5 -33.5 17.5 -57.5
c0 -15.333 -2.66699 -30 -8 -44s-13.666 -26.5 -24.999 -37.5s-25.833 -19.667 -43.5 -26s-38.5 -9.5 -62.5 -9.5c-24.667 0 -44.167 3.33301 -58.5 10s-29.166 16 -44.499 28l12 60c14 -11.333 27 -20.5 39 -27.5s28 -10.5 48 -10.5c25.333 0 43.833 5.5 55.5 16.5
s17.5 26.167 17.5 45.5c0 17.333 -5.83301 30.833 -17.5 40.5s-33.834 14.5 -66.501 14.5h-12v54h15c21.333 0 37.166 4.16699 47.499 12.5s15.5 19.833 15.5 34.5c0 9.33301 -2.66699 17.166 -8 23.499s-16.333 9.5 -33 9.5c-17.333 0 -32.5 -3 -45.5 -9
s-23.833 -12.667 -32.5 -20zM177 -23.998h-90l463 715h90zM179 299.002h-75v266l-57 -28l-13 52l145 76v-366z" />
    <glyph glyph-name="twothirds" unicode="&#x2154;" horiz-adv-x="777" 
d="M54 606c21.333 19.333 42.668 34.001 64.001 44.001s43.666 15 66.999 15c34 0 60.167 -9 78.5 -27s27.5 -41 27.5 -69c0 -19.333 -4.33301 -37.666 -13 -54.999s-20.5 -34.333 -35.5 -51s-32.333 -33.334 -52 -50.001l-62.5 -52h163v-62h-252v62
c16 18 34.5 35.167 55.5 51.5s40.667 32.333 59 48s33.833 31.5 46.5 47.5s19 33.333 19 52c0 4 -0.5 8.66699 -1.5 14s-3 10.333 -6 15s-7.33301 8.5 -13 11.5s-12.834 4.5 -21.501 4.5c-17.333 0 -35.666 -5.83301 -54.999 -17.5s-36.333 -26.834 -51 -45.501z
M225.002 -23.999h-90l463 715h90zM521.002 336.001c15.333 9.33301 29.666 16.668 42.999 22.001s29.333 8 48 8c34 0 60.5 -8.33301 79.5 -25s28.5 -38 28.5 -64c0 -18 -4.33301 -32.833 -13 -44.5s-20 -21.834 -34 -30.501c20.667 -7.33301 36.834 -18.166 48.501 -32.499
s17.5 -33.5 17.5 -57.5c0 -15.333 -2.66699 -30 -8 -44s-13.666 -26.5 -24.999 -37.5s-25.833 -19.667 -43.5 -26s-38.5 -9.5 -62.5 -9.5c-24.667 0 -44.167 3.33301 -58.5 10s-29.166 16 -44.499 28l12 60c14 -11.333 27 -20.5 39 -27.5s28 -10.5 48 -10.5
c25.333 0 43.833 5.5 55.5 16.5s17.5 26.167 17.5 45.5c0 17.333 -5.83301 30.833 -17.5 40.5s-33.834 14.5 -66.501 14.5h-12v54h15c21.333 0 37.166 4.16699 47.499 12.5s15.5 19.833 15.5 34.5c0 9.33301 -2.66699 17.166 -8 23.499s-16.333 9.5 -33 9.5
c-17.333 0 -32.5 -3 -45.5 -9s-23.833 -12.667 -32.5 -20z" />
    <glyph glyph-name="minus" unicode="&#x2212;" horiz-adv-x="552" 
d="M483 280v-82h-414v82h414z" />
    <glyph glyph-name="---Components---" horiz-adv-x="0" 
 />
    </font>
</defs>
</svg>
